<svg version="1.1" id="Layer_1" xmlns="http://www.w3.org/2000/svg" xmlns:xlink="http://www.w3.org/1999/xlink" x="0px" y="0px"
	 width="100%" viewBox="0 0 200 200" enable-background="new 0 0 200 200" xml:space="preserve">
<path fill="#FDFEFE" opacity="1.000000" stroke="none" 
	d="
M104.000000,201.000000 
	C69.354691,201.000000 35.209385,201.000000 1.032038,201.000000 
	C1.032038,134.396378 1.032038,67.792740 1.032038,1.094551 
	C67.561836,1.094551 134.123856,1.094551 200.842926,1.094551 
	C200.842926,67.666374 200.842926,134.333145 200.842926,201.000000 
	C168.792984,201.000000 136.646484,201.000000 104.000000,201.000000 
M103.175323,75.957520 
	C100.230316,75.957520 97.285316,75.957520 94.088272,75.957520 
	C94.088272,94.182320 94.088272,112.008446 94.088272,130.346130 
	C102.096695,130.346130 109.851387,130.431137 117.603096,130.315964 
	C122.691307,130.240387 127.775230,129.875610 133.563278,129.341156 
	C134.043259,129.494415 134.523254,129.647675 135.303680,130.148331 
	C135.303680,130.148331 135.757324,130.076599 136.502838,130.355408 
	C139.318512,130.238892 142.134186,130.122375 145.656021,129.846985 
	C147.173965,125.631508 148.471207,121.314857 150.331635,117.256371 
	C150.968048,115.868042 152.964935,114.309273 154.428024,114.216766 
	C169.136337,113.286774 169.142029,113.367935 173.985870,126.977577 
	C174.152969,127.447067 174.142044,128.101227 174.464050,128.371201 
	C175.376358,129.136093 176.374847,130.230423 177.417999,130.324615 
	C180.349579,130.589340 183.320618,130.416977 186.915543,130.416977 
	C186.196503,128.285660 185.708115,126.774429 185.178345,125.277847 
	C180.459915,111.948624 175.738129,98.620590 171.009323,85.295052 
	C167.448685,75.261406 167.438171,75.190750 156.791794,75.965950 
	C155.490204,76.060715 153.541672,77.164131 153.141022,78.257462 
	C146.965469,95.109985 140.996811,112.038330 134.081039,128.972458 
	C133.599380,126.471184 133.117722,123.969917 132.560181,121.074577 
	C123.423065,121.074577 114.342834,121.074577 104.400490,121.074577 
	C104.400490,108.757614 104.400490,96.853928 104.656487,84.274429 
	C104.589256,81.812706 104.522026,79.350983 104.668045,76.571159 
	C104.564545,76.260422 104.360085,76.164444 103.175323,75.957520 
M65.809563,83.902878 
	C70.061279,85.054169 72.441055,87.988792 73.948006,91.989677 
	C74.368172,93.105225 75.654915,94.508141 76.701263,94.654327 
	C79.402489,95.031685 82.191475,94.780716 84.934486,94.780716 
	C84.780846,85.234985 78.954590,78.247749 69.915253,76.063469 
	C48.505249,70.889908 32.121384,86.611710 35.552925,109.037209 
	C38.465206,128.069260 56.417599,137.491669 73.823784,129.123871 
	C80.823914,125.758629 84.999451,119.145370 84.424904,111.893204 
	C82.983742,111.893204 81.508598,111.893211 80.033455,111.893211 
	C78.218216,111.893211 76.402977,111.893204 74.547630,111.893204 
	C74.229576,112.806747 74.033905,113.418350 73.805412,114.017433 
	C71.199730,120.849174 67.438614,123.797859 61.418362,123.736603 
	C55.527996,123.676659 49.841904,120.096245 48.659245,113.709442 
	C47.480495,107.343750 47.137653,100.425606 48.341824,94.114799 
	C49.924290,85.821442 56.336792,82.543045 65.809563,83.902878 
M16.558565,104.499771 
	C16.558565,113.074104 16.558565,121.648438 16.558565,130.138397 
	C20.618935,130.138397 23.876627,130.138397 27.279812,130.138397 
	C27.279812,111.942017 27.279812,94.073975 27.279812,76.219101 
	C23.584345,76.219101 20.213587,76.219101 16.559008,76.219101 
	C16.559008,85.573860 16.559008,94.536804 16.558565,104.499771 
z"/>
<path fill="#1C6094" opacity="1.000000" stroke="none" 
	d="
M134.980103,128.949066 
	C140.996811,112.038330 146.965469,95.109985 153.141022,78.257462 
	C153.541672,77.164131 155.490204,76.060715 156.791794,75.965950 
	C167.438171,75.190750 167.448685,75.261406 171.009323,85.295052 
	C175.738129,98.620590 180.459915,111.948624 185.178345,125.277847 
	C185.708115,126.774429 186.196503,128.285660 186.915543,130.416977 
	C183.320618,130.416977 180.349579,130.589340 177.417999,130.324615 
	C176.374847,130.230423 175.376358,129.136093 174.464050,128.371201 
	C174.142044,128.101227 174.152969,127.447067 173.985870,126.977577 
	C169.142029,113.367935 169.136337,113.286774 154.428024,114.216766 
	C152.964935,114.309273 150.968048,115.868042 150.331635,117.256371 
	C148.471207,121.314857 147.173965,125.631508 144.852432,129.919724 
	C141.285004,130.020508 138.521164,130.048553 135.757324,130.076599 
	C135.757324,130.076599 135.303680,130.148331 135.150894,129.761642 
	C134.998108,129.374954 134.980103,128.949066 134.980103,128.949066 
M155.942657,99.306252 
	C155.402222,101.168823 154.861801,103.031395 154.225281,105.225143 
	C158.621704,105.225143 162.569885,105.225143 166.965164,105.225143 
	C164.857773,98.612320 162.917755,92.524681 160.605469,85.268906 
	C158.858841,90.482979 157.507889,94.515915 155.942657,99.306252 
z"/>
<path fill="#1F6295" opacity="1.000000" stroke="none" 
	d="
M65.388916,83.815903 
	C56.336792,82.543045 49.924290,85.821442 48.341824,94.114799 
	C47.137653,100.425606 47.480495,107.343750 48.659245,113.709442 
	C49.841904,120.096245 55.527996,123.676659 61.418362,123.736603 
	C67.438614,123.797859 71.199730,120.849174 73.805412,114.017433 
	C74.033905,113.418350 74.229576,112.806747 74.547630,111.893204 
	C76.402977,111.893204 78.218216,111.893211 80.033455,111.893211 
	C81.508598,111.893211 82.983742,111.893204 84.424904,111.893204 
	C84.999451,119.145370 80.823914,125.758629 73.823784,129.123871 
	C56.417599,137.491669 38.465206,128.069260 35.552925,109.037209 
	C32.121384,86.611710 48.505249,70.889908 69.915253,76.063469 
	C78.954590,78.247749 84.780846,85.234985 84.934486,94.780716 
	C82.191475,94.780716 79.402489,95.031685 76.701263,94.654327 
	C75.654915,94.508141 74.368172,93.105225 73.948006,91.989677 
	C72.441055,87.988792 70.061279,85.054169 65.388916,83.815903 
z"/>
<path fill="#1C6398" opacity="1.000000" stroke="none" 
	d="
M134.530579,128.960754 
	C134.980103,128.949066 134.998108,129.374954 135.000671,129.587952 
	C134.523254,129.647675 134.043259,129.494415 132.877975,129.271027 
	C121.881454,129.133148 111.565445,128.855820 101.261185,129.091812 
	C96.567856,129.199310 94.764053,127.893860 94.901718,122.938141 
	C95.220467,111.463463 95.002014,99.973892 95.005554,88.490364 
	C95.006325,85.994156 94.422943,83.277557 95.230339,81.073326 
	C95.846825,79.390251 98.234802,78.356049 99.834755,77.033203 
	C100.888283,78.396683 102.076309,79.679993 102.952194,81.149361 
	C103.636002,82.296486 103.932106,83.674713 104.400490,84.950249 
	C104.400490,96.853928 104.400490,108.757614 104.400490,121.074577 
	C114.342834,121.074577 123.423065,121.074577 132.560181,121.074577 
	C133.117722,123.969917 133.599380,126.471184 134.530579,128.960754 
z"/>
<path fill="#206397" opacity="1.000000" stroke="none" 
	d="
M16.558786,103.999763 
	C16.559008,94.536804 16.559008,85.573860 16.559008,76.219101 
	C20.213587,76.219101 23.584345,76.219101 27.279812,76.219101 
	C27.279812,94.073975 27.279812,111.942017 27.279812,130.138397 
	C23.876627,130.138397 20.618935,130.138397 16.558565,130.138397 
	C16.558565,121.648438 16.558565,113.074104 16.558786,103.999763 
z"/>
<path fill="#225982" opacity="1.000000" stroke="none" 
	d="
M104.528488,84.612335 
	C103.932106,83.674713 103.636002,82.296486 102.952194,81.149361 
	C102.076309,79.679993 100.888283,78.396683 99.834755,77.033203 
	C98.234802,78.356049 95.846825,79.390251 95.230339,81.073326 
	C94.422943,83.277557 95.006325,85.994156 95.005554,88.490364 
	C95.002014,99.973892 95.220467,111.463463 94.901718,122.938141 
	C94.764053,127.893860 96.567856,129.199310 101.261185,129.091812 
	C111.565445,128.855820 121.881454,129.133148 132.526871,129.420624 
	C127.775230,129.875610 122.691307,130.240387 117.603096,130.315964 
	C109.851387,130.431137 102.096695,130.346130 94.088272,130.346130 
	C94.088272,112.008446 94.088272,94.182320 94.088272,75.957520 
	C97.285316,75.957520 100.230316,75.957520 103.648239,76.241043 
	C104.190147,76.684753 104.301361,76.806313 104.454803,76.889259 
	C104.522026,79.350983 104.589256,81.812706 104.528488,84.612335 
z"/>
<path fill="#1C6398" opacity="1.000000" stroke="none" 
	d="
M136.130081,130.216003 
	C138.521164,130.048553 141.285004,130.020508 144.499359,129.999176 
	C142.134186,130.122375 139.318512,130.238892 136.130081,130.216003 
z"/>
<path fill="#1C6398" opacity="1.000000" stroke="none" 
	d="
M104.561424,76.730209 
	C104.301361,76.806313 104.190147,76.684753 104.087906,76.403900 
	C104.360085,76.164444 104.564545,76.260422 104.561424,76.730209 
z"/>
<path fill="#E2F1F7" opacity="1.000000" stroke="none" 
	d="
M156.049789,98.927551 
	C157.507889,94.515915 158.858841,90.482979 160.605469,85.268906 
	C162.917755,92.524681 164.857773,98.612320 166.965164,105.225143 
	C162.569885,105.225143 158.621704,105.225143 154.225281,105.225143 
	C154.861801,103.031395 155.402222,101.168823 156.049789,98.927551 
z"/>
</svg>