<?xml version="1.0" encoding="UTF-8" standalone="no"?>
<!DOCTYPE svg PUBLIC "-//W3C//DTD SVG 1.1//EN" "http://www.w3.org/Graphics/SVG/1.1/DTD/svg11.dtd">
<svg xmlns="http://www.w3.org/2000/svg" version="1.1" viewBox="0 0 2543 824">
<path fill="#37b34a" d="
  M 809.29 143.21
  Q 819.40 153.46 829.35 163.54
  Q 831.02 165.23 829.04 166.52
  Q 819.17 172.99 808.34 177.65
  Q 783.03 188.55 758.26 200.64
  C 744.21 207.51 729.19 211.22 715.24 218.27
  C 695.29 228.37 673.80 236.72 658.20 244.45
  C 620.27 263.26 578.35 278.46 535.81 299.06
  Q 505.36 313.80 471.22 327.27
  C 461.91 330.94 452.69 335.09 442.50 340.01
  Q 415.27 353.17 387.54 365.27
  C 384.91 366.42 382.54 367.08 380.04 368.68
  C 363.76 379.16 342.73 376.65 327.93 364.79
  C 298.44 341.14 266.33 320.16 235.31 298.53
  C 230.61 295.25 226.15 292.48 220.28 295.27
  C 207.80 301.18 208.90 312.80 214.78 323.39
  Q 218.03 329.25 218.77 330.90
  C 237.79 373.34 255.92 408.04 273.21 450.30
  Q 280.58 468.32 292.40 492.39
  C 296.71 501.16 301.84 509.10 310.95 513.50
  C 324.29 519.93 333.00 515.22 344.44 508.19
  C 355.20 501.57 370.07 494.93 382.29 487.57
  C 397.58 478.37 413.33 469.85 428.38 460.30
  C 445.52 449.42 459.00 440.77 475.88 433.59
  Q 480.56 431.60 484.55 428.95
  C 505.23 415.19 525.06 404.98 544.86 392.18
  C 556.50 384.66 573.36 378.02 581.46 372.97
  Q 616.10 351.36 651.36 330.79
  Q 658.19 326.81 668.93 321.24
  C 698.69 305.82 727.11 285.92 755.58 271.25
  Q 765.53 266.13 773.09 261.62
  C 789.29 251.97 805.51 242.78 821.63 232.58
  Q 839.02 221.57 857.13 211.75
  Q 860.13 210.12 862.24 210.49
  C 867.54 211.43 875.96 230.26 877.95 235.34
  Q 884.37 251.75 891.42 267.90
  Q 895.97 278.34 898.58 286.55
  C 906.42 311.26 911.21 333.50 913.57 359.10
  C 918.08 407.89 909.86 459.11 890.79 504.43
  Q 883.39 522.01 876.96 538.68
  Q 875.94 541.31 874.39 543.67
  C 860.94 564.10 848.71 584.21 831.80 603.17
  C 820.11 616.29 807.77 631.23 795.93 641.43
  Q 760.37 672.06 715.03 699.52
  C 697.26 710.30 682.98 717.22 665.36 723.39
  C 656.35 726.55 645.80 731.45 635.43 734.92
  C 616.44 741.28 598.58 747.33 579.75 751.48
  Q 551.23 757.77 522.26 761.56
  C 492.73 765.41 462.45 765.55 432.74 764.46
  C 411.24 763.67 388.40 760.63 368.50 757.00
  C 357.20 754.94 338.89 751.34 324.20 747.08
  C 316.36 744.80 307.33 741.59 299.70 741.59
  C 288.56 741.58 280.38 744.84 270.58 751.36
  Q 251.76 763.86 231.48 773.84
  C 210.86 783.98 191.86 797.53 170.62 808.40
  C 164.07 811.75 156.39 806.99 153.76 801.27
  C 149.65 792.33 155.68 775.58 157.68 766.26
  Q 163.55 738.85 168.51 723.75
  C 173.22 709.43 179.81 691.97 169.46 678.55
  C 165.32 673.18 158.70 668.06 151.95 663.15
  C 108.24 631.31 75.12 590.17 47.50 545.00
  C 44.96 540.85 42.11 533.21 40.63 529.80
  C 28.60 502.11 22.13 487.95 16.57 466.74
  C 12.64 451.79 9.58 436.27 7.57 420.90
  C 6.58 413.24 3.89 406.06 3.18 398.46
  Q 2.76 393.94 1.69 387.01
  C 1.05 382.85 2.79 378.40 3.05 374.23
  C 3.49 367.18 6.07 361.23 6.88 354.51
  C 11.07 319.63 19.93 286.75 34.58 254.80
  C 39.26 244.60 43.19 235.03 47.34 225.08
  Q 48.16 223.11 50.74 219.22
  C 70.92 188.87 92.78 159.35 119.76 134.62
  C 132.37 123.06 145.19 111.28 159.00 101.17
  C 174.65 89.71 192.31 79.77 208.89 69.51
  C 220.22 62.50 231.01 57.11 242.66 51.83
  C 254.97 46.23 269.18 41.89 282.50 36.99
  Q 296.05 31.99 322.88 24.25
  Q 332.99 21.34 342.25 19.25
  Q 377.22 11.38 403.75 8.74
  C 420.34 7.08 435.83 4.80 449.24 4.08
  Q 463.63 3.31 475.01 4.24
  Q 483.40 4.92 527.07 10.14
  Q 550.62 12.96 580.45 19.80
  C 607.25 25.94 634.09 35.38 659.92 44.78
  C 678.60 51.58 697.37 60.56 713.69 70.80
  Q 733.98 83.53 754.32 96.17
  Q 759.98 99.69 766.35 104.76
  C 781.37 116.72 795.81 129.53 809.29 143.21
  Z"
/>
<path fill="#242222" d="
  M 1649.58 143.20
  C 1647.08 131.73 1640.01 121.08 1634.41 110.82
  Q 1632.80 107.86 1633.85 103.94
  A 1.03 0.93 -5.1 0 1 1634.46 103.28
  Q 1638.88 101.51 1643.26 99.74
  C 1647.47 98.04 1651.18 95.45 1655.24 93.11
  Q 1657.53 91.80 1658.79 94.11
  C 1667.42 109.87 1674.88 126.14 1682.33 142.12
  A 2.14 2.14 78.5 0 0 1684.19 143.36
  C 1691.12 143.62 1699.50 143.32 1704.34 143.35
  Q 1744.95 143.63 1786.02 143.46
  Q 1789.26 143.45 1789.81 146.64
  C 1791.09 154.07 1789.77 161.71 1790.53 169.51
  A 1.56 1.56 -2.3 0 1 1788.95 171.22
  C 1785.53 171.15 1781.86 171.73 1778.68 171.73
  Q 1664.15 171.77 1549.63 171.75
  C 1545.22 171.75 1537.40 172.30 1531.24 171.64
  A 1.66 1.66 -87.3 0 1 1529.76 170.01
  C 1529.67 161.68 1529.44 153.16 1531.19 144.97
  A 0.84 0.82 -2.5 0 1 1531.78 144.34
  C 1537.06 142.77 1541.68 143.44 1546.69 143.46
  C 1580.82 143.61 1615.09 142.78 1649.19 143.68
  A 0.39 0.39 84.2 0 0 1649.58 143.20
  Z"
/>
<path fill="#242222" d="
  M 1947.40 353.02
  Q 1942.03 347.80 1939.41 344.33
  C 1929.14 330.69 1917.65 318.97 1907.64 304.39
  Q 1895.71 287.02 1885.28 268.71
  C 1881.76 262.52 1879.49 256.80 1879.15 249.41
  Q 1878.69 239.29 1879.81 229.74
  A 1.52 1.52 -84.3 0 1 1881.44 228.40
  Q 1888.52 228.96 1894.56 229.01
  Q 1936.37 229.31 1978.20 229.22
  Q 1981.51 229.21 1981.50 225.91
  C 1981.48 208.76 1981.10 191.48 1981.74 174.23
  Q 1981.83 171.95 1979.55 171.94
  Q 1905.75 171.51 1831.25 171.99
  Q 1827.85 172.01 1824.47 171.46
  A 1.98 1.97 -85.2 0 1 1822.82 169.50
  L 1823.03 146.57
  A 2.07 1.97 87.0 0 1 1824.76 144.55
  Q 1827.03 144.26 1830.31 144.25
  Q 1904.75 143.91 1979.16 144.09
  Q 1981.25 144.10 1981.28 142.00
  Q 1981.62 118.65 1980.85 95.31
  A 1.28 1.25 -3.9 0 1 1982.00 94.02
  Q 1995.60 92.66 2009.25 93.54
  A 1.72 1.67 -88.0 0 1 2010.81 95.26
  C 2010.74 110.48 2010.08 126.45 2010.81 141.86
  Q 2010.91 143.99 2013.05 143.99
  Q 2088.16 144.01 2163.25 144.04
  Q 2166.22 144.04 2169.17 144.36
  A 0.65 0.64 3.0 0 1 2169.75 145.00
  L 2169.95 171.00
  A 0.62 0.42 -5.4 0 1 2169.40 171.45
  Q 2165.29 171.99 2162.50 171.97
  Q 2086.87 171.46 2012.74 171.95
  Q 2010.43 171.96 2010.48 174.27
  Q 2010.95 196.25 2010.52 216.93
  Q 2010.41 222.58 2011.07 228.06
  A 1.19 1.18 86.7 0 0 2012.23 229.10
  Q 2052.00 229.50 2091.76 229.03
  Q 2093.71 229.01 2098.87 232.67
  Q 2105.82 237.61 2113.09 242.06
  A 0.62 0.61 -64.2 0 1 2113.34 242.80
  C 2102.95 270.38 2089.88 297.80 2072.07 318.07
  Q 2061.74 329.82 2051.48 341.63
  C 2041.04 353.65 2030.76 363.43 2019.08 373.36
  Q 2015.59 376.32 2019.83 378.05
  Q 2035.97 384.62 2052.45 394.12
  Q 2059.94 398.43 2066.02 401.09
  Q 2088.04 410.72 2106.69 418.04
  C 2119.93 423.24 2134.98 427.26 2149.09 432.16
  Q 2151.77 433.09 2149.86 435.18
  C 2144.65 440.86 2142.14 448.10 2137.02 454.23
  A 1.88 1.87 31.9 0 1 2134.80 454.74
  Q 2133.16 454.00 2130.72 453.39
  Q 2113.32 449.03 2096.53 442.80
  C 2086.21 438.97 2075.27 436.43 2064.81 432.59
  Q 2056.83 429.66 2047.79 424.79
  C 2029.56 414.95 2011.02 404.78 1994.44 392.28
  A 1.42 1.42 46.0 0 0 1992.76 392.25
  Q 1976.17 403.93 1958.08 413.11
  C 1945.76 419.37 1932.60 426.84 1920.60 431.44
  Q 1911.41 434.96 1901.91 437.54
  C 1893.80 439.75 1887.12 442.27 1879.75 445.01
  Q 1862.06 451.58 1843.80 454.98
  A 1.26 1.17 71.8 0 1 1842.49 454.26
  Q 1836.04 440.43 1826.30 428.69
  A 0.87 0.83 64.2 0 1 1826.75 427.29
  Q 1845.08 423.84 1863.12 419.17
  C 1877.82 415.37 1894.70 409.09 1907.31 404.30
  Q 1924.80 397.65 1930.95 394.20
  C 1944.28 386.72 1955.77 382.16 1967.93 376.63
  Q 1970.29 375.56 1968.44 373.75
  C 1961.27 366.74 1955.26 360.66 1947.40 353.02
  Z
  M 1953.87 318.88
  C 1966.33 331.10 1979.30 342.81 1992.20 354.56
  A 1.97 1.97 46.5 0 0 1994.78 354.63
  Q 2013.15 339.57 2030.00 324.76
  Q 2040.27 315.74 2047.94 304.44
  Q 2061.06 285.12 2073.80 265.56
  C 2074.54 264.42 2080.86 255.70 2075.24 256.19
  Q 2066.23 256.99 2064.50 256.99
  Q 1989.38 257.09 1914.23 256.90
  A 1.51 1.16 19.4 0 0 1913.34 257.19
  C 1911.74 258.50 1911.91 260.86 1913.13 262.53
  Q 1924.66 278.29 1934.84 294.95
  Q 1942.86 308.09 1953.87 318.88
  Z"
/>
<path fill="#242222" d="
  M 2230.33 255.56
  Q 2229.53 253.55 2228.40 255.40
  Q 2218.40 271.76 2209.73 287.70
  C 2207.16 292.44 2204.65 296.09 2201.43 299.94
  A 0.75 0.68 50.9 0 1 2200.27 299.77
  L 2185.32 273.68
  Q 2183.98 271.33 2185.90 269.42
  Q 2189.34 266.01 2192.06 262.02
  Q 2204.74 243.34 2214.30 222.95
  Q 2218.83 213.29 2222.91 205.46
  C 2232.61 186.86 2240.29 167.38 2248.70 148.19
  Q 2251.97 140.75 2262.75 106.87
  C 2263.83 103.48 2264.24 100.56 2264.73 97.11
  Q 2265.41 92.24 2270.08 94.65
  Q 2277.85 98.67 2285.81 102.32
  C 2288.52 103.56 2290.41 105.61 2292.15 107.79
  A 2.10 2.08 34.8 0 1 2292.51 109.73
  C 2287.25 126.07 2281.90 142.95 2274.74 158.54
  C 2270.64 167.46 2268.16 176.06 2264.57 186.07
  C 2260.78 196.64 2262.24 207.86 2262.20 219.33
  C 2261.94 297.23 2261.18 375.28 2262.44 453.17
  Q 2262.47 455.16 2260.49 455.22
  L 2233.31 455.95
  A 1.41 1.39 85.1 0 1 2231.90 454.74
  C 2231.25 450.33 2231.48 445.93 2231.48 441.66
  Q 2231.52 352.08 2231.45 262.50
  Q 2231.45 258.37 2230.33 255.56
  Z"
/>
<path fill="#242222" d="
  M 1472.92 254.28
  A 1.03 1.00 39.6 0 0 1471.38 254.40
  Q 1456.62 275.42 1442.92 297.13
  A 2.21 1.55 -4.7 0 1 1442.07 297.84
  Q 1440.74 298.44 1439.25 298.23
  A 0.77 0.76 83.6 0 1 1438.63 297.73
  Q 1434.48 286.73 1428.22 276.77
  Q 1426.82 274.55 1426.74 270.53
  A 1.42 1.37 -27.1 0 1 1427.05 269.63
  C 1429.23 266.91 1431.80 265.11 1433.32 261.97
  C 1445.05 237.70 1460.29 215.12 1471.38 190.62
  Q 1484.01 162.72 1486.30 156.80
  Q 1489.25 149.22 1494.11 131.05
  C 1496.62 121.67 1500.80 110.56 1503.27 99.98
  C 1504.51 94.66 1508.22 92.47 1513.30 95.47
  C 1519.24 98.98 1526.40 101.05 1531.56 105.19
  C 1536.31 109.01 1530.39 119.07 1528.98 123.66
  C 1522.60 144.44 1513.71 163.51 1505.41 183.07
  C 1503.86 186.72 1501.00 191.39 1501.00 196.00
  Q 1501.00 321.00 1501.00 446.00
  C 1501.00 448.36 1500.67 451.31 1500.76 454.01
  A 1.76 1.73 -1.1 0 1 1499.01 455.80
  L 1476.82 455.98
  Q 1474.23 456.00 1473.82 453.51
  C 1473.25 450.05 1473.49 446.12 1473.49 442.93
  Q 1473.51 357.60 1473.50 272.27
  C 1473.50 270.74 1474.53 255.84 1472.92 254.28
  Z"
/>
<path fill="#242222" d="
  M 1113.52 111.53
  Q 1112.07 112.33 1111.24 114.01
  C 1107.00 122.50 1102.94 130.02 1099.04 139.09
  Q 1096.04 146.06 1093.46 149.70
  Q 1068.34 185.18 1039.07 217.34
  Q 1036.85 219.78 1034.89 217.13
  Q 1030.43 211.06 1025.93 203.95
  C 1021.68 197.23 1020.53 192.14 1026.17 186.15
  C 1046.27 164.82 1063.69 141.29 1077.98 115.72
  C 1081.81 108.87 1085.16 102.03 1089.71 95.59
  Q 1090.88 93.93 1092.53 94.98
  L 1114.28 108.74
  A 1.07 0.73 22.5 0 1 1114.78 109.51
  Q 1114.75 110.85 1113.52 111.53
  Z"
/>
<path fill="#242222" d="
  M 1371.87 457.23
  Q 1363.48 447.32 1355.67 439.59
  Q 1343.65 427.69 1342.21 426.05
  Q 1330.06 412.25 1321.19 396.06
  C 1319.02 392.09 1316.68 389.08 1313.75 386.08
  A 1.47 1.46 -52.9 0 0 1311.41 386.41
  C 1296.92 413.12 1272.19 433.36 1252.26 454.84
  A 0.94 0.92 50.1 0 1 1250.80 454.69
  L 1235.16 431.11
  Q 1234.11 429.53 1235.50 428.25
  C 1247.02 417.61 1258.09 407.46 1267.98 394.66
  Q 1271.64 389.92 1276.68 384.40
  Q 1286.18 374.02 1295.65 360.17
  C 1297.51 357.45 1298.14 356.02 1296.81 352.68
  Q 1286.50 326.82 1282.54 313.99
  Q 1277.79 298.61 1273.92 275.59
  C 1272.93 269.76 1271.10 262.64 1270.22 256.09
  Q 1269.98 254.30 1267.99 254.76
  Q 1265.43 255.37 1264.74 258.05
  C 1263.89 261.35 1261.61 278.35 1254.97 271.05
  Q 1249.89 265.45 1247.20 256.83
  Q 1246.09 253.28 1243.85 254.97
  C 1241.10 257.03 1241.55 271.75 1241.15 275.55
  A 1.64 1.63 -85.1 0 1 1239.41 277.02
  C 1237.03 276.87 1234.63 276.26 1232.43 276.26
  Q 1182.80 276.24 1133.16 276.25
  C 1128.92 276.25 1125.08 276.56 1120.65 275.73
  Q 1118.49 275.32 1118.42 273.13
  C 1118.32 270.17 1117.71 252.78 1118.96 251.13
  A 1.21 0.98 12.6 0 1 1119.78 250.72
  C 1123.58 250.41 1127.48 249.73 1131.18 249.74
  Q 1183.17 249.88 1238.00 249.42
  A 1.77 1.76 3.3 0 0 1239.74 247.88
  C 1240.50 241.97 1244.84 236.72 1247.06 232.59
  Q 1251.84 223.66 1255.56 214.24
  A 1.85 1.71 -9.7 0 1 1256.15 213.47
  C 1258.34 211.80 1259.87 210.72 1260.85 207.97
  C 1264.76 197.06 1268.29 185.08 1271.98 175.11
  Q 1276.03 164.16 1280.24 153.28
  C 1281.79 149.26 1282.53 144.82 1283.85 141.04
  C 1287.00 131.97 1289.46 119.77 1291.12 113.49
  Q 1293.49 104.59 1295.81 96.19
  A 1.87 1.86 8.9 0 1 1297.70 94.82
  C 1306.49 95.20 1315.26 94.61 1323.75 95.46
  A 0.50 0.49 -84.2 0 1 1324.19 96.01
  Q 1321.72 118.24 1320.30 123.00
  Q 1316.96 134.26 1313.93 145.59
  C 1312.67 150.30 1308.26 158.02 1308.82 162.57
  A 1.69 1.68 -7.9 0 0 1310.74 164.02
  Q 1314.14 163.51 1317.56 163.48
  Q 1345.57 163.22 1373.57 163.26
  C 1376.61 163.27 1380.01 162.80 1383.29 162.76
  Q 1386.13 162.73 1386.53 165.48
  Q 1388.43 178.45 1387.39 191.50
  A 0.69 0.63 -0.2 0 1 1386.75 192.09
  L 1369.50 193.05
  A 1.79 1.78 89.5 0 0 1367.82 194.77
  C 1367.12 213.81 1364.79 227.70 1361.24 251.87
  Q 1359.80 261.69 1357.55 271.50
  C 1354.35 285.42 1351.61 299.07 1346.97 313.12
  C 1343.23 324.46 1337.88 336.35 1333.14 347.84
  Q 1331.73 351.25 1329.06 353.83
  Q 1327.14 355.68 1328.41 358.03
  C 1333.84 368.01 1339.94 376.10 1348.14 385.57
  C 1360.69 400.09 1372.99 414.87 1386.40 428.61
  A 2.30 2.30 36.8 0 1 1386.79 431.29
  C 1386.00 432.79 1384.45 434.18 1383.66 435.76
  Q 1378.15 446.69 1372.03 457.22
  A 0.10 0.10 40.7 0 1 1371.87 457.23
  Z
  M 1331.54 256.11
  C 1335.42 236.19 1336.18 216.00 1339.83 195.76
  Q 1340.23 193.51 1338.01 193.38
  Q 1317.66 192.14 1297.32 193.11
  A 1.80 1.74 10.3 0 0 1295.80 194.12
  C 1292.77 200.70 1291.76 206.77 1293.01 214.30
  C 1294.31 222.12 1294.75 230.90 1295.88 237.87
  Q 1301.70 273.78 1311.25 308.91
  C 1312.08 311.96 1313.73 314.99 1314.70 318.26
  A 0.60 0.56 76.9 0 0 1315.34 318.69
  C 1319.00 318.12 1319.70 311.26 1320.39 308.27
  Q 1326.44 282.30 1331.54 256.11
  Z"
/>
<path fill="#242222" d="
  M 2543.00 187.81
  L 2543.00 207.81
  L 2542.31 211.86
  A 0.55 0.54 6.0 0 1 2541.75 212.31
  Q 2513.89 211.39 2486.00 211.84
  Q 2484.01 211.87 2484.01 213.86
  Q 2484.00 298.98 2484.00 383.92
  C 2484.00 395.38 2484.82 406.71 2482.23 417.99
  C 2478.77 433.03 2463.54 443.49 2449.26 447.05
  C 2436.25 450.30 2421.25 450.69 2407.64 449.00
  Q 2405.56 448.74 2405.57 446.69
  L 2405.73 423.75
  Q 2405.75 421.65 2407.83 421.55
  C 2417.12 421.12 2426.03 421.75 2435.06 420.21
  C 2447.46 418.09 2454.13 405.92 2454.10 393.94
  Q 2453.92 310.97 2454.10 228.00
  Q 2454.12 221.03 2454.46 214.04
  Q 2454.56 211.83 2452.35 211.83
  Q 2378.56 211.68 2304.62 211.76
  C 2299.44 211.77 2294.28 212.28 2288.73 211.05
  A 1.65 1.62 -85.0 0 1 2287.46 209.51
  Q 2286.94 197.24 2287.59 185.00
  A 1.16 1.10 74.6 0 1 2288.05 184.14
  Q 2290.20 182.59 2293.19 182.59
  C 2339.45 182.51 2385.82 181.97 2432.07 182.62
  Q 2442.23 182.77 2452.06 181.62
  Q 2454.22 181.37 2454.19 179.21
  C 2453.91 151.94 2453.84 124.74 2454.53 97.49
  A 1.58 1.55 89.2 0 1 2455.99 95.96
  Q 2468.47 95.21 2480.92 95.59
  Q 2483.12 95.65 2483.35 97.80
  C 2483.56 99.70 2483.99 101.86 2483.99 103.83
  Q 2484.00 139.76 2484.01 175.69
  C 2484.01 177.67 2484.35 179.73 2484.69 181.63
  A 1.06 1.05 -4.9 0 0 2485.73 182.50
  C 2503.87 182.50 2523.40 183.81 2541.33 181.43
  A 1.12 1.06 83.7 0 1 2542.53 182.44
  L 2543.00 187.81
  Z"
/>
<path fill="#242222" d="
  M 1143.13 193.25
  Q 1155.06 193.82 1168.33 193.38
  A 0.40 0.38 -0.8 0 0 1168.72 193.00
  L 1168.59 100.75
  A 1.58 1.53 88.9 0 1 1170.06 99.17
  Q 1182.28 98.64 1194.52 99.43
  Q 1197.03 99.59 1197.00 102.11
  Q 1196.60 141.03 1196.78 179.31
  C 1196.80 182.72 1196.34 187.90 1196.76 192.08
  A 1.57 1.52 -2.6 0 0 1198.32 193.46
  L 1221.50 193.49
  A 1.24 0.99 -90.0 0 0 1222.49 192.25
  L 1222.60 128.25
  A 0.70 0.64 -89.6 0 1 1223.25 127.55
  L 1250.69 127.78
  A 0.48 0.43 89.3 0 1 1251.12 128.25
  Q 1251.57 167.99 1250.74 207.77
  C 1250.66 211.73 1250.92 215.55 1249.22 219.05
  A 2.52 2.52 13.0 0 1 1246.96 220.46
  Q 1184.00 220.63 1123.25 220.67
  Q 1118.33 220.68 1113.49 219.77
  Q 1111.65 219.43 1111.78 217.68
  Q 1112.60 207.02 1112.60 196.31
  Q 1112.59 166.91 1112.55 137.50
  Q 1112.54 133.26 1113.00 129.70
  Q 1113.23 127.89 1115.05 127.79
  C 1118.13 127.62 1139.99 126.74 1140.90 128.53
  Q 1141.46 129.63 1141.46 130.81
  L 1141.36 191.25
  Q 1141.36 193.17 1143.13 193.25
  Z"
/>
<path fill="#242222" d="
  M 1057.60 306.05
  C 1054.87 305.80 1049.37 314.31 1047.70 316.64
  C 1043.03 323.14 1037.22 329.44 1032.36 336.19
  A 0.37 0.37 40.9 0 1 1031.79 336.23
  C 1026.87 331.24 1023.66 325.60 1019.49 319.88
  Q 1017.10 316.61 1015.33 312.96
  Q 1014.37 310.99 1015.78 309.31
  C 1026.36 296.84 1036.64 283.87 1045.35 270.01
  C 1058.37 249.29 1069.54 227.57 1080.40 205.65
  C 1082.58 201.25 1084.18 196.98 1085.62 192.50
  A 1.53 1.53 16.7 0 1 1087.48 191.50
  C 1095.33 193.67 1100.29 199.78 1108.09 202.89
  Q 1110.66 203.91 1110.23 206.77
  Q 1109.37 212.52 1105.92 217.06
  Q 1104.44 219.01 1103.89 220.90
  C 1100.65 232.01 1096.56 242.41 1091.10 252.59
  C 1088.77 256.93 1087.68 261.15 1087.71 266.41
  Q 1088.27 359.86 1087.70 453.46
  A 1.18 1.17 -4.3 0 1 1086.69 454.62
  Q 1075.32 456.27 1063.61 455.25
  C 1061.70 455.08 1058.74 456.10 1058.00 453.03
  C 1057.26 449.94 1057.73 445.15 1057.73 442.77
  C 1057.75 397.55 1057.22 352.25 1058.48 307.04
  A 0.98 0.97 3.5 0 0 1057.60 306.05
  Z"
/>
<rect fill="#242222" x="1549.12" y="203.74" width="219.52" height="26.50" rx="3.86"/>
<path fill="#242222" d="
  M 2374.24 359.75
  Q 2372.68 358.97 2371.49 356.06
  Q 2364.40 338.74 2355.71 321.79
  C 2346.93 304.70 2339.11 287.48 2330.22 270.59
  A 1.72 1.72 63.4 0 1 2331.00 268.24
  Q 2339.30 264.25 2347.23 259.52
  C 2349.78 258.00 2351.70 256.99 2353.55 254.52
  A 1.09 1.09 46.9 0 1 2355.33 254.58
  C 2364.66 268.81 2372.60 283.20 2379.09 299.44
  Q 2384.94 314.13 2386.72 317.23
  C 2392.55 327.42 2398.24 337.85 2402.77 348.68
  A 1.00 0.99 68.0 0 1 2402.22 349.99
  C 2397.49 351.86 2394.02 353.31 2389.50 356.56
  Q 2384.88 359.88 2379.49 361.87
  A 1.40 1.17 -38.7 0 1 2378.46 361.85
  L 2374.24 359.75
  Z"
/>
<rect fill="#242222" x="1549.14" y="262.28" width="219.30" height="28.48" rx="3.20"/>
<path fill="#242222" d="
  M 1200.01 332.52
  Q 1176.99 331.89 1154.00 332.55
  A 0.52 0.47 -89.9 0 0 1153.54 333.06
  Q 1153.39 338.28 1153.51 339.49
  C 1157.40 378.20 1143.72 425.05 1107.40 445.06
  A 1.70 1.70 -26.1 0 1 1105.02 444.25
  Q 1101.48 436.06 1096.80 427.47
  C 1094.59 423.40 1094.78 420.04 1097.65 416.65
  C 1102.11 411.38 1107.40 406.10 1110.79 400.58
  C 1115.74 392.51 1121.33 380.82 1122.34 371.00
  C 1124.29 351.99 1122.72 332.64 1122.49 313.56
  Q 1122.44 309.59 1122.74 307.04
  A 2.02 1.95 3.3 0 1 1124.75 305.31
  Q 1176.13 305.79 1227.50 305.20
  A 0.60 0.52 83.7 0 1 1228.04 305.70
  Q 1228.56 308.78 1228.54 315.06
  Q 1228.46 338.91 1228.69 362.75
  Q 1228.72 366.06 1230.25 368.85
  A 0.97 0.97 -36.8 0 0 1231.79 369.07
  Q 1235.09 365.71 1238.47 362.46
  C 1241.13 359.90 1246.41 355.94 1249.77 351.76
  Q 1251.88 349.14 1254.83 350.77
  C 1260.33 353.80 1261.44 361.25 1264.52 366.42
  C 1265.89 368.71 1266.60 370.92 1267.47 373.22
  A 2.04 2.02 60.6 0 1 1266.83 375.55
  C 1247.96 390.35 1228.38 405.74 1211.41 422.69
  A 0.72 0.71 48.1 0 1 1210.35 422.63
  Q 1204.67 415.58 1200.56 407.52
  C 1198.00 402.51 1192.38 398.66 1195.92 392.37
  C 1199.17 386.57 1201.60 383.64 1201.62 375.68
  Q 1201.66 355.75 1201.96 334.47
  Q 1201.99 332.57 1200.01 332.52
  Z"
/>
<path fill="#242222" d="
  M 1556.21 443.56
  A 1.18 1.17 -3.0 0 1 1555.04 442.51
  Q 1554.69 439.22 1554.69 435.94
  Q 1554.78 379.72 1554.77 323.49
  A 1.84 1.84 89.7 0 1 1556.61 321.65
  C 1623.87 321.58 1691.12 321.39 1758.38 321.85
  C 1762.07 321.88 1764.22 323.16 1764.25 327.00
  Q 1764.60 380.87 1764.48 434.74
  C 1764.47 436.50 1764.81 439.51 1764.46 441.77
  A 1.50 1.49 -85.9 0 1 1763.01 443.03
  C 1694.10 444.01 1625.13 443.49 1556.21 443.56
  Z
  M 1733.47 351.90
  A 2.88 2.88 0.0 0 0 1730.59 349.02
  L 1588.67 349.02
  A 2.88 2.88 0.0 0 0 1585.79 351.90
  L 1585.79 413.64
  A 2.88 2.88 0.0 0 0 1588.67 416.52
  L 1730.59 416.52
  A 2.88 2.88 0.0 0 0 1733.47 413.64
  L 1733.47 351.90
  Z"
/>
<path fill="#242222" d="
  M 1653.00 759.64
  A 1.55 1.54 -82.6 0 1 1651.84 758.13
  Q 1652.04 737.45 1652.10 717.10
  C 1652.11 712.78 1652.20 708.20 1652.43 703.89
  C 1652.56 701.33 1652.07 698.93 1652.23 696.37
  C 1652.46 692.81 1652.00 688.60 1652.00 685.62
  Q 1652.02 633.23 1652.00 580.84
  C 1652.00 577.35 1652.58 573.00 1652.37 569.47
  Q 1652.21 566.76 1655.27 566.65
  L 1671.51 566.05
  A 1.20 1.16 -0.3 0 1 1672.75 567.24
  C 1672.70 569.65 1673.23 572.19 1673.23 574.35
  C 1673.26 591.50 1673.67 608.81 1673.11 625.94
  Q 1672.96 630.61 1674.28 634.04
  Q 1675.18 636.39 1677.04 634.70
  C 1680.53 631.53 1683.39 628.30 1687.57 626.23
  C 1698.43 620.86 1708.83 617.79 1720.54 618.70
  C 1737.42 620.01 1752.22 628.15 1761.54 642.33
  C 1767.15 650.86 1769.82 662.78 1769.73 672.81
  Q 1769.36 715.28 1769.59 757.77
  Q 1769.60 759.88 1767.50 759.95
  L 1749.76 760.53
  A 2.16 2.03 83.2 0 1 1747.69 758.80
  C 1747.23 756.52 1746.78 753.77 1746.77 751.30
  Q 1746.74 726.13 1746.74 700.97
  C 1746.75 688.06 1748.51 672.47 1743.93 660.75
  C 1739.84 650.29 1730.86 642.10 1719.63 640.16
  C 1702.38 637.17 1680.06 650.29 1674.62 667.32
  Q 1673.24 671.67 1673.24 680.32
  C 1673.25 703.74 1672.75 727.31 1673.38 750.69
  Q 1673.50 755.25 1672.68 759.22
  Q 1672.32 760.99 1670.51 760.84
  C 1667.56 760.60 1665.10 760.10 1662.16 760.36
  Q 1657.42 760.77 1653.00 759.64
  Z"
/>
<path fill="#242222" d="
  M 1554.77 762.55
  C 1530.22 759.92 1504.45 749.36 1489.08 729.09
  C 1483.15 721.28 1477.94 713.34 1474.73 704.05
  C 1466.38 679.84 1466.50 654.77 1474.43 630.73
  C 1478.15 619.46 1484.30 610.02 1491.53 600.82
  C 1499.73 590.40 1511.82 582.12 1523.56 577.03
  Q 1570.87 556.51 1619.86 575.56
  A 0.96 0.94 3.9 0 1 1620.44 576.21
  C 1622.62 584.94 1615.27 589.33 1611.30 596.07
  Q 1609.83 598.56 1608.76 595.87
  C 1607.78 593.37 1605.41 592.88 1602.44 592.03
  C 1571.86 583.29 1540.10 587.59 1514.84 607.38
  C 1503.03 616.63 1495.64 630.60 1493.68 645.60
  Q 1490.51 669.95 1494.34 691.07
  C 1496.42 702.52 1503.16 713.46 1512.17 721.37
  C 1530.66 737.61 1553.89 743.22 1578.23 741.79
  C 1586.15 741.32 1594.75 739.22 1602.95 737.50
  Q 1606.74 736.70 1608.98 733.47
  Q 1610.13 731.82 1611.50 733.23
  Q 1618.38 740.28 1623.69 748.56
  A 1.14 1.12 55.7 0 1 1623.42 750.08
  Q 1617.01 754.83 1609.91 756.84
  C 1592.31 761.83 1572.92 764.49 1554.77 762.55
  Z"
/>
<path fill="#242222" d="
  M 2093.36 759.96
  A 1.07 1.07 -87.3 0 1 2092.47 758.98
  C 2092.36 757.47 2092.01 755.71 2092.01 754.24
  Q 2091.99 663.87 2092.00 573.49
  A 0.75 0.74 85.0 0 1 2092.61 572.75
  Q 2118.32 568.15 2144.75 568.78
  C 2159.84 569.13 2176.67 573.58 2189.06 582.61
  C 2211.26 598.78 2215.99 627.42 2204.29 651.32
  C 2197.06 666.10 2175.64 677.19 2160.62 681.48
  C 2146.45 685.52 2128.90 685.03 2113.79 684.35
  A 0.66 0.65 -88.8 0 0 2113.11 685.01
  C 2113.26 709.13 2113.46 733.29 2113.68 757.76
  Q 2113.70 760.28 2111.18 760.24
  C 2105.67 760.13 2099.25 760.96 2093.36 759.96
  Z
  M 2115.09 663.42
  C 2140.33 665.16 2178.71 667.76 2185.20 633.75
  Q 2186.86 625.09 2185.17 616.99
  C 2182.00 601.74 2165.17 592.03 2151.01 590.24
  C 2139.72 588.80 2125.16 588.46 2114.10 591.49
  A 0.71 0.70 -6.6 0 0 2113.59 592.12
  Q 2113.47 594.36 2113.48 599.31
  Q 2113.50 628.87 2113.52 658.44
  Q 2113.52 660.52 2114.41 662.92
  A 0.78 0.78 81.2 0 0 2115.09 663.42
  Z"
/>
<path fill="#242222" d="
  M 1246.27 715.13
  Q 1246.74 715.26 1247.25 715.12
  A 1.26 0.92 -79.1 0 0 1247.94 714.48
  C 1249.40 711.46 1251.43 708.91 1252.19 705.63
  C 1254.76 694.66 1258.97 683.45 1261.56 673.36
  Q 1271.56 634.27 1285.39 596.37
  C 1287.68 590.09 1289.13 584.10 1290.74 577.76
  C 1292.14 572.25 1295.73 569.40 1301.51 569.57
  Q 1309.19 569.79 1317.60 570.44
  A 0.96 0.96 -78.5 0 1 1318.44 571.71
  C 1308.08 601.64 1298.49 631.88 1287.96 661.74
  Q 1277.66 690.93 1268.57 720.52
  Q 1262.09 741.61 1260.54 750.50
  C 1258.33 763.17 1248.97 760.33 1239.62 760.65
  Q 1237.54 760.72 1236.52 758.90
  Q 1235.45 757.00 1234.46 753.89
  C 1230.63 741.84 1227.22 729.54 1223.38 717.69
  C 1215.44 693.22 1211.50 669.33 1204.44 645.36
  C 1201.78 636.33 1199.71 625.05 1197.10 617.98
  C 1195.16 612.71 1191.97 619.67 1191.57 621.27
  Q 1186.88 639.87 1180.29 657.85
  C 1170.38 684.88 1161.71 713.20 1154.79 740.51
  Q 1152.21 750.70 1147.14 759.93
  A 2.10 2.09 20.8 0 1 1144.84 760.96
  Q 1139.94 759.82 1134.51 760.59
  Q 1129.00 761.36 1126.75 756.52
  C 1123.90 750.39 1122.94 743.21 1121.21 737.81
  C 1113.30 713.16 1105.63 688.23 1099.72 663.02
  Q 1092.46 632.09 1086.39 613.58
  Q 1079.60 592.84 1075.48 577.51
  Q 1074.68 574.55 1074.62 570.40
  A 0.51 0.51 35.2 0 1 1075.12 569.88
  Q 1090.43 569.54 1093.29 569.90
  Q 1098.24 570.53 1099.40 576.05
  C 1101.44 585.83 1102.48 594.63 1106.00 604.96
  Q 1108.25 611.52 1109.68 616.65
  Q 1117.13 643.34 1125.19 669.86
  C 1129.82 685.08 1133.49 700.86 1137.82 716.31
  A 1.57 1.12 -87.4 0 0 1138.34 717.11
  Q 1139.56 717.95 1140.17 715.93
  Q 1147.22 692.60 1154.96 669.49
  C 1157.99 660.45 1161.18 643.17 1166.40 628.12
  C 1168.07 623.30 1169.37 618.08 1170.97 613.59
  C 1177.47 595.37 1181.06 585.15 1183.72 572.97
  Q 1184.15 571.03 1186.00 570.71
  Q 1195.56 569.04 1205.26 570.10
  Q 1206.93 570.28 1207.31 571.98
  Q 1210.12 584.73 1213.07 597.45
  C 1216.86 613.75 1222.20 630.06 1226.85 646.31
  C 1232.65 666.59 1239.46 686.36 1244.59 706.87
  C 1245.17 709.18 1245.01 711.97 1245.68 714.47
  A 0.98 0.78 86.4 0 0 1246.27 715.13
  Z"
/>
<path fill="#242222" d="
  M 1941.85 652.19
  Q 1941.92 647.59 1941.58 643.23
  A 1.52 1.52 86.0 0 0 1939.96 641.82
  Q 1932.60 642.32 1925.27 641.71
  C 1922.12 641.45 1920.20 640.80 1919.67 637.31
  Q 1918.70 630.95 1919.95 624.45
  Q 1920.45 621.88 1923.00 621.80
  L 1938.99 621.26
  Q 1941.55 621.17 1941.57 618.51
  L 1941.73 596.00
  A 1.44 1.40 -1.8 0 1 1943.07 594.61
  L 1962.70 593.20
  A 1.49 1.48 -6.5 0 1 1964.28 594.45
  C 1965.63 603.56 1964.93 611.91 1966.02 620.52
  A 1.33 1.21 86.1 0 0 1967.25 621.70
  L 2002.50 621.49
  A 1.37 1.24 81.9 0 1 2003.73 622.51
  Q 2006.13 631.72 2004.10 641.08
  A 1.17 1.08 -82.6 0 1 2003.00 642.00
  L 1968.55 641.34
  Q 1965.62 641.28 1965.60 644.12
  Q 1965.41 680.38 1965.49 716.75
  C 1965.51 725.76 1965.23 735.14 1974.02 740.22
  C 1978.55 742.84 1987.72 741.83 1993.11 741.67
  Q 1995.70 741.60 1996.66 743.88
  Q 1999.23 749.97 2004.27 754.22
  A 1.41 1.40 47.0 0 1 2004.20 756.43
  C 1995.11 763.12 1984.32 764.47 1972.97 762.79
  C 1948.79 759.20 1941.68 739.97 1941.55 718.33
  Q 1941.34 685.25 1941.85 652.19
  Z"
/>
<path fill="#242222" d="
  M 1321.55 669.48
  C 1325.01 650.60 1337.35 634.56 1354.46 625.99
  C 1380.05 613.18 1412.43 615.98 1431.21 639.24
  C 1440.56 650.82 1443.75 672.13 1443.24 686.50
  C 1442.90 696.14 1437.34 694.33 1430.73 694.23
  Q 1385.72 693.56 1373.75 694.04
  Q 1358.87 694.63 1343.73 693.75
  A 1.93 1.91 4.6 0 0 1341.71 695.46
  C 1340.21 709.76 1347.25 723.40 1358.13 731.86
  C 1375.77 745.57 1399.10 743.11 1419.27 737.92
  C 1421.80 737.27 1423.65 735.99 1426.02 734.86
  A 0.88 0.87 -39.5 0 1 1426.89 734.94
  Q 1433.30 739.47 1436.11 746.68
  C 1438.94 753.95 1430.31 756.34 1425.30 757.58
  C 1398.87 764.18 1374.35 767.00 1349.15 752.68
  C 1318.95 735.53 1315.96 699.96 1321.55 669.48
  Z
  M 1348.27 674.08
  C 1371.73 674.35 1395.35 673.59 1418.76 674.78
  A 1.33 1.32 5.1 0 0 1420.15 673.62
  C 1420.67 669.48 1420.59 665.99 1418.28 662.19
  C 1416.13 658.65 1414.30 654.50 1411.72 651.58
  C 1397.54 635.53 1373.26 635.05 1357.55 649.46
  Q 1347.81 658.39 1342.43 670.82
  A 1.66 1.43 -42.6 0 0 1342.32 671.77
  C 1343.06 675.38 1345.92 674.05 1348.27 674.08
  Z"
/>
<path fill="#242222" d="
  M 1882.85 750.89
  Q 1882.41 748.80 1880.56 750.06
  C 1865.11 760.54 1845.12 767.01 1826.42 761.48
  C 1809.58 756.51 1798.30 744.07 1795.53 726.74
  C 1794.61 720.97 1795.29 717.57 1796.85 711.51
  C 1800.22 698.45 1810.91 687.84 1822.49 681.47
  C 1838.48 672.67 1859.60 670.19 1877.84 671.07
  Q 1879.99 671.17 1880.21 669.03
  C 1883.85 633.84 1834.81 632.56 1816.07 650.02
  A 0.39 0.39 -35.6 0 1 1815.46 649.92
  Q 1811.81 643.35 1806.95 637.82
  C 1802.97 633.29 1808.92 629.65 1812.41 627.85
  Q 1832.72 617.38 1855.07 618.46
  C 1881.46 619.74 1897.46 635.38 1902.06 661.28
  Q 1903.02 666.68 1902.88 676.29
  C 1902.50 701.69 1902.38 727.53 1905.10 752.82
  Q 1905.47 756.34 1904.85 759.84
  A 1.11 1.11 -86.1 0 1 1903.81 760.75
  C 1900.41 760.93 1897.55 759.86 1894.16 760.19
  Q 1890.14 760.58 1885.89 760.14
  A 1.79 1.53 85.5 0 1 1884.49 758.74
  L 1882.85 750.89
  Z
  M 1827.19 702.81
  C 1812.78 716.75 1818.82 742.23 1841.51 742.46
  Q 1866.53 742.71 1878.91 721.90
  C 1880.22 719.71 1880.54 715.62 1880.51 713.06
  Q 1880.38 704.01 1880.85 693.73
  Q 1880.95 691.60 1878.83 691.41
  Q 1857.52 689.53 1836.78 697.24
  Q 1830.57 699.54 1827.19 702.81
  Z"
/>
<path fill="#242222" d="
  M 2297.56 669.33
  C 2298.88 657.25 2292.20 646.32 2281.03 641.62
  C 2265.34 635.01 2248.55 642.00 2233.77 648.30
  A 0.50 0.48 68.5 0 1 2233.13 648.01
  Q 2231.28 643.18 2228.02 639.33
  C 2223.80 634.33 2222.78 630.91 2229.48 627.91
  C 2246.10 620.48 2263.85 616.50 2281.25 619.50
  C 2308.05 624.13 2322.40 646.10 2322.58 672.18
  C 2322.76 698.91 2322.61 725.49 2323.69 752.20
  C 2323.90 757.43 2324.20 760.18 2318.23 760.23
  Q 2311.50 760.29 2305.08 760.23
  Q 2302.96 760.21 2302.65 758.06
  L 2301.49 750.00
  A 0.74 0.68 -13.6 0 0 2300.55 749.48
  C 2294.65 751.32 2289.06 755.42 2284.76 757.35
  C 2267.97 764.89 2251.40 765.64 2234.50 757.54
  Q 2218.35 749.79 2214.57 732.25
  C 2212.23 721.37 2213.79 705.04 2221.78 696.03
  C 2239.55 675.99 2269.82 669.75 2295.55 671.04
  A 1.93 1.93 4.6 0 0 2297.56 669.33
  Z
  M 2240.65 732.66
  C 2249.88 745.55 2268.35 744.18 2280.58 737.35
  C 2290.83 731.62 2298.10 721.11 2301.29 709.78
  C 2302.71 704.74 2302.38 698.80 2302.56 693.33
  A 1.60 1.60 -86.6 0 0 2301.10 691.68
  C 2289.25 690.68 2276.89 690.67 2265.44 694.04
  C 2256.12 696.79 2246.13 700.25 2240.80 708.65
  C 2236.09 716.09 2235.46 725.41 2240.65 732.66
  Z"
/>
<path fill="#242222" d="
  M 2341.58 800.23
  C 2364.20 793.36 2381.98 775.18 2390.23 752.98
  Q 2390.95 751.02 2390.22 749.07
  C 2388.61 744.77 2386.10 740.81 2384.66 736.76
  C 2377.62 716.98 2370.94 702.24 2360.80 678.86
  C 2353.73 662.56 2345.45 646.17 2338.38 629.47
  Q 2337.33 626.98 2336.45 623.11
  A 1.33 1.33 84.0 0 1 2337.76 621.49
  L 2359.00 621.69
  A 2.41 2.35 -12.5 0 1 2361.13 623.01
  Q 2372.78 646.70 2382.15 671.54
  C 2387.59 685.98 2393.80 699.31 2399.59 713.25
  Q 2401.34 717.45 2403.66 721.38
  Q 2405.36 724.27 2406.57 721.06
  Q 2418.05 690.65 2431.23 660.94
  C 2436.88 648.20 2440.83 635.59 2445.24 622.63
  A 1.36 1.34 10.2 0 1 2446.56 621.73
  Q 2457.79 622.00 2468.99 621.17
  A 1.09 1.09 2.5 0 1 2470.15 622.43
  C 2468.88 630.24 2464.25 638.80 2461.00 646.15
  C 2454.60 660.60 2446.79 674.08 2441.95 689.21
  Q 2436.59 705.95 2428.95 721.78
  C 2421.69 736.80 2415.47 752.43 2408.46 765.20
  Q 2397.70 784.81 2379.58 803.58
  C 2372.79 810.61 2362.11 815.56 2353.67 820.95
  A 0.95 0.92 57.3 0 1 2352.39 820.65
  L 2340.75 802.49
  A 1.51 1.51 65.2 0 1 2341.58 800.23
  Z"
/>
</svg>
