<svg version="1.1" id="Layer_1" xmlns="http://www.w3.org/2000/svg" xmlns:xlink="http://www.w3.org/1999/xlink" x="0px" y="0px"
	 width="100%" viewBox="0 0 200 200" enable-background="new 0 0 200 200" xml:space="preserve">
<path fill="#FEFEFE" opacity="1.000000" stroke="none" 
	d="
M1.000002,129.000000 
	C1.000000,86.372482 1.000000,43.744961 1.000000,1.058720 
	C67.566315,1.058720 134.132690,1.058720 201.000000,1.058720 
	C201.000000,50.353821 201.000000,99.708252 200.695099,149.546738 
	C200.188461,150.057648 199.986710,150.084503 199.582001,150.001709 
	C199.139374,149.674698 199.002884,149.405075 198.907593,148.838318 
	C198.590652,148.385193 198.335724,148.176971 198.044601,147.978271 
	C198.008408,147.987793 198.046356,147.923279 198.040741,147.563599 
	C197.282562,146.537354 196.529984,145.870773 195.816010,145.192596 
	C195.854614,145.181000 195.789536,145.188141 195.858383,144.743774 
	C195.900467,143.104111 195.873703,141.908844 195.925476,140.452454 
	C196.373306,139.806915 196.742615,139.422485 197.329193,138.926697 
	C197.816742,138.596786 197.961960,138.313995 197.992950,137.982117 
	C198.003723,137.997238 197.968597,137.986176 198.214233,137.861816 
	C198.601212,137.409866 198.742554,137.082275 198.873215,136.474243 
	C198.576614,135.750732 198.290695,135.307693 197.917633,134.708344 
	C197.550125,134.640076 197.269775,134.728104 196.680267,134.913849 
	C195.535065,135.653183 194.699051,136.294769 193.527390,136.940689 
	C191.922729,136.607834 190.653687,136.270660 189.147949,135.686127 
	C188.028397,135.349197 187.145538,135.259659 185.878845,135.093399 
	C183.573166,134.846207 181.233337,132.128830 179.983582,135.949707 
	C180.004700,135.974686 179.939926,135.983826 179.673233,136.244720 
	C178.399918,137.665710 177.393311,138.825790 176.386688,139.985870 
	C175.557175,138.886887 174.786453,137.735870 173.876419,136.708206 
	C173.316589,136.075974 172.543915,135.632217 171.915588,135.067474 
	C171.964386,135.031113 171.918427,135.143814 171.825378,134.830658 
	C171.063858,134.159363 170.395386,133.801208 169.726913,133.443069 
	C169.541962,134.032639 169.357010,134.622223 169.136841,135.156143 
	C169.101624,135.100494 169.233200,135.106323 168.873825,135.327423 
	C168.637329,140.695602 168.760208,145.842682 168.964203,151.199738 
	C169.045334,151.409729 169.071426,151.859192 169.075134,152.203400 
	C170.420670,154.567856 171.395340,154.339157 172.019394,152.033813 
	C172.002762,152.002808 172.064911,152.035812 172.433838,151.956390 
	C174.472855,149.382690 173.988708,142.957260 179.862656,148.358749 
	C179.963776,149.111191 180.011749,149.542145 179.782227,150.185638 
	C179.851486,151.469971 180.290955,153.492081 180.530914,153.468689 
	C183.381622,153.190613 186.202621,152.607666 189.132324,151.838882 
	C189.321533,151.405289 189.409851,151.237534 189.839020,150.984650 
	C191.552399,150.544846 192.924927,150.190155 194.488373,149.945435 
	C194.911835,150.260284 195.042770,150.516998 195.128113,151.091187 
	C195.467316,151.564163 195.750549,151.771454 196.022797,151.986908 
	C196.011826,151.995056 196.028427,151.967590 196.204254,152.266724 
	C197.920044,153.043884 199.460022,153.521942 201.000000,154.000000 
	C201.000000,169.644806 201.000000,185.289627 201.000000,200.967224 
	C134.448196,200.967224 67.896370,200.967224 1.000000,200.967224 
	C1.000000,178.980301 1.000000,156.958817 1.360984,134.609879 
	C2.905594,138.604416 3.921221,142.983170 5.353220,147.221222 
	C5.949339,148.985474 7.432966,150.449829 8.513029,152.050537 
	C9.551389,150.560654 10.943799,149.202484 11.556928,147.554413 
	C12.983377,143.720184 14.034270,139.746246 15.237350,135.828934 
	C17.375839,140.227386 18.517187,144.675247 19.843687,149.067215 
	C20.179678,150.179657 21.105768,151.113892 21.760700,152.130005 
	C22.886160,151.140503 24.574366,150.359146 25.031744,149.122543 
	C26.412611,145.389160 27.347046,141.487549 28.393274,137.634613 
	C29.085129,135.086716 29.669910,132.509750 30.302633,129.945786 
	C29.756411,129.791412 29.210188,129.637024 28.663963,129.482651 
	C25.282158,134.631439 24.945961,140.915390 22.811005,146.795822 
	C22.279751,146.825150 22.073109,146.708542 21.838692,146.174728 
	C20.736963,141.757996 19.787708,137.718353 18.520081,133.781189 
	C18.087900,132.438873 16.855242,131.354279 15.988336,130.151917 
	C15.026236,131.284470 13.670691,132.267914 13.174538,133.577057 
	C11.575996,137.794952 10.294193,142.132889 8.486526,147.658752 
	C7.052503,141.860901 6.221202,137.438873 4.784658,133.223099 
	C4.223637,131.576691 2.301951,130.393936 1.000002,129.000000 
M125.698898,49.591305 
	C125.342674,49.460510 124.986458,49.329720 124.129005,49.068375 
	C123.739975,48.743385 123.350952,48.418392 122.719002,47.536800 
	C122.166298,47.347946 121.613602,47.159092 120.498352,46.809200 
	C120.010048,46.495136 119.521744,46.181072 118.859955,45.127556 
	C117.710213,44.898453 116.560463,44.669353 114.904129,44.403175 
	C114.606361,44.246494 114.308594,44.089809 113.845322,43.182907 
	C109.268349,42.459557 104.711189,41.452751 100.106155,41.130844 
	C97.756264,40.966576 95.320457,42.031281 92.306923,42.775612 
	C91.869850,42.796070 91.432785,42.816528 90.456123,42.341305 
	C84.689034,42.008526 76.845406,45.956371 74.703285,50.634495 
	C73.126511,52.085770 71.549736,53.537041 69.484901,55.190029 
	C69.340927,55.498386 69.196953,55.806747 68.860680,56.679852 
	C68.265816,57.463219 67.670944,58.246582 66.544594,59.301064 
	C66.440620,59.668617 66.336639,60.036167 66.203026,60.745766 
	C66.203026,60.745766 65.974228,61.001743 65.476112,61.330078 
	C65.407890,61.707199 65.339661,62.084324 65.205650,63.105541 
	C64.989693,63.709957 64.773735,64.314377 63.848541,65.109756 
	C63.247204,68.146660 61.839130,71.297218 62.246910,74.191963 
	C62.767063,77.884422 64.754494,81.370171 66.539467,85.271133 
	C66.733971,85.768166 66.928482,86.265205 67.156258,87.313118 
	C67.423347,87.547729 67.690437,87.782333 68.402893,88.311844 
	C68.656586,88.773216 68.910271,89.234581 69.232040,90.280556 
	C69.542839,90.493675 69.853645,90.706787 70.737152,91.256142 
	C76.502266,95.077614 78.516357,100.145187 74.437370,107.858505 
	C77.223129,106.736221 78.554596,106.492325 79.516945,105.762032 
	C83.931313,102.412193 88.572250,101.833130 94.004089,103.093338 
	C101.829262,104.908783 109.571228,103.523109 116.976524,100.555923 
	C133.392334,93.978371 141.656021,77.120674 135.410812,62.835606 
	C134.768356,61.366085 133.202866,60.300091 131.379227,58.959015 
	C130.917923,58.959400 130.456604,58.959785 129.996796,58.292141 
	C129.988937,57.846867 129.981079,57.401588 129.909714,56.280071 
	C129.856644,56.059967 129.803589,55.839867 129.798431,55.045341 
	C129.537811,54.348408 129.277191,53.651474 128.869232,52.476528 
	C128.590591,52.313095 128.311935,52.149666 127.592255,51.773693 
	C127.327415,51.569828 127.127907,51.314842 126.793442,50.517643 
	C126.481171,50.382442 126.168900,50.247242 125.953453,50.037243 
	C125.953453,50.037243 125.903954,50.149136 125.698898,49.591305 
M131.786255,141.078888 
	C132.221115,144.084412 131.820908,147.591461 133.262741,149.992233 
	C136.371002,155.167709 141.525620,150.214294 145.417831,151.859833 
	C145.417831,146.585068 145.417831,141.645615 145.417831,136.562592 
	C140.353104,136.778473 134.737549,133.542221 130.916519,140.323227 
	C130.794617,130.208206 127.006508,127.601540 115.984161,130.445724 
	C115.984161,136.766403 115.924324,143.203415 116.061226,149.636261 
	C116.078011,150.424652 117.148293,151.190613 117.730362,151.966980 
	C118.174194,151.206650 118.931480,150.473770 119.000885,149.680664 
	C119.181984,147.611282 119.061859,145.515518 119.061859,144.760132 
	C123.586571,142.707062 127.030746,141.101151 130.526962,139.617889 
	C130.919769,139.451263 131.607025,139.978653 131.786255,141.078888 
M55.367584,129.691299 
	C48.629242,132.051041 46.063145,135.989838 46.803116,142.837219 
	C47.378174,148.158569 51.080463,151.903152 56.696938,152.163620 
	C59.326042,152.285553 62.919304,153.611145 64.458931,149.223801 
	C52.857944,149.338165 49.490154,147.224548 49.815861,140.383026 
	C50.133629,133.708221 54.345909,131.354553 63.785259,132.577438 
	C63.383068,129.227280 62.546429,128.888290 55.367584,129.691299 
M96.976746,144.269669 
	C96.976746,141.691422 96.976746,139.113174 96.976746,136.333008 
	C93.250191,136.333008 89.680031,135.335785 87.379150,136.617371 
	C85.140297,137.864395 83.575638,141.294342 82.909119,144.054199 
	C82.455154,145.933914 83.537643,149.718750 84.836723,150.196945 
	C88.567963,151.570419 92.758629,151.695816 96.976112,152.343552 
	C96.976112,149.421646 96.976112,147.293335 96.976746,144.269669 
M159.883362,136.561050 
	C158.386688,139.960815 156.890015,143.360596 155.297943,146.977097 
	C151.771683,143.952209 153.502823,137.766022 148.316177,135.912933 
	C146.742554,143.514221 158.554611,149.915314 148.525085,157.387939 
	C152.137299,159.690994 153.852158,157.015030 154.810181,155.088043 
	C157.536972,149.603317 159.793137,143.880615 162.075241,138.187714 
	C162.228271,137.805984 161.052887,136.891724 159.883362,136.561050 
M43.962627,141.112534 
	C42.630180,136.971069 39.755428,135.007324 35.562836,136.138489 
	C31.129833,137.334518 29.913385,141.066681 30.196669,145.168228 
	C30.479681,149.265839 32.607819,152.176544 37.029617,152.312210 
	C39.241875,152.380081 42.422516,153.510361 43.022785,149.259903 
	C39.196316,149.275421 34.794365,151.044449 33.101517,145.148407 
	C36.414970,145.148407 39.113422,145.422195 41.699280,145.002411 
	C42.625195,144.852097 43.279171,143.026657 43.962627,141.112534 
M80.124252,150.129288 
	C80.129112,148.301987 80.145439,146.474625 80.136871,144.647400 
	C80.099106,136.597260 77.912643,134.829224 70.007538,136.733902 
	C70.007538,135.351776 70.062454,134.032257 69.991585,132.719513 
	C69.925079,131.487564 69.725601,130.262787 69.560410,128.823792 
	C66.903358,130.483704 65.972130,138.977798 67.057419,149.383835 
	C67.160927,150.376312 68.106628,151.280960 68.661346,152.226379 
	C69.111290,152.067230 69.561226,151.908096 70.011162,151.748947 
	C70.011162,148.632874 69.637527,145.449875 70.178162,142.430618 
	C70.426361,141.044510 72.314392,139.385223 73.760666,139.008392 
	C74.538788,138.805649 76.630615,140.897598 76.935150,142.227676 
	C77.477898,144.598129 77.063599,147.177765 77.144981,149.666794 
	C77.215958,151.837265 77.974358,152.833694 80.124252,150.129288 
M99.865517,140.477386 
	C99.895599,143.127365 99.479683,145.891861 100.119797,148.385223 
	C100.516029,149.928665 102.308044,151.577866 103.866295,152.207535 
	C105.047050,152.684677 106.848335,151.626236 108.373482,151.251129 
	C102.319443,148.932724 102.226944,148.721771 103.333572,139.463440 
	C104.912575,139.101059 106.512360,138.733917 108.112144,138.366791 
	C106.491882,136.508606 104.614563,136.047760 103.050674,135.080276 
	C102.091263,134.486755 101.611961,133.117157 100.917068,132.096054 
	C100.565613,133.429245 100.100563,134.745453 99.897774,136.100891 
	C99.728035,137.235382 99.864807,138.415726 99.865517,140.477386 
z"/>
<path fill="#202020" opacity="1.000000" stroke="none" 
	d="
M1.000002,129.416656 
	C2.301951,130.393936 4.223637,131.576691 4.784658,133.223099 
	C6.221202,137.438873 7.052503,141.860901 8.486526,147.658752 
	C10.294193,142.132889 11.575996,137.794952 13.174538,133.577057 
	C13.670691,132.267914 15.026236,131.284470 15.988336,130.151917 
	C16.855242,131.354279 18.087900,132.438873 18.520081,133.781189 
	C19.787708,137.718353 20.736963,141.757996 21.879215,146.379517 
	C22.121832,147.200058 22.296148,147.398590 22.470463,147.597137 
	C22.692181,147.281387 22.913900,146.965652 23.135618,146.649902 
	C24.945961,140.915390 25.282158,134.631439 28.663963,129.482651 
	C29.210188,129.637024 29.756411,129.791412 30.302633,129.945786 
	C29.669910,132.509750 29.085129,135.086716 28.393274,137.634613 
	C27.347046,141.487549 26.412611,145.389160 25.031744,149.122543 
	C24.574366,150.359146 22.886160,151.140503 21.760700,152.130005 
	C21.105768,151.113892 20.179678,150.179657 19.843687,149.067215 
	C18.517187,144.675247 17.375839,140.227386 15.237350,135.828934 
	C14.034270,139.746246 12.983377,143.720184 11.556928,147.554413 
	C10.943799,149.202484 9.551389,150.560654 8.513029,152.050537 
	C7.432966,150.449829 5.949339,148.985474 5.353220,147.221222 
	C3.921221,142.983170 2.905594,138.604416 1.360984,134.141220 
	C1.000000,132.611115 1.000000,131.222214 1.000002,129.416656 
z"/>
<path fill="#D9FDEC" opacity="1.000000" stroke="none" 
	d="
M199.784958,150.111343 
	C199.986710,150.084503 200.188461,150.057648 200.695099,150.015396 
	C201.000000,151.066666 201.000000,152.133347 201.000000,153.600006 
	C199.460022,153.521942 197.920044,153.043884 196.586792,152.297729 
	C197.790665,151.390198 198.787811,150.750778 199.784958,150.111343 
z"/>
<path fill="#0FC064" opacity="1.000000" stroke="none" 
	d="
M64.557770,64.918793 
	C64.773735,64.314377 64.989693,63.709957 65.477219,62.612419 
	C65.823936,61.746777 65.899086,61.374260 65.974228,61.001743 
	C65.974228,61.001743 66.203026,60.745766 66.466866,60.425129 
	C66.845825,59.746311 66.960953,59.388130 67.076080,59.029949 
	C67.670944,58.246582 68.265816,57.463219 69.207870,56.305393 
	C69.694359,55.616730 69.833664,55.302525 69.972969,54.988312 
	C71.549736,53.537041 73.126511,52.085770 75.224602,50.299797 
	C80.829185,47.589058 85.912445,45.213020 90.995712,42.836983 
	C91.432785,42.816528 91.869850,42.796070 93.021851,42.728149 
	C100.494789,43.098167 107.252808,43.515648 114.010826,43.933125 
	C114.308594,44.089809 114.606361,44.246494 115.406311,44.645767 
	C116.950134,45.214577 117.991791,45.540794 119.033440,45.867012 
	C119.521744,46.181072 120.010048,46.495136 120.904190,47.162331 
	C121.860657,47.708103 122.411293,47.900753 122.961929,48.093399 
	C123.350952,48.418392 123.739975,48.743385 124.503525,49.392387 
	C125.220016,49.860645 125.561989,50.004890 125.903954,50.149136 
	C125.903954,50.149136 125.953453,50.037243 125.995193,50.327236 
	C126.355873,50.747726 126.674805,50.878227 126.993744,51.008728 
	C127.127907,51.314842 127.327415,51.569828 127.861282,52.133545 
	C128.425735,52.647110 128.721161,52.800823 129.016586,52.954540 
	C129.277191,53.651474 129.537811,54.348408 129.459015,55.378181 
	C128.609619,56.065372 128.099655,56.419724 127.422462,56.777519 
	C127.255234,56.780968 127.000221,56.997463 126.692825,56.985207 
	C126.063911,57.207626 125.742393,57.442307 125.289810,57.671059 
	C125.158737,57.665127 124.994827,57.870060 124.676468,57.873009 
	C123.846222,58.218872 123.334328,58.561790 122.604767,58.915321 
	C122.387100,58.925938 122.002396,59.130802 121.717941,59.100834 
	C120.976265,59.391674 120.519035,59.712482 120.042175,60.013138 
	C120.022545,59.992989 120.013405,60.048504 119.717163,60.036079 
	C119.126373,60.271729 118.831841,60.519806 118.250252,60.802444 
	C117.291756,61.185135 116.620308,61.533260 115.602142,61.880669 
	C114.058136,62.524189 112.860863,63.168427 111.475792,63.821320 
	C111.287994,63.829979 110.998352,64.069725 110.708633,64.061813 
	C110.124413,64.289070 109.829918,64.524231 109.185555,64.801025 
	C104.480766,66.779060 99.968033,68.431580 95.818932,70.738190 
	C92.250961,72.721741 89.467514,72.059563 86.526123,69.783264 
	C84.979141,68.586082 83.234795,67.643929 81.579567,66.586617 
	C81.216133,66.912476 80.852692,67.238335 80.489258,67.564194 
	C81.341194,69.373886 82.193130,71.183586 83.034706,73.279320 
	C83.264374,73.846375 83.504402,74.127396 83.810806,74.726830 
	C84.542511,76.383347 85.207832,77.721436 85.872559,79.400406 
	C86.595367,80.787743 87.318771,81.834206 88.394264,83.052490 
	C91.158691,82.105354 93.571030,80.986404 96.247055,79.869072 
	C96.746101,79.621765 96.981453,79.372826 97.551277,79.047318 
	C101.257088,76.970284 104.628433,74.969810 108.280792,72.955002 
	C108.817024,72.682564 109.072235,72.424477 109.520050,72.125763 
	C109.712654,72.085121 109.992584,71.808296 110.248573,71.809944 
	C110.733818,71.574471 110.963066,71.337341 111.463562,71.056091 
	C112.165016,70.691612 112.595222,70.371262 113.309868,70.015427 
	C113.853333,69.713737 114.112366,69.447525 114.551109,69.156921 
	C114.730827,69.132530 114.992661,68.881493 115.251060,68.886414 
	C115.735001,68.650063 115.960548,68.408783 116.135498,68.130798 
	C116.084908,68.094101 116.122719,68.213249 116.428955,68.196594 
	C117.199524,67.810684 117.663849,67.441437 118.406982,67.030388 
	C119.123108,66.655342 119.560432,66.322098 120.277763,65.971451 
	C120.805901,65.687950 121.054031,65.421837 121.493271,65.136406 
	C121.684380,65.117081 121.993309,64.888725 122.254242,64.895081 
	C122.736420,64.652390 122.957664,64.403351 123.126450,64.120392 
	C123.073990,64.086487 123.120567,64.202408 123.419342,64.186447 
	C124.098427,63.771439 124.478737,63.372383 125.068527,62.725807 
	C125.855179,62.239006 126.432358,61.999722 127.241837,61.700150 
	C127.808029,61.577953 128.072601,61.408054 128.475723,61.129547 
	C128.683578,61.128933 128.990112,60.848129 129.242798,60.839516 
	C129.695770,60.575832 129.896057,60.320759 130.061035,60.031967 
	C130.025742,59.998257 130.064407,60.087891 130.368896,60.086861 
	C131.137497,59.739502 131.601593,59.393177 132.065689,59.046852 
	C133.202866,60.300091 134.768356,61.366085 135.410812,62.835606 
	C141.656021,77.120674 133.392334,93.978371 116.976524,100.555923 
	C109.571228,103.523109 101.829262,104.908783 94.004089,103.093338 
	C88.572250,101.833130 83.931313,102.412193 79.516945,105.762032 
	C78.554596,106.492325 77.223129,106.736221 74.437370,107.858505 
	C78.516357,100.145187 76.502266,95.077614 70.387527,90.812561 
	C69.746582,90.144638 69.455269,89.920296 69.163956,89.695953 
	C68.910271,89.234581 68.656586,88.773216 68.162094,87.889954 
	C67.655182,87.232788 67.389084,86.997513 67.122986,86.762238 
	C66.928482,86.265205 66.733971,85.768166 66.300735,84.712540 
	C63.279015,77.920647 63.222073,71.474174 64.557770,64.918793 
z"/>
<path fill="#F4FEF9" opacity="1.000000" stroke="none" 
	d="
M121.993301,64.888718 
	C121.993309,64.888725 121.684380,65.117081 121.211823,65.152695 
	C120.492096,65.455154 120.244926,65.722000 119.997757,65.988846 
	C119.560432,66.322098 119.123108,66.655342 118.081940,67.009041 
	C117.026306,67.424080 116.574509,67.818665 116.122719,68.213249 
	C116.122719,68.213249 116.084908,68.094101 115.879723,68.131508 
	C115.447243,68.406441 115.219948,68.643967 114.992661,68.881493 
	C114.992661,68.881493 114.730827,69.132530 114.256668,69.168900 
	C113.530159,69.487144 113.277794,69.769035 113.025436,70.050919 
	C112.595222,70.371262 112.165016,70.691612 111.211197,71.066330 
	C110.455917,71.349907 110.224251,71.579102 109.992584,71.808296 
	C109.992584,71.808296 109.712654,72.085121 109.238480,72.137077 
	C108.509460,72.449135 108.254616,72.709236 107.999779,72.969345 
	C104.628433,74.969810 101.257088,76.970284 97.290558,79.059555 
	C96.458031,79.388054 96.220695,79.627747 95.983368,79.867447 
	C93.571030,80.986404 91.158691,82.105354 88.387154,82.709297 
	C87.309685,81.149368 86.591423,80.104454 85.873154,79.059532 
	C85.207832,77.721436 84.542511,76.383347 83.829193,74.438606 
	C83.535820,73.552406 83.290443,73.272842 83.045067,72.993279 
	C82.193130,71.183586 81.341194,69.373886 80.489258,67.564194 
	C80.852692,67.238335 81.216133,66.912476 81.579567,66.586617 
	C83.234795,67.643929 84.979141,68.586082 86.526123,69.783264 
	C89.467514,72.059563 92.250961,72.721741 95.818932,70.738190 
	C99.968033,68.431580 104.480766,66.779060 109.481049,64.821709 
	C110.417053,64.557076 110.707703,64.313400 110.998352,64.069725 
	C110.998352,64.069725 111.287994,63.829979 111.851379,63.889229 
	C113.592796,63.259453 114.770836,62.570427 115.948868,61.881393 
	C116.620308,61.533260 117.291756,61.185135 118.549049,60.816559 
	C119.427734,60.546909 119.720566,60.297707 120.013405,60.048504 
	C120.013405,60.048504 120.022545,59.992989 120.329285,60.022652 
	C121.091476,59.745144 121.546936,59.437973 122.002396,59.130802 
	C122.002396,59.130802 122.387100,58.925938 122.935944,58.945107 
	C123.988136,58.599537 124.491486,58.234802 124.994827,57.870064 
	C124.994827,57.870060 125.158737,57.665127 125.604309,57.708462 
	C126.366661,57.500355 126.683441,57.248913 127.000229,56.997467 
	C127.000221,56.997463 127.255234,56.780968 127.816582,56.849220 
	C128.909698,56.930424 129.441452,56.943371 129.973221,56.956314 
	C129.981079,57.401588 129.988937,57.846867 129.999603,58.909248 
	C130.023087,59.713535 130.043747,59.900715 130.064407,60.087891 
	C130.064407,60.087891 130.025742,59.998257 129.818054,60.062866 
	C129.289352,60.269367 129.082596,60.509586 128.990112,60.848129 
	C128.990112,60.848129 128.683578,61.128933 128.214935,61.109417 
	C127.500710,61.313416 127.255127,61.536926 127.009537,61.760441 
	C126.432358,61.999722 125.855179,62.239006 124.773079,62.749451 
	C123.885628,63.414543 123.503098,63.808472 123.120560,64.202408 
	C123.120567,64.202408 123.073990,64.086487 122.871384,64.127480 
	C122.443626,64.408554 122.218468,64.648636 121.993301,64.888718 
z"/>
<path fill="#232323" opacity="1.000000" stroke="none" 
	d="
M55.757492,129.587036 
	C62.546429,128.888290 63.383068,129.227280 63.785259,132.577438 
	C54.345909,131.354553 50.133629,133.708221 49.815861,140.383026 
	C49.490154,147.224548 52.857944,149.338165 64.458931,149.223801 
	C62.919304,153.611145 59.326042,152.285553 56.696938,152.163620 
	C51.080463,151.903152 47.378174,148.158569 46.803116,142.837219 
	C46.063145,135.989838 48.629242,132.051041 55.757492,129.587036 
z"/>
<path fill="#222222" opacity="1.000000" stroke="none" 
	d="
M132.157730,140.184204 
	C131.607025,139.978653 130.919769,139.451263 130.526962,139.617889 
	C127.030746,141.101151 123.586571,142.707062 119.061859,144.760132 
	C119.061859,145.515518 119.181984,147.611282 119.000885,149.680664 
	C118.931480,150.473770 118.174194,151.206650 117.730362,151.966980 
	C117.148293,151.190613 116.078011,150.424652 116.061226,149.636261 
	C115.924324,143.203415 115.984161,136.766403 115.984161,130.445724 
	C127.006508,127.601540 130.794617,130.208206 131.475220,140.346069 
	C132.033905,140.368927 132.157730,140.184204 132.157730,140.184204 
M124.026604,140.152420 
	C126.929886,139.636475 128.872360,137.931763 127.620171,135.050323 
	C125.950111,131.207321 122.460594,132.116913 119.212090,132.656052 
	C119.212090,135.221832 119.212090,137.472610 119.212090,140.021103 
	C120.646751,140.114639 121.904068,140.196625 124.026604,140.152420 
z"/>
<path fill="#252525" opacity="1.000000" stroke="none" 
	d="
M96.976425,144.717346 
	C96.976112,147.293335 96.976112,149.421646 96.976112,152.343552 
	C92.758629,151.695816 88.567963,151.570419 84.836723,150.196945 
	C83.537643,149.718750 82.455154,145.933914 82.909119,144.054199 
	C83.575638,141.294342 85.140297,137.864395 87.379150,136.617371 
	C89.680031,135.335785 93.250191,136.333008 96.976746,136.333008 
	C96.976746,139.113174 96.976746,141.691422 96.976425,144.717346 
M86.868408,148.282120 
	C88.884712,148.297821 92.435295,148.846893 92.647827,148.235535 
	C93.500771,145.781982 93.614273,142.934952 93.311714,140.312927 
	C93.236885,139.664505 89.727730,138.491821 89.249977,138.980453 
	C87.725037,140.540115 86.726929,142.702286 85.859871,144.771896 
	C85.542900,145.528503 86.163544,146.677902 86.868408,148.282120 
z"/>
<path fill="#212121" opacity="1.000000" stroke="none" 
	d="
M131.971985,140.631546 
	C132.157730,140.184204 132.033905,140.368927 132.034760,140.407837 
	C134.737549,133.542221 140.353104,136.778473 145.417831,136.562592 
	C145.417831,141.645615 145.417831,146.585068 145.417831,151.859833 
	C141.525620,150.214294 136.371002,155.167709 133.262741,149.992233 
	C131.820908,147.591461 132.221115,144.084412 131.971985,140.631546 
M135.646942,139.939301 
	C135.324219,142.261719 134.574310,144.638855 134.861740,146.883133 
	C135.002258,147.980453 136.981339,149.405396 138.298584,149.615829 
	C139.409027,149.793228 141.657761,148.612289 141.841232,147.713791 
	C142.336426,145.288757 142.509995,142.516113 141.726395,140.257828 
	C141.434128,139.415512 138.134476,139.616745 135.646942,139.939301 
z"/>
<path fill="#262626" opacity="1.000000" stroke="none" 
	d="
M160.189362,136.393097 
	C161.052887,136.891724 162.228271,137.805984 162.075241,138.187714 
	C159.793137,143.880615 157.536972,149.603317 154.810181,155.088043 
	C153.852158,157.015030 152.137299,159.690994 148.525085,157.387939 
	C158.554611,149.915314 146.742554,143.514221 148.316177,135.912933 
	C153.502823,137.766022 151.771683,143.952209 155.297943,146.977097 
	C156.890015,143.360596 158.386688,139.960815 160.189362,136.393097 
z"/>
<path fill="#1E1E1E" opacity="1.000000" stroke="none" 
	d="
M44.009949,141.539154 
	C43.279171,143.026657 42.625195,144.852097 41.699280,145.002411 
	C39.113422,145.422195 36.414970,145.148407 33.101517,145.148407 
	C34.794365,151.044449 39.196316,149.275421 43.022785,149.259903 
	C42.422516,153.510361 39.241875,152.380081 37.029617,152.312210 
	C32.607819,152.176544 30.479681,149.265839 30.196669,145.168228 
	C29.913385,141.066681 31.129833,137.334518 35.562836,136.138489 
	C39.755428,135.007324 42.630180,136.971069 44.009949,141.539154 
M35.925404,142.811203 
	C37.604031,142.811203 39.282658,142.811203 40.961288,142.811203 
	C41.150505,142.219650 41.339725,141.628113 41.528942,141.036560 
	C40.091438,140.226410 38.705109,138.927368 37.199295,138.769714 
	C36.108353,138.655518 34.858994,140.054581 33.680279,140.778839 
	C34.157616,141.454346 34.634953,142.129837 35.925404,142.811203 
z"/>
<path fill="#202020" opacity="1.000000" stroke="none" 
	d="
M80.064407,150.581421 
	C77.974358,152.833694 77.215958,151.837265 77.144981,149.666794 
	C77.063599,147.177765 77.477898,144.598129 76.935150,142.227676 
	C76.630615,140.897598 74.538788,138.805649 73.760666,139.008392 
	C72.314392,139.385223 70.426361,141.044510 70.178162,142.430618 
	C69.637527,145.449875 70.011162,148.632874 70.011162,151.748947 
	C69.561226,151.908096 69.111290,152.067230 68.661346,152.226379 
	C68.106628,151.280960 67.160927,150.376312 67.057419,149.383835 
	C65.972130,138.977798 66.903358,130.483704 69.560410,128.823792 
	C69.725601,130.262787 69.925079,131.487564 69.991585,132.719513 
	C70.062454,134.032257 70.007538,135.351776 70.007538,136.733902 
	C77.912643,134.829224 80.099106,136.597260 80.136871,144.647400 
	C80.145439,146.474625 80.129112,148.301987 80.064407,150.581421 
z"/>
<path fill="#23B76C" opacity="1.000000" stroke="none" 
	d="
M169.071426,151.859192 
	C169.071426,151.859192 169.045334,151.409729 169.046387,150.740326 
	C169.109344,145.082733 169.171265,140.094528 169.233200,135.106323 
	C169.233200,135.106323 169.101624,135.100494 169.479935,135.164810 
	C170.544968,135.200684 171.231705,135.172256 171.918427,135.143814 
	C171.918427,135.143814 171.964386,135.031113 171.965942,135.464584 
	C172.064438,138.115128 172.161392,140.332199 172.255341,142.480927 
	C179.727829,143.611252 180.061874,143.314560 179.939926,135.983826 
	C179.939926,135.983826 180.004700,135.974686 180.423492,135.923935 
	C181.325165,135.973236 182.225235,136.054367 182.230759,136.176056 
	C182.448929,140.990295 182.585892,145.808228 182.733383,150.625671 
	C181.842163,150.408157 180.950958,150.190628 180.059738,149.973083 
	C180.011749,149.542145 179.963776,149.111191 179.939240,147.940125 
	C178.286057,142.533813 175.079163,145.900192 172.064911,145.217560 
	C172.064911,147.861511 172.064911,149.948669 172.064911,152.035812 
	C172.064911,152.035812 172.002762,152.002808 171.647217,152.030182 
	C170.551590,151.991440 169.811508,151.925308 169.071426,151.859192 
z"/>
<path fill="#282828" opacity="1.000000" stroke="none" 
	d="
M99.865685,140.026581 
	C99.864807,138.415726 99.728035,137.235382 99.897774,136.100891 
	C100.100563,134.745453 100.565613,133.429245 100.917068,132.096054 
	C101.611961,133.117157 102.091263,134.486755 103.050674,135.080276 
	C104.614563,136.047760 106.491882,136.508606 108.112144,138.366791 
	C106.512360,138.733917 104.912575,139.101059 103.333572,139.463440 
	C102.226944,148.721771 102.319443,148.932724 108.373482,151.251129 
	C106.848335,151.626236 105.047050,152.684677 103.866295,152.207535 
	C102.308044,151.577866 100.516029,149.928665 100.119797,148.385223 
	C99.479683,145.891861 99.895599,143.127365 99.865685,140.026581 
z"/>
<path fill="#3EBD80" opacity="1.000000" stroke="none" 
	d="
M199.582001,150.001709 
	C198.787811,150.750778 197.790665,151.390198 196.410980,151.998611 
	C196.028427,151.967590 196.011826,151.995056 195.952271,151.730896 
	C195.619171,151.252991 195.345657,151.039261 195.072128,150.825516 
	C195.042770,150.516998 194.911835,150.260284 194.369659,149.619659 
	C190.179626,145.577988 189.031921,141.847946 193.512146,137.827911 
	C193.724655,137.637222 193.750336,137.238312 193.863037,136.936356 
	C194.699051,136.294769 195.535065,135.653183 196.931152,134.988464 
	C197.662384,134.931778 197.833588,134.898209 198.004776,134.864655 
	C198.290695,135.307693 198.576614,135.750732 198.627197,136.598679 
	C198.250778,137.331116 198.109695,137.658646 197.968597,137.986176 
	C197.968597,137.986176 198.003723,137.997238 197.763214,138.080109 
	C197.234802,138.383789 197.097870,138.675461 197.111923,139.038040 
	C196.742615,139.422485 196.373306,139.806915 195.650085,140.629166 
	C195.460632,142.440689 195.625076,143.814423 195.789536,145.188141 
	C195.789536,145.188141 195.854614,145.181000 195.885101,145.491211 
	C196.625839,146.508713 197.336090,147.215988 198.046356,147.923279 
	C198.046356,147.923279 198.008408,147.987793 198.092346,148.230316 
	C198.440735,148.676300 198.705154,148.879761 198.969589,149.083221 
	C199.002884,149.405075 199.139374,149.674698 199.582001,150.001709 
z"/>
<path fill="#D9FDEC" opacity="1.000000" stroke="none" 
	d="
M179.782227,150.185638 
	C180.950958,150.190628 181.842163,150.408157 182.733383,150.625671 
	C182.585892,145.808228 182.448929,140.990295 182.230759,136.176056 
	C182.225235,136.054367 181.325165,135.973236 180.402390,135.898956 
	C181.233337,132.128830 183.573166,134.846207 185.691437,135.421860 
	C185.897629,139.967575 186.194214,144.134430 185.817642,148.239548 
	C185.560898,151.038467 186.289856,152.195129 189.031403,152.104736 
	C186.202621,152.607666 183.381622,153.190613 180.530914,153.468689 
	C180.290955,153.492081 179.851486,151.469971 179.782227,150.185638 
z"/>
<path fill="#36B774" opacity="1.000000" stroke="none" 
	d="
M189.132324,151.838867 
	C186.289856,152.195129 185.560898,151.038467 185.817642,148.239548 
	C186.194214,144.134430 185.897629,139.967575 186.075287,135.498566 
	C187.145538,135.259659 188.028397,135.349197 189.073853,136.152054 
	C189.323700,141.600174 189.410919,146.334976 189.498138,151.069794 
	C189.409851,151.237534 189.321533,151.405289 189.132324,151.838867 
z"/>
<path fill="#D9FDEC" opacity="1.000000" stroke="none" 
	d="
M189.839005,150.984650 
	C189.410919,146.334976 189.323700,141.600174 189.310577,136.399414 
	C190.653687,136.270660 191.922729,136.607834 193.527405,136.940689 
	C193.750336,137.238312 193.724655,137.637222 193.512146,137.827911 
	C189.031921,141.847946 190.179626,145.577988 194.178741,149.509674 
	C192.924927,150.190155 191.552399,150.544846 189.839005,150.984650 
z"/>
<path fill="#D9FDEC" opacity="1.000000" stroke="none" 
	d="
M179.673233,136.244720 
	C180.061874,143.314560 179.727829,143.611252 172.255341,142.480927 
	C172.161392,140.332199 172.064438,138.115128 171.917145,135.500946 
	C172.543915,135.632217 173.316589,136.075974 173.876419,136.708206 
	C174.786453,137.735870 175.557175,138.886887 176.386688,139.985870 
	C177.393311,138.825790 178.399918,137.665710 179.673233,136.244720 
z"/>
<path fill="#CEF9E4" opacity="1.000000" stroke="none" 
	d="
M64.203156,65.014275 
	C63.222073,71.474174 63.279015,77.920647 66.085739,84.549484 
	C64.754494,81.370171 62.767063,77.884422 62.246910,74.191963 
	C61.839130,71.297218 63.247204,68.146660 64.203156,65.014275 
z"/>
<path fill="#CEF9E4" opacity="1.000000" stroke="none" 
	d="
M90.725922,42.589142 
	C85.912445,45.213020 80.829185,47.589058 75.399368,50.029591 
	C76.845406,45.956371 84.689034,42.008526 90.725922,42.589142 
z"/>
<path fill="#CEF9E4" opacity="1.000000" stroke="none" 
	d="
M113.928070,43.558014 
	C107.252808,43.515648 100.494789,43.098167 93.330124,42.610588 
	C95.320457,42.031281 97.756264,40.966576 100.106155,41.130844 
	C104.711189,41.452751 109.268349,42.459557 113.928070,43.558014 
z"/>
<path fill="#D9FDEC" opacity="1.000000" stroke="none" 
	d="
M172.433838,151.956390 
	C172.064911,149.948669 172.064911,147.861511 172.064911,145.217560 
	C175.079163,145.900192 178.286057,142.533813 179.886108,147.618622 
	C173.988708,142.957260 174.472855,149.382690 172.433838,151.956390 
z"/>
<path fill="#D9FDEC" opacity="1.000000" stroke="none" 
	d="
M168.873825,135.327423 
	C169.171265,140.094528 169.109344,145.082733 168.965256,150.530334 
	C168.760208,145.842682 168.637329,140.695602 168.873825,135.327423 
z"/>
<path fill="#D9FDEC" opacity="1.000000" stroke="none" 
	d="
M195.858383,144.743774 
	C195.625076,143.814423 195.460632,142.440689 195.571564,140.890259 
	C195.873703,141.908844 195.900467,143.104111 195.858383,144.743774 
z"/>
<path fill="#D9FDEC" opacity="1.000000" stroke="none" 
	d="
M169.075134,152.203400 
	C169.811508,151.925308 170.551590,151.991440 171.663849,152.061188 
	C171.395340,154.339157 170.420670,154.567856 169.075134,152.203400 
z"/>
<path fill="#CEF9E4" opacity="1.000000" stroke="none" 
	d="
M118.946701,45.497284 
	C117.991791,45.540794 116.950134,45.214577 115.659607,44.664303 
	C116.560463,44.669353 117.710213,44.898453 118.946701,45.497284 
z"/>
<path fill="#D9FDEC" opacity="1.000000" stroke="none" 
	d="
M198.040741,147.563599 
	C197.336090,147.215988 196.625839,146.508713 195.846497,145.502808 
	C196.529984,145.870773 197.282562,146.537354 198.040741,147.563599 
z"/>
<path fill="#D9FDEC" opacity="1.000000" stroke="none" 
	d="
M171.825378,134.830658 
	C171.231705,135.172256 170.544968,135.200684 169.515152,135.220459 
	C169.357010,134.622223 169.541962,134.032639 169.726913,133.443069 
	C170.395386,133.801208 171.063858,134.159363 171.825378,134.830658 
z"/>
<path fill="#CEF9E4" opacity="1.000000" stroke="none" 
	d="
M130.368896,60.086861 
	C130.043747,59.900715 130.023087,59.713535 129.998856,59.243263 
	C130.456604,58.959785 130.917923,58.959400 131.722458,59.002934 
	C131.601593,59.393177 131.137497,59.739502 130.368896,60.086861 
z"/>
<path fill="#CEF9E4" opacity="1.000000" stroke="none" 
	d="
M129.941467,56.618195 
	C129.441452,56.943371 128.909698,56.930424 127.983810,56.845776 
	C128.099655,56.419724 128.609619,56.065372 129.435059,55.665390 
	C129.803589,55.839867 129.856644,56.059967 129.941467,56.618195 
z"/>
<path fill="#2A2A2A" opacity="1.000000" stroke="none" 
	d="
M22.811005,146.795822 
	C22.913900,146.965652 22.692181,147.281387 22.470463,147.597137 
	C22.296148,147.398590 22.121832,147.200058 21.906990,146.796722 
	C22.073109,146.708542 22.279751,146.825150 22.811005,146.795822 
z"/>
<path fill="#CEF9E4" opacity="1.000000" stroke="none" 
	d="
M122.840469,47.815102 
	C122.411293,47.900753 121.860657,47.708103 121.185455,47.242847 
	C121.613602,47.159092 122.166298,47.347946 122.840469,47.815102 
z"/>
<path fill="#CEF9E4" opacity="1.000000" stroke="none" 
	d="
M126.893593,50.763184 
	C126.674805,50.878227 126.355873,50.747726 125.946777,50.364639 
	C126.168900,50.247242 126.481171,50.382442 126.893593,50.763184 
z"/>
<path fill="#CEF9E4" opacity="1.000000" stroke="none" 
	d="
M128.942902,52.715534 
	C128.721161,52.800823 128.425735,52.647110 128.081802,52.239815 
	C128.311935,52.149666 128.590591,52.313095 128.942902,52.715534 
z"/>
<path fill="#CEF9E4" opacity="1.000000" stroke="none" 
	d="
M69.728935,55.089172 
	C69.833664,55.302525 69.694359,55.616730 69.304016,56.023022 
	C69.196953,55.806747 69.340927,55.498386 69.728935,55.089172 
z"/>
<path fill="#D9FDEC" opacity="1.000000" stroke="none" 
	d="
M198.907593,148.838318 
	C198.705154,148.879761 198.440735,148.676300 198.128540,148.220795 
	C198.335724,148.176971 198.590652,148.385193 198.907593,148.838318 
z"/>
<path fill="#CEF9E4" opacity="1.000000" stroke="none" 
	d="
M125.801422,49.870220 
	C125.561989,50.004890 125.220016,49.860645 124.754143,49.457664 
	C124.986458,49.329720 125.342674,49.460510 125.801422,49.870220 
z"/>
<path fill="#D9FDEC" opacity="1.000000" stroke="none" 
	d="
M197.329193,138.926697 
	C197.097870,138.675461 197.234802,138.383789 197.752441,138.064987 
	C197.961960,138.313995 197.816742,138.596786 197.329193,138.926697 
z"/>
<path fill="#D9FDEC" opacity="1.000000" stroke="none" 
	d="
M198.214233,137.861816 
	C198.109695,137.658646 198.250778,137.331116 198.637878,136.879150 
	C198.742554,137.082275 198.601212,137.409866 198.214233,137.861816 
z"/>
<path fill="#D9FDEC" opacity="1.000000" stroke="none" 
	d="
M195.128113,151.091187 
	C195.345657,151.039261 195.619171,151.252991 195.963242,151.722748 
	C195.750549,151.771454 195.467316,151.564163 195.128113,151.091187 
z"/>
<path fill="#CEF9E4" opacity="1.000000" stroke="none" 
	d="
M66.810333,59.165504 
	C66.960953,59.388130 66.845825,59.746311 66.481689,60.254105 
	C66.336639,60.036167 66.440620,59.668617 66.810333,59.165504 
z"/>
<path fill="#CEF9E4" opacity="1.000000" stroke="none" 
	d="
M65.725174,61.165909 
	C65.899086,61.374260 65.823936,61.746777 65.510109,62.290371 
	C65.339661,62.084324 65.407890,61.707199 65.725174,61.165909 
z"/>
<path fill="#D9FDEC" opacity="1.000000" stroke="none" 
	d="
M197.917633,134.708344 
	C197.833588,134.898209 197.662384,134.931778 197.240311,134.890732 
	C197.269775,134.728104 197.550125,134.640076 197.917633,134.708344 
z"/>
<path fill="#CEF9E4" opacity="1.000000" stroke="none" 
	d="
M69.197998,89.988251 
	C69.455269,89.920296 69.746582,90.144638 70.101166,90.644447 
	C69.853645,90.706787 69.542839,90.493675 69.197998,89.988251 
z"/>
<path fill="#CEF9E4" opacity="1.000000" stroke="none" 
	d="
M67.139618,87.037674 
	C67.389084,86.997513 67.655182,87.232788 67.939407,87.742500 
	C67.690437,87.782333 67.423347,87.547729 67.139618,87.037674 
z"/>
<path fill="#C5F8DE" opacity="1.000000" stroke="none" 
	d="
M85.872559,79.400406 
	C86.591423,80.104454 87.309685,81.149368 88.035065,82.537476 
	C87.318771,81.834206 86.595367,80.787743 85.872559,79.400406 
z"/>
<path fill="#CEF9E4" opacity="1.000000" stroke="none" 
	d="
M115.602142,61.880676 
	C114.770836,62.570427 113.592796,63.259453 112.039169,63.880569 
	C112.860863,63.168427 114.058136,62.524189 115.602142,61.880676 
z"/>
<path fill="#CEF9E4" opacity="1.000000" stroke="none" 
	d="
M121.717941,59.100834 
	C121.546936,59.437973 121.091476,59.745144 120.348915,60.042801 
	C120.519035,59.712482 120.976265,59.391674 121.717941,59.100834 
z"/>
<path fill="#CEF9E4" opacity="1.000000" stroke="none" 
	d="
M124.676468,57.873009 
	C124.491486,58.234802 123.988136,58.599537 123.153610,58.934494 
	C123.334328,58.561790 123.846222,58.218872 124.676468,57.873009 
z"/>
<path fill="#CBFAE2" opacity="1.000000" stroke="none" 
	d="
M123.419342,64.186447 
	C123.503098,63.808472 123.885628,63.414543 124.563606,62.996971 
	C124.478737,63.372383 124.098427,63.771439 123.419342,64.186447 
z"/>
<path fill="#CBFAE2" opacity="1.000000" stroke="none" 
	d="
M116.428955,68.196594 
	C116.574509,67.818665 117.026306,67.424080 117.803139,67.050842 
	C117.663849,67.441437 117.199524,67.810684 116.428955,68.196594 
z"/>
<path fill="#CEF9E4" opacity="1.000000" stroke="none" 
	d="
M126.692825,56.985207 
	C126.683441,57.248913 126.366661,57.500355 125.735382,57.714394 
	C125.742393,57.442307 126.063911,57.207626 126.692825,56.985207 
z"/>
<path fill="#CEF9E4" opacity="1.000000" stroke="none" 
	d="
M119.717163,60.036079 
	C119.720566,60.297707 119.427734,60.546909 118.836098,60.781998 
	C118.831841,60.519806 119.126373,60.271729 119.717163,60.036079 
z"/>
<path fill="#C5F8DE" opacity="1.000000" stroke="none" 
	d="
M83.034706,73.279320 
	C83.290443,73.272842 83.535820,73.552406 83.762817,74.120186 
	C83.504402,74.127396 83.264374,73.846375 83.034706,73.279320 
z"/>
<path fill="#CEF9E4" opacity="1.000000" stroke="none" 
	d="
M129.242798,60.839516 
	C129.082596,60.509586 129.289352,60.269367 129.853333,60.096581 
	C129.896057,60.320759 129.695770,60.575832 129.242798,60.839516 
z"/>
<path fill="#CEF9E4" opacity="1.000000" stroke="none" 
	d="
M127.241837,61.700150 
	C127.255127,61.536926 127.500710,61.313416 128.007080,61.110031 
	C128.072601,61.408054 127.808029,61.577953 127.241837,61.700150 
z"/>
<path fill="#CEF9E4" opacity="1.000000" stroke="none" 
	d="
M110.708633,64.061813 
	C110.707703,64.313400 110.417053,64.557076 109.830917,64.780067 
	C109.829918,64.524231 110.124413,64.289070 110.708633,64.061813 
z"/>
<path fill="#CBFAE2" opacity="1.000000" stroke="none" 
	d="
M122.254242,64.895081 
	C122.218468,64.648636 122.443626,64.408554 122.923843,64.161392 
	C122.957664,64.403351 122.736420,64.652390 122.254242,64.895081 
z"/>
<path fill="#CBFAE2" opacity="1.000000" stroke="none" 
	d="
M120.277756,65.971451 
	C120.244926,65.722000 120.492096,65.455154 121.020721,65.172012 
	C121.054031,65.421837 120.805901,65.687950 120.277756,65.971451 
z"/>
<path fill="#CBFAE2" opacity="1.000000" stroke="none" 
	d="
M115.251060,68.886414 
	C115.219948,68.643967 115.447243,68.406441 115.930313,68.168213 
	C115.960548,68.408783 115.735001,68.650063 115.251060,68.886414 
z"/>
<path fill="#CBFAE2" opacity="1.000000" stroke="none" 
	d="
M113.309875,70.015427 
	C113.277794,69.769035 113.530159,69.487144 114.076950,69.193291 
	C114.112366,69.447525 113.853333,69.713737 113.309875,70.015427 
z"/>
<path fill="#CBFAE2" opacity="1.000000" stroke="none" 
	d="
M110.248573,71.809944 
	C110.224251,71.579102 110.455917,71.349907 110.939957,71.110466 
	C110.963066,71.337341 110.733818,71.574471 110.248573,71.809944 
z"/>
<path fill="#C5F8DE" opacity="1.000000" stroke="none" 
	d="
M96.247055,79.869072 
	C96.220695,79.627747 96.458031,79.388054 96.956085,79.136124 
	C96.981453,79.372826 96.746101,79.621765 96.247055,79.869072 
z"/>
<path fill="#CBFAE2" opacity="1.000000" stroke="none" 
	d="
M108.280792,72.955002 
	C108.254616,72.709236 108.509460,72.449135 109.045876,72.177719 
	C109.072235,72.424477 108.817024,72.682564 108.280792,72.955002 
z"/>
<path fill="#ECECEC" opacity="1.000000" stroke="none" 
	d="
M123.593994,140.215515 
	C121.904068,140.196625 120.646751,140.114639 119.212090,140.021103 
	C119.212090,137.472610 119.212090,135.221832 119.212090,132.656052 
	C122.460594,132.116913 125.950111,131.207321 127.620171,135.050323 
	C128.872360,137.931763 126.929886,139.636475 123.593994,140.215515 
z"/>
<path fill="#F1F1F1" opacity="1.000000" stroke="none" 
	d="
M86.612427,147.965118 
	C86.163544,146.677902 85.542900,145.528503 85.859871,144.771896 
	C86.726929,142.702286 87.725037,140.540115 89.249977,138.980453 
	C89.727730,138.491821 93.236885,139.664505 93.311714,140.312927 
	C93.614273,142.934952 93.500771,145.781982 92.647827,148.235535 
	C92.435295,148.846893 88.884712,148.297821 86.612427,147.965118 
z"/>
<path fill="#E9E9E9" opacity="1.000000" stroke="none" 
	d="
M135.926529,139.640717 
	C138.134476,139.616745 141.434128,139.415512 141.726395,140.257828 
	C142.509995,142.516113 142.336426,145.288757 141.841232,147.713791 
	C141.657761,148.612289 139.409027,149.793228 138.298584,149.615829 
	C136.981339,149.405396 135.002258,147.980453 134.861740,146.883133 
	C134.574310,144.638855 135.324219,142.261719 135.926529,139.640717 
z"/>
<path fill="#DCDCDC" opacity="1.000000" stroke="none" 
	d="
M35.518845,142.808273 
	C34.634953,142.129837 34.157616,141.454346 33.680279,140.778839 
	C34.858994,140.054581 36.108353,138.655518 37.199295,138.769714 
	C38.705109,138.927368 40.091438,140.226410 41.528942,141.036560 
	C41.339725,141.628113 41.150505,142.219650 40.961288,142.811203 
	C39.282658,142.811203 37.604031,142.811203 35.518845,142.808273 
z"/>
</svg>