<?xml version="1.0" encoding="UTF-8" standalone="no"?>
<!DOCTYPE svg PUBLIC "-//W3C//DTD SVG 1.1//EN" "http://www.w3.org/Graphics/SVG/1.1/DTD/svg11.dtd">
<svg xmlns="http://www.w3.org/2000/svg" version="1.1" viewBox="0 0 260 280">
<g stroke-width="2.00" fill="none" stroke-linecap="butt">
<path stroke="#f7f7f7" vector-effect="non-scaling-stroke" d="
  M 20.45 -0.01
  L 19.91 19.49
  A 0.59 0.50 0.5 0 0 20.50 20.00
  L 38.75 20.00
  A 1.14 1.00 0.0 0 0 39.89 19.00
  L 39.81 0.00"
/>
<path stroke="#f7f7f7" vector-effect="non-scaling-stroke" d="
  M 60.77 -0.04
  Q 59.47 8.80 59.95 17.75
  A 1.84 1.61 28.7 0 0 60.28 18.65
  C 62.46 21.70 59.00 19.89 58.14 19.89
  Q 49.36 19.91 40.53 20.19
  A 0.56 0.55 88.9 0 0 40.00 20.75
  L 40.00 38.75
  A 1.11 1.07 -88.0 0 0 40.98 39.84
  L 44.52 40.15
  A 0.99 0.81 75.9 0 1 45.23 40.68
  L 46.54 43.25"
/>
<path stroke="#9ddaa5" vector-effect="non-scaling-stroke" d="
  M 46.54 43.25
  L 41.00 55.04"
/>
<path stroke="#f7f7f7" vector-effect="non-scaling-stroke" d="
  M 41.00 55.04
  Q 40.33 55.33 39.92 55.06
  A 1.03 0.66 -79.2 0 1 39.60 54.26
  L 39.91 41.94
  A 1.90 1.66 -89.3 0 0 38.26 40.00
  L 20.75 40.00
  A 0.75 0.75 0.0 0 0 20.00 40.75
  L 20.00 59.50
  A 0.55 0.43 0.7 0 0 20.54 59.93
  L 39.24 60.39"
/>
<path stroke="#9ddaa5" vector-effect="non-scaling-stroke" d="
  M 39.24 60.39
  Q 37.02 70.08 36.96 79.75"
/>
<path stroke="#f7f7f7" vector-effect="non-scaling-stroke" d="
  M 36.96 79.75
  L 21.43 79.96
  A 1.45 1.28 -0.2 0 0 19.99 81.24
  L 20.00 99.50
  A 0.50 0.47 -0.0 0 0 20.50 99.97
  L 37.50 99.87
  Q 40.04 99.86 40.03 102.25
  L 40.00 119.00
  A 0.66 0.59 6.6 0 0 40.52 119.59
  Q 46.03 120.84 51.21 118.75"
/>
<path stroke="#9ddaa5" vector-effect="non-scaling-stroke" d="
  M 51.21 118.75
  Q 58.88 128.49 63.93 132.06
  Q 67.57 134.64 70.66 137.78
  Q 72.39 139.54 71.75 141.99
  L 66.96 160.50"
/>
<path stroke="#f7f7f7" vector-effect="non-scaling-stroke" d="
  M 66.96 160.50
  L 61.25 160.21"
/>
<path stroke="#ffffff" vector-effect="non-scaling-stroke" d="
  M 61.25 160.21
  Q 59.98 159.95 59.93 159.55"
/>
<path stroke="#f7f7f7" vector-effect="non-scaling-stroke" d="
  M 59.93 159.55
  L 60.04 141.45
  A 1.45 1.28 -89.8 0 0 58.76 139.99
  L 40.51 140.00
  A 0.62 0.42 -90.0 0 0 40.09 140.62
  L 40.00 160.00"
/>
<path stroke="#f7f7f7" vector-effect="non-scaling-stroke" d="
  M 40.00 160.00
  L 20.71 160.01
  A 0.74 0.71 90.0 0 0 20.00 160.75
  L 20.00 175.25
  A 1.47 1.12 30.7 0 0 20.35 176.11
  C 21.68 177.67 18.66 178.63 20.54 180.00"
/>
<path stroke="#ffffff" vector-effect="non-scaling-stroke" d="
  M 20.54 180.00
  L 19.75 183.79"
/>
<path stroke="#f7f7f7" vector-effect="non-scaling-stroke" d="
  M 19.75 183.79
  Q 19.23 182.81 19.75 181.73
  A 1.29 1.24 11.3 0 0 18.51 179.95
  L -0.02 180.49"
/>
<path stroke="#f7f7f7" vector-effect="non-scaling-stroke" d="
  M -0.01 159.58
  Q 9.54 160.37 19.11 159.92
  A 0.61 0.41 -2.0 0 0 19.69 159.50
  L 19.71 141.00
  A 1.05 0.95 89.2 0 0 18.73 139.95
  L -0.02 140.49"
/>
<path stroke="#f7f7f7" vector-effect="non-scaling-stroke" d="
  M -0.01 119.59
  Q 9.61 120.31 19.17 120.00
  A 0.83 0.75 89.7 0 0 19.90 119.18
  L 20.02 102.25
  Q 20.04 99.91 17.91 99.97
  L -0.02 100.48"
/>
<path stroke="#f7f7f7" vector-effect="non-scaling-stroke" d="
  M -0.01 79.58
  Q 9.65 80.39 19.34 79.89
  A 0.66 0.45 -1.9 0 0 19.97 79.43
  L 19.95 60.68
  A 0.95 0.77 -0.0 0 0 19.00 59.91
  L 1.24 59.96
  A 1.09 0.48 4.6 0 0 0.33 60.28
  L 0.00 60.94"
/>
<path stroke="#f7f7f7" vector-effect="non-scaling-stroke" d="
  M -0.01 39.59
  Q 9.70 40.32 19.25 39.99
  A 0.76 0.75 87.0 0 0 19.97 39.18
  Q 19.45 30.60 20.04 21.99
  Q 20.20 19.74 18.01 19.92
  Q 9.61 20.61 1.25 19.84
  A 1.11 0.87 19.4 0 0 0.42 20.12
  Q 0.12 20.44 0.00 20.94"
/>
<path stroke="#f7f7f7" vector-effect="non-scaling-stroke" d="
  M 39.9841 120.8926
  A 0.90 0.90 0.0 0 0 39.0825 119.9941
  L 20.8826 120.0259
  A 0.90 0.90 0.0 0 0 19.9841 120.9275
  L 20.0159 139.1274
  A 0.90 0.90 0.0 0 0 20.9175 140.0259
  L 39.1174 139.9941
  A 0.90 0.90 0.0 0 0 40.0159 139.0925
  L 39.9841 120.8926"
/>
<path stroke="#f7f7f7" vector-effect="non-scaling-stroke" d="
  M 79.31 0.00
  Q 80.64 3.27 80.00 7.50
  Q 79.62 9.99 82.00 11.04"
/>
<path stroke="#94d29c" vector-effect="non-scaling-stroke" d="
  M 82.00 11.04
  Q 59.87 22.34 46.54 43.25"
/>
<path stroke="#9ddaa5" vector-effect="non-scaling-stroke" d="
  M 124.56 0.00
  Q 102.14 1.21 82.00 11.04"
/>
<path stroke="#9ddaa5" vector-effect="non-scaling-stroke" d="
  M 136.56 0.00
  Q 159.09 1.35 179.25 11.64"
/>
<path stroke="#94d29c" vector-effect="non-scaling-stroke" d="
  M 179.25 11.64
  Q 194.43 19.43 205.67 32.36
  A 0.40 0.40 -33.4 0 1 205.54 32.98
  L 199.50 35.96"
/>
<path stroke="#9ddaa5" vector-effect="non-scaling-stroke" d="
  M 199.50 35.96
  L 195.21 37.75"
/>
<path stroke="#94d29c" vector-effect="non-scaling-stroke" d="
  M 195.21 37.75
  L 179.75 44.71"
/>
<path stroke="#9ddaa5" vector-effect="non-scaling-stroke" d="
  M 179.75 44.71
  L 139.27 62.72"
/>
<path stroke="#94d29c" vector-effect="non-scaling-stroke" d="
  M 139.27 62.72
  L 119.75 71.46"
/>
<path stroke="#9ddaa5" vector-effect="non-scaling-stroke" d="
  M 119.75 71.46
  C 112.75 74.66 107.96 77.35 102.00 72.46"
/>
<path stroke="#94d29c" vector-effect="non-scaling-stroke" d="
  M 102.00 72.46
  L 82.97 58.94
  A 1.22 1.10 55.3 0 0 82.08 58.73
  C 78.21 59.49 78.75 62.07 80.06 64.95
  Q 83.85 73.30 87.62 81.42"
/>
<path stroke="#9ddaa5" vector-effect="non-scaling-stroke" d="
  M 87.62 81.42
  Q 91.84 90.92 96.12 100.09
  C 99.07 106.42 104.48 104.64 108.82 101.34"
/>
<path stroke="#94d29c" vector-effect="non-scaling-stroke" d="
  M 108.82 101.34
  L 121.40 94.10"
/>
<path stroke="#9ddaa5" vector-effect="non-scaling-stroke" d="
  M 121.40 94.10
  L 181.29 59.50"
/>
<path stroke="#94d29c" vector-effect="non-scaling-stroke" d="
  M 181.29 59.50
  L 201.68 47.86"
/>
<path stroke="#9ddaa5" vector-effect="non-scaling-stroke" d="
  M 201.68 47.86
  L 212.31 41.82
  A 0.50 0.47 -28.1 0 1 212.99 42.00
  L 218.95 53.80"
/>
<path stroke="#94d29c" vector-effect="non-scaling-stroke" d="
  M 218.95 53.80
  L 220.52 58.88"
/>
<path stroke="#9ddaa5" vector-effect="non-scaling-stroke" d="
  M 220.52 58.88
  Q 223.68 69.73 223.26 81.17"
/>
<path stroke="#94d29c" vector-effect="non-scaling-stroke" d="
  M 223.26 81.17
  Q 222.48 90.08 219.92 98.82"
/>
<path stroke="#9ddaa5" vector-effect="non-scaling-stroke" d="
  M 219.92 98.82
  L 217.96 103.75"
/>
<path stroke="#94d29c" vector-effect="non-scaling-stroke" d="
  M 217.96 103.75
  Q 214.05 112.10 208.54 119.50"
/>
<path stroke="#9ddaa5" vector-effect="non-scaling-stroke" d="
  M 208.54 119.50
  L 198.74 130.19"
/>
<path stroke="#94d29c" vector-effect="non-scaling-stroke" d="
  M 198.74 130.19
  L 187.94 138.57"
/>
<path stroke="#9ddaa5" vector-effect="non-scaling-stroke" d="
  M 187.94 138.57
  L 178.75 143.79"
/>
<path stroke="#94d29c" vector-effect="non-scaling-stroke" d="
  M 178.75 143.79
  Q 169.32 148.30 159.62 151.14"
/>
<path stroke="#9ddaa5" vector-effect="non-scaling-stroke" d="
  M 159.62 151.14
  Q 149.17 153.87 138.75 154.79"
/>
<path stroke="#94d29c" vector-effect="non-scaling-stroke" d="
  M 138.75 154.79
  Q 129.36 155.39 120.00 154.54"
/>
<path stroke="#9ddaa5" vector-effect="non-scaling-stroke" d="
  M 120.00 154.54
  Q 109.58 153.60 99.50 150.79"
/>
<path stroke="#94d29c" vector-effect="non-scaling-stroke" d="
  M 99.50 150.79
  C 93.51 149.45 83.75 156.62 73.75 162.54
  C 70.91 164.22 67.07 165.74 66.96 160.50"
/>
<path stroke="#94d29c" vector-effect="non-scaling-stroke" d="
  M 51.21 118.75
  Q 38.37 101.39 36.96 79.75"
/>
<path stroke="#94d29c" vector-effect="non-scaling-stroke" d="
  M 39.24 60.39
  L 41.00 55.04"
/>
<path stroke="#f7f7f7" vector-effect="non-scaling-stroke" d="
  M 181.31 0.00
  L 180.62 0.31
  A 0.78 0.65 -15.8 0 0 180.17 0.97
  Q 180.38 6.26 179.25 11.64"
/>
<path stroke="#f7f7f7" vector-effect="non-scaling-stroke" d="
  M 199.81 0.00
  Q 200.31 9.25 199.66 18.51
  A 1.23 1.10 -87.6 0 0 200.74 19.82
  L 219.00 19.96
  A 0.99 0.79 0.0 0 1 219.99 20.75
  L 219.98 38.49
  A 1.49 1.46 89.8 0 1 218.53 39.98
  C 215.99 40.00 201.72 40.69 200.27 39.17
  Q 199.21 38.06 199.50 35.96"
/>
<path stroke="#f7f7f7" vector-effect="non-scaling-stroke" d="
  M 220.45 -0.01
  Q 219.75 9.71 220.06 19.46
  A 0.56 0.44 88.7 0 0 220.50 20.00
  L 238.75 20.00
  A 1.14 1.05 0.0 0 0 239.89 18.95
  L 239.81 0.00"
/>
<path stroke="#f7f7f7" vector-effect="non-scaling-stroke" d="
  M 260.01 20.43
  Q 250.26 19.57 240.86 20.21
  A 0.92 0.78 -2.3 0 0 240.00 21.00
  L 240.00 39.50
  A 0.55 0.45 0.0 0 0 240.55 39.95
  L 260.00 39.81"
/>
<path stroke="#f7f7f7" vector-effect="non-scaling-stroke" d="
  M 260.01 60.41
  Q 250.68 59.70 241.23 60.03
  A 1.28 1.21 -1.0 0 0 239.99 61.24
  L 240.00 79.50
  A 0.53 0.48 -0.6 0 0 240.54 79.98
  L 260.01 79.68"
/>
<path stroke="#f7f7f7" vector-effect="non-scaling-stroke" d="
  M 260.01 100.41
  Q 250.68 99.70 241.24 100.02
  A 1.30 1.22 -1.2 0 0 239.99 101.24
  L 240.00 119.50
  A 0.53 0.48 -0.6 0 0 240.54 119.98
  L 260.01 119.68"
/>
<path stroke="#f7f7f7" vector-effect="non-scaling-stroke" d="
  M 260.01 140.40
  L 241.05 140.22
  A 1.04 1.03 0.3 0 0 240.00 141.25
  L 240.00 159.50
  A 0.53 0.48 -0.6 0 0 240.54 159.98
  L 260.01 159.68"
/>
<path stroke="#f7f7f7" vector-effect="non-scaling-stroke" d="
  M 260.01 180.41
  L 240.73 180.15
  A 0.85 0.73 -89.7 0 0 239.99 181.00
  L 240.00 199.50
  A 0.53 0.48 -0.6 0 0 240.54 199.98
  L 260.01 199.68"
/>
<path stroke="#f7f7f7" vector-effect="non-scaling-stroke" d="
  M 260.04 220.94
  Q 257.00 219.54 254.04 220.00
  Q 250.62 220.54 250.96 217.25"
/>
<path stroke="#919191" vector-effect="non-scaling-stroke" d="
  M 250.96 217.25
  C 250.13 215.73 246.20 215.48 247.13 218.45"
/>
<path stroke="#f7f7f7" vector-effect="non-scaling-stroke" d="
  M 247.13 218.45
  Q 244.61 221.65 240.53 220.06
  A 0.88 0.84 -79.8 0 1 240.00 219.25
  L 240.00 200.75
  A 0.75 0.75 0.0 0 0 239.25 200.00
  L 220.99 199.99
  A 1.01 1.01 0.2 0 0 219.98 201.00
  L 219.84 219.31
  A 1.14 0.77 -0.4 0 0 221.00 220.08
  L 239.18 219.81
  A 0.79 0.78 -2.6 0 1 239.99 220.54
  Q 240.31 225.77 239.61 231.25"
/>
<path stroke="#919191" vector-effect="non-scaling-stroke" d="
  M 239.61 231.25
  L 219.05 231.25
  A 0.76 0.47 -1.2 0 0 218.27 231.75
  L 218.49 234.75
  A 0.77 0.55 -1.5 0 0 219.24 235.26
  L 240.25 235.29"
/>
<path stroke="#f7f7f7" vector-effect="non-scaling-stroke" d="
  M 240.25 235.29
  C 238.51 241.49 243.68 239.30 246.71 240.00"
/>
<path stroke="#919191" vector-effect="non-scaling-stroke" d="
  M 246.71 240.00
  L 247.03 259.61"
/>
<path stroke="#f7f7f7" vector-effect="non-scaling-stroke" d="
  M 247.03 259.61
  Q 243.97 260.54 240.81 260.31
  A 0.58 0.55 6.8 0 0 240.21 260.76
  Q 239.09 266.49 241.29 271.75"
/>
<path stroke="#919191" vector-effect="non-scaling-stroke" d="
  M 241.29 271.75
  L 239.30 272.06
  A 0.64 0.41 -5.8 0 0 238.75 272.50
  L 238.75 275.25
  A 0.60 0.48 3.9 0 0 239.28 275.74
  C 250.89 277.19 251.66 269.60 250.80 260.75
  Q 250.25 255.17 251.04 239.50"
/>
<path stroke="#f7f7f7" vector-effect="non-scaling-stroke" d="
  M 251.04 239.50
  L 258.50 239.94
  A 1.00 0.76 15.9 0 0 259.32 239.62
  Q 259.95 238.75 260.00 237.56"
/>
<path stroke="#f7f7f7" vector-effect="non-scaling-stroke" d="
  M 219.56 280.00
  L 219.88 260.56
  A 0.48 0.46 -87.2 0 1 220.38 260.09
  Q 226.27 260.51 232.05 258.99"
/>
<path stroke="#919191" vector-effect="non-scaling-stroke" d="
  M 232.05 258.99
  Q 232.32 259.80 232.89 260.41
  A 0.71 0.66 54.1 0 0 233.71 260.57
  L 236.75 258.96"
/>
<path stroke="#f7f7f7" vector-effect="non-scaling-stroke" d="
  M 236.75 258.96
  C 238.37 260.01 239.63 260.18 239.72 257.82
  Q 240.08 249.30 239.89 241.03
  A 1.12 1.10 -1.3 0 0 238.75 239.96
  L 220.94 240.18
  A 0.69 0.58 -0.1 0 0 220.26 240.75
  L 220.01 259.00
  A 0.77 0.72 84.8 0 1 219.44 259.73
  Q 215.98 260.48 212.79 259.50"
/>
<path stroke="#919191" vector-effect="non-scaling-stroke" d="
  M 212.79 259.50
  Q 212.72 247.40 212.75 235.28
  C 212.76 230.16 216.40 223.60 217.46 220.18
  Q 218.43 217.01 214.99 216.39
  A 0.92 0.81 -75.3 0 0 214.05 217.02
  L 212.75 221.04"
/>
<path stroke="#f7f7f7" vector-effect="non-scaling-stroke" d="
  M 212.75 221.04
  Q 206.74 219.77 200.93 220.13
  A 0.93 0.93 -2.3 0 0 200.06 221.07
  L 200.10 239.50
  A 0.62 0.49 -89.6 0 1 199.60 240.12
  C 195.92 240.11 190.56 239.21 187.29 240.93"
/>
<path stroke="#919191" vector-effect="non-scaling-stroke" d="
  M 187.29 240.93
  Q 183.56 238.50 179.75 239.21"
/>
<path stroke="#f7f7f7" vector-effect="non-scaling-stroke" d="
  M 179.75 239.21
  L 180.00 228.29"
/>
<path stroke="#919191" vector-effect="non-scaling-stroke" d="
  M 180.00 228.29
  L 196.46 228.24
  A 0.65 0.42 -1.0 0 0 197.11 227.81
  L 197.01 224.99
  A 0.76 0.50 -0.3 0 0 196.25 224.50
  L 170.50 224.50
  A 0.75 0.53 -1.1 0 1 169.76 224.00
  L 169.44 217.01
  A 1.00 0.26 88.4 0 0 169.18 216.10
  Q 167.81 215.66 166.43 215.86
  A 0.88 0.64 88.0 0 0 165.87 216.68
  L 165.69 223.75
  A 0.60 0.41 0.5 0 1 165.09 224.15
  L 141.00 224.46"
/>
<path stroke="#f7f7f7" vector-effect="non-scaling-stroke" d="
  M 141.00 224.46
  Q 139.86 222.72 140.05 221.11
  A 1.04 1.01 2.7 0 0 139.00 219.99
  L 120.50 220.33
  A 0.48 0.47 -2.3 0 0 120.03 220.83
  L 120.25 224.21"
/>
<path stroke="#919191" vector-effect="non-scaling-stroke" d="
  M 120.25 224.21
  L 113.06 224.42
  A 0.43 0.40 -87.5 0 1 112.65 223.94
  Q 112.85 222.42 112.21 221.00"
/>
<path stroke="#f7f7f7" vector-effect="non-scaling-stroke" d="
  M 112.21 221.00
  Q 113.07 219.07 114.74 219.84
  A 1.29 1.12 44.3 0 0 115.65 219.89
  Q 117.47 219.24 119.24 219.60
  A 0.43 0.37 6.8 0 0 119.76 219.25
  L 119.90 200.50
  A 0.65 0.50 -0.0 0 0 119.25 200.00
  L 101.50 200.00
  A 1.52 1.51 0.2 0 0 99.98 201.50
  L 99.90 218.94
  A 1.11 1.10 -6.2 0 0 101.26 220.02
  Q 104.13 219.37 106.85 219.76"
/>
<path stroke="#919191" vector-effect="non-scaling-stroke" d="
  M 106.85 219.76
  L 108.82 223.74
  A 0.36 0.35 -13.0 0 1 108.50 224.25
  L 89.25 224.25
  A 1.01 0.49 0.0 0 0 88.24 224.74
  L 88.25 227.75
  A 0.80 0.50 0.0 0 0 89.05 228.25
  L 119.25 228.29"
/>
<path stroke="#f7f7f7" vector-effect="non-scaling-stroke" d="
  M 119.25 228.29
  Q 120.52 231.25 120.00 234.46"
/>
<path stroke="#919191" vector-effect="non-scaling-stroke" d="
  M 120.00 234.46
  Q 100.40 234.88 94.74 234.49
  Q 90.35 234.18 92.03 238.17
  A 0.75 0.72 -11.5 0 0 92.73 238.61
  C 97.27 238.44 127.88 238.56 128.25 238.21"
/>
<path stroke="#f7f7f7" vector-effect="non-scaling-stroke" d="
  M 128.25 238.21
  Q 128.82 238.47 129.11 238.97
  A 1.04 0.51 66.2 0 0 129.75 239.51
  L 138.99 239.96
  A 0.66 0.58 -84.4 0 0 139.61 239.38
  Q 140.35 233.70 139.47 228.36"
/>
<path stroke="#919191" vector-effect="non-scaling-stroke" d="
  M 139.47 228.36
  L 160.25 228.29"
/>
<path stroke="#f7f7f7" vector-effect="non-scaling-stroke" d="
  M 160.25 228.29
  Q 159.69 233.75 160.25 239.21"
/>
<path stroke="#919191" vector-effect="non-scaling-stroke" d="
  M 160.25 239.21
  L 147.66 239.65"
/>
<path stroke="#f7f7f7" vector-effect="non-scaling-stroke" d="
  M 147.66 239.65
  Q 144.84 240.29 140.98 239.91
  A 0.89 0.85 3.1 0 0 140.00 240.75
  L 140.00 259.50
  A 0.53 0.44 -0.6 0 0 140.54 259.94
  L 160.00 259.71"
/>
<path stroke="#919191" vector-effect="non-scaling-stroke" d="
  M 160.00 259.71
  L 163.62 263.07
  A 0.42 0.41 50.8 0 1 163.56 263.73
  Q 152.76 270.16 140.39 272.56"
/>
<path stroke="#f7f7f7" vector-effect="non-scaling-stroke" d="
  M 140.39 272.56
  Q 140.15 272.50 139.93 272.31
  A 1.17 0.44 -83.6 0 1 139.71 271.44
  L 139.93 260.75
  A 0.72 0.55 4.2 0 0 139.28 260.17
  Q 133.11 259.45 127.29 261.00"
/>
<path stroke="#919191" vector-effect="non-scaling-stroke" d="
  M 127.29 261.00
  L 127.05 255.51
  A 0.55 0.53 -1.1 0 0 126.50 255.00
  L 93.75 255.01
  A 1.02 0.98 0.0 0 0 92.73 255.99
  L 92.70 274.06
  A 0.62 0.48 90.0 0 0 93.18 274.68
  L 121.29 274.71"
/>
<path stroke="#f7f7f7" vector-effect="non-scaling-stroke" d="
  M 121.29 274.71
  Q 122.52 275.88 122.26 277.60
  A 0.58 0.56 -76.4 0 0 122.63 278.24
  Q 126.96 279.62 131.44 280.00"
/>
<path stroke="#919191" vector-effect="non-scaling-stroke" d="
  M 0.00 252.69
  Q 0.64 254.34 2.03 255.48
  A 0.52 0.49 -49.9 0 0 2.73 255.40
  L 7.03 250.34
  Q 7.51 249.77 7.51 250.50
  L 7.50 276.00
  A 0.94 0.55 -85.9 0 0 7.92 276.85
  Q 9.36 277.26 10.75 276.73
  A 0.78 0.78 79.7 0 0 11.25 276.00
  Q 11.25 261.17 11.25 246.32
  C 11.25 242.32 13.35 239.13 15.08 235.69
  A 0.96 0.49 -62.5 0 0 15.09 234.66
  L 12.31 232.90
  A 0.74 0.46 -65.5 0 0 11.52 233.42
  Q 7.49 243.93 0.00 252.19"
/>
<path stroke="#f7f7f7" vector-effect="non-scaling-stroke" d="
  M -0.01 199.54
  Q 9.54 200.40 19.12 199.92
  A 0.54 0.54 -0.6 0 0 19.64 199.39
  L 19.75 183.79"
/>
<path stroke="#f7f7f7" vector-effect="non-scaling-stroke" d="
  M 20.54 180.00
  L 39.18 179.69
  A 0.53 0.50 -0.0 0 0 39.71 179.19
  L 40.00 160.00"
/>
<path stroke="#f7f7f7" vector-effect="non-scaling-stroke" d="
  M 40.00 160.00
  Q 50.05 160.33 59.93 159.55"
/>
<path stroke="#f7f7f7" vector-effect="non-scaling-stroke" d="
  M 61.25 160.21
  C 60.41 160.06 60.01 160.33 60.01 161.20
  Q 59.97 170.31 60.03 179.47
  A 0.53 0.47 -90.0 0 0 60.50 180.00
  L 79.50 180.00
  A 0.50 0.50 0.0 0 1 80.00 180.50
  L 80.00 199.50
  A 0.50 0.50 0.0 0 0 80.50 200.00
  L 99.25 200.00
  A 0.69 0.57 90.0 0 0 99.82 199.31
  L 99.86 181.50
  A 1.60 1.48 0.2 0 0 98.26 180.01
  L 80.50 180.00
  A 0.52 0.48 -89.4 0 1 80.02 179.47
  Q 80.10 171.01 79.86 162.50
  C 79.77 159.64 81.18 157.91 84.11 159.48
  Q 84.45 159.67 85.00 159.68
  L 98.50 160.01
  A 1.17 1.14 4.3 0 0 99.69 159.01
  Q 100.18 155.15 99.50 150.79"
/>
<path stroke="#f7f7f7" vector-effect="non-scaling-stroke" d="
  M 120.00 154.54
  Q 120.53 156.00 119.97 157.50
  Q 119.06 159.96 121.51 159.84
  L 139.00 159.06
  Q 140.52 158.99 139.46 157.57
  Q 138.51 156.29 138.75 154.79"
/>
<path stroke="#f7f7f7" vector-effect="non-scaling-stroke" d="
  M 159.62 151.14
  L 160.23 159.29
  A 0.65 0.51 88.1 0 0 160.74 159.89
  L 179.00 159.97
  A 0.73 0.48 0.4 0 0 179.73 159.50
  L 180.07 145.75
  A 1.28 0.42 45.4 0 0 179.68 144.96
  L 178.75 143.79"
/>
<path stroke="#f7f7f7" vector-effect="non-scaling-stroke" d="
  M 187.94 138.57
  Q 193.36 140.78 199.20 139.58
  A 0.67 0.66 84.1 0 1 200.00 140.24
  L 200.00 159.50
  A 0.50 0.50 0.0 0 0 200.50 160.00
  L 219.00 160.00
  A 0.69 0.51 0.4 0 0 219.69 159.50
  L 219.95 140.81
  A 0.95 0.81 0.3 0 0 219.00 139.99
  L 200.32 139.98
  A 0.60 0.57 1.8 0 1 199.72 139.37
  Q 200.01 134.79 198.74 130.19"
/>
<path stroke="#f7f7f7" vector-effect="non-scaling-stroke" d="
  M 208.54 119.50
  C 210.82 118.88 213.16 119.74 214.83 119.81
  Q 217.01 119.91 219.22 119.96
  A 0.52 0.46 0.6 0 0 219.75 119.50
  L 219.75 106.25
  A 1.08 0.74 25.1 0 0 219.32 105.52
  Q 218.39 104.79 217.96 103.75"
/>
<path stroke="#f7f7f7" vector-effect="non-scaling-stroke" d="
  M 219.92 98.82
  Q 229.60 100.83 239.33 99.91
  A 0.67 0.60 -3.2 0 0 239.93 99.31
  L 239.93 81.18
  A 1.23 1.22 -87.4 0 0 238.82 79.96
  Q 231.24 79.23 223.26 81.17"
/>
<path stroke="#f7f7f7" vector-effect="non-scaling-stroke" d="
  M 220.52 58.88
  Q 229.67 60.67 239.13 59.95
  A 0.89 0.76 -2.4 0 0 239.96 59.18
  L 239.90 40.49
  A 0.65 0.49 0.0 0 0 239.25 40.00
  L 221.49 40.00
  A 1.59 1.58 84.4 0 0 219.94 41.89
  Q 221.13 47.98 218.95 53.80"
/>
<path stroke="#f7f7f7" vector-effect="non-scaling-stroke" d="
  M 201.68 47.86
  Q 199.04 45.46 199.89 41.73
  A 0.94 0.42 -76.7 0 0 199.70 40.75
  L 196.49 39.76
  A 1.08 0.19 15.3 0 1 195.68 39.38
  Q 195.22 38.63 195.21 37.75"
/>
<path stroke="#f7f7f7" vector-effect="non-scaling-stroke" d="
  M 240.0178 120.9023
  A 0.85 0.85 0.0 0 0 239.1722 120.0478
  L 220.9525 119.9524
  A 0.85 0.85 0.0 0 0 220.0980 120.7980
  L 220.0022 139.0977
  A 0.85 0.85 0.0 0 0 220.8478 139.9522
  L 239.0675 140.0476
  A 0.85 0.85 0.0 0 0 239.9220 139.2020
  L 240.0178 120.9023"
/>
<path stroke="#f7f7f7" vector-effect="non-scaling-stroke" d="
  M 160.0040 160.2249
  A 0.27 0.27 0.0 0 0 159.7350 159.9540
  L 140.2951 159.8861
  A 0.27 0.27 0.0 0 0 140.0242 160.1552
  L 139.9560 179.6951
  A 0.27 0.27 0.0 0 0 140.2250 179.9660
  L 159.6649 180.0339
  A 0.27 0.27 0.0 0 0 159.9358 179.7648
  L 160.0040 160.2249"
/>
<path stroke="#f7f7f7" vector-effect="non-scaling-stroke" d="
  M 120.0219 160.8950
  A 0.83 0.83 0.0 0 0 119.1948 160.0621
  L 100.8549 159.9981
  A 0.83 0.83 0.0 0 0 100.0220 160.8251
  L 99.9581 179.1450
  A 0.83 0.83 0.0 0 0 100.7852 179.9779
  L 119.1251 180.0419
  A 0.83 0.83 0.0 0 0 119.9580 179.2149
  L 120.0219 160.8950"
/>
<path stroke="#f7f7f7" vector-effect="non-scaling-stroke" d="
  M 199.9858 161.0074
  A 0.99 0.99 0.0 0 0 198.9975 160.0157
  L 181.0375 159.9843
  A 0.99 0.99 0.0 0 0 180.0458 160.9726
  L 180.0142 179.0726
  A 0.99 0.99 0.0 0 0 181.0025 180.0643
  L 198.9625 180.0957
  A 0.99 0.99 0.0 0 0 199.9542 179.1074
  L 199.9858 161.0074"
/>
<path stroke="#f7f7f7" vector-effect="non-scaling-stroke" d="
  M 220.49 176.89
  Q 219.75 178.24 220.29 179.53
  A 0.78 0.74 -10.7 0 0 221.00 179.99
  L 239.19 179.81
  A 0.66 0.50 -0.0 0 0 239.85 179.31
  L 239.89 160.49
  A 0.64 0.48 0.4 0 0 239.25 160.00
  L 220.75 160.00
  A 0.75 0.75 0.0 0 0 220.00 160.75
  L 220.00 176.00
  A 0.48 0.12 44.3 0 0 220.19 176.31
  L 220.30 176.44
  A 0.52 0.21 45.2 0 1 220.49 176.89"
/>
<path stroke="#919191" vector-effect="non-scaling-stroke" d="
  M 26.21 219.75
  L 26.22 232.46
  A 0.54 0.47 90.0 0 1 25.75 233.00
  L 21.00 233.00
  A 0.50 0.50 0.0 0 1 20.50 232.50
  L 20.49 222.75
  A 0.98 0.31 -89.6 0 0 20.19 221.79
  L 17.20 221.62
  A 0.86 0.43 -89.2 0 0 16.75 222.50
  L 16.75 236.25
  A 0.75 0.49 -0.0 0 0 17.50 236.74
  L 38.50 236.68
  A 0.76 0.68 -0.4 0 0 39.25 236.00
  L 39.25 222.50
  A 0.75 0.50 90.0 0 0 38.75 221.75
  L 36.00 221.75
  A 0.51 0.35 -89.2 0 0 35.65 222.25
  L 35.49 232.25
  A 0.76 0.49 -89.5 0 1 35.00 233.00
  L 30.50 233.00
  A 0.76 0.48 -90.0 0 1 30.02 232.24
  L 30.04 220.00"
/>
<path stroke="#f7f7f7" vector-effect="non-scaling-stroke" d="
  M 30.04 220.00
  L 38.18 220.01
  A 1.59 1.52 0.4 0 0 39.77 218.51
  L 39.97 200.50
  A 0.53 0.50 -0.0 0 1 40.50 200.00
  L 59.00 200.00
  A 0.68 0.51 0.4 0 0 59.68 199.50
  L 59.98 181.00
  A 1.00 0.97 -90.0 0 0 59.00 179.99
  L 40.75 180.25
  A 0.76 0.75 -0.4 0 0 40.00 181.00
  L 40.00 199.50
  A 0.50 0.50 0.0 0 1 39.50 200.00
  L 21.00 200.00
  A 0.85 0.72 1.4 0 0 20.16 200.68
  Q 19.66 209.49 20.44 218.25
  A 1.96 1.83 -3.6 0 0 22.47 219.92
  L 26.21 219.75"
/>
<path stroke="#888888" vector-effect="non-scaling-stroke" d="
  M 30.04 220.00
  Q 30.92 215.69 26.77 217.14
  A 0.74 0.74 81.2 0 0 26.28 217.81
  L 26.21 219.75"
/>
<path stroke="#f7f7f7" vector-effect="non-scaling-stroke" d="
  M 139.9458 180.9374
  A 0.90 0.90 0.0 0 0 139.0474 180.0358
  L 120.9074 180.0042
  A 0.90 0.90 0.0 0 0 120.0059 180.9026
  L 119.9742 199.0826
  A 0.90 0.90 0.0 0 0 120.8726 199.9842
  L 139.0126 200.0158
  A 0.90 0.90 0.0 0 0 139.9141 199.1174
  L 139.9458 180.9374"
/>
<path stroke="#f7f7f7" vector-effect="non-scaling-stroke" d="
  M 179.9658 180.9574
  A 0.94 0.94 0.0 0 0 179.0274 180.0158
  L 160.9475 179.9842
  A 0.94 0.94 0.0 0 0 160.0058 180.9226
  L 159.9742 199.0426
  A 0.94 0.94 0.0 0 0 160.9126 199.9842
  L 178.9925 200.0158
  A 0.94 0.94 0.0 0 0 179.9342 199.0774
  L 179.9658 180.9574"
/>
<path stroke="#f7f7f7" vector-effect="non-scaling-stroke" d="
  M 219.7479 180.8255
  A 0.80 0.80 0.0 0 0 218.9451 180.0283
  L 200.7653 180.0918
  A 0.80 0.80 0.0 0 0 199.9681 180.8946
  L 200.0321 199.2345
  A 0.80 0.80 0.0 0 0 200.8349 200.0317
  L 219.0147 199.9682
  A 0.80 0.80 0.0 0 0 219.8119 199.1654
  L 219.7479 180.8255"
/>
<path stroke="#f7f7f7" vector-effect="non-scaling-stroke" d="
  M 199.9566 200.3874
  A 0.40 0.40 0.0 0 0 199.5573 199.9867
  L 180.4373 199.9533
  A 0.40 0.40 0.0 0 0 180.0366 200.3526
  L 180.0034 219.3526
  A 0.40 0.40 0.0 0 0 180.4027 219.7533
  L 199.5227 219.7867
  A 0.40 0.40 0.0 0 0 199.9234 219.3874
  L 199.9566 200.3874"
/>
<path stroke="#f7f7f7" vector-effect="non-scaling-stroke" d="
  M 80.0078 200.8923
  A 0.84 0.84 0.0 0 0 79.1722 200.0479
  L 60.9125 199.9523
  A 0.84 0.84 0.0 0 0 60.0681 200.7879
  L 59.9722 219.1077
  A 0.84 0.84 0.0 0 0 60.8078 219.9521
  L 79.0675 220.0477
  A 0.84 0.84 0.0 0 0 79.9119 219.2121
  L 80.0078 200.8923"
/>
<path stroke="#f7f7f7" vector-effect="non-scaling-stroke" d="
  M 159.9559 201.2423
  A 1.20 1.20 0.0 0 0 158.7622 200.0360
  L 141.2425 199.9443
  A 1.20 1.20 0.0 0 0 140.0362 201.1380
  L 139.9441 218.7377
  A 1.20 1.20 0.0 0 0 141.1378 219.9440
  L 158.6575 220.0357
  A 1.20 1.20 0.0 0 0 159.8638 218.8420
  L 159.9559 201.2423"
/>
<path stroke="#f7f7f7" vector-effect="non-scaling-stroke" d="
  M 60.00 227.96
  L 59.70 220.92
  A 0.63 0.55 1.9 0 0 59.13 220.39
  L 51.13 219.67"
/>
<path stroke="#919191" vector-effect="non-scaling-stroke" d="
  M 51.13 219.67
  Q 52.74 214.81 48.30 216.39
  A 0.95 0.75 -7.5 0 0 47.72 216.99
  Q 45.13 229.59 38.90 240.82
  A 1.23 0.89 57.6 0 0 38.85 241.68
  C 41.19 249.46 42.15 240.70 43.22 240.77
  A 0.90 0.50 85.8 0 1 43.74 241.56
  Q 44.84 250.99 48.41 259.78
  A 1.14 0.98 -41.8 0 1 48.28 260.77
  Q 44.02 267.16 38.26 272.27
  A 0.76 0.44 -38.7 0 0 37.97 273.01
  L 39.66 276.08
  A 0.49 0.45 -36.8 0 0 40.40 276.15
  Q 45.87 271.03 50.13 264.87
  A 0.48 0.44 -44.9 0 1 50.90 264.84
  Q 54.88 271.00 60.01 276.24
  A 0.49 0.41 39.2 0 0 60.73 276.23
  L 62.54 273.01
  A 0.97 0.31 42.3 0 0 62.07 272.19
  Q 56.79 267.19 52.94 261.04
  A 1.32 0.61 -60.7 0 1 53.02 260.00
  Q 58.64 246.85 59.25 232.50
  A 1.02 0.62 85.8 0 1 59.68 231.66
  Q 60.75 231.26 61.82 231.66
  A 0.62 0.58 -69.3 0 0 62.59 231.28
  Q 64.04 227.39 60.00 227.96"
/>
<path stroke="#888888" vector-effect="non-scaling-stroke" d="
  M 51.13 219.67
  L 48.95 227.46
  A 0.38 0.38 7.5 0 0 49.32 227.94
  L 60.00 227.96"
/>
<path stroke="#f7f7f7" vector-effect="non-scaling-stroke" d="
  M 73.03 241.67
  Q 67.70 239.33 61.49 240.11
  A 1.71 1.63 -3.8 0 0 60.00 241.74
  L 60.02 259.43
  A 0.64 0.43 -0.0 0 0 60.66 259.86
  L 78.46 259.75"
/>
<path stroke="#919191" vector-effect="non-scaling-stroke" d="
  M 78.46 259.75
  L 78.47 276.01
  A 0.86 0.78 -77.6 0 0 78.89 276.75
  Q 80.73 277.73 82.21 276.39
  A 1.18 1.02 71.0 0 0 82.55 275.54
  Q 81.99 255.06 82.36 234.57
  C 82.45 229.86 85.96 223.64 87.44 218.98
  A 1.02 0.38 -68.9 0 0 87.45 218.05
  Q 86.04 216.81 84.26 216.22
  A 0.74 0.32 -73.7 0 0 83.73 216.85
  Q 80.01 230.15 73.03 241.67"
/>
<path stroke="#888888" vector-effect="non-scaling-stroke" d="
  M 78.46 259.75
  L 78.33 241.21
  Q 78.33 240.67 78.04 241.13
  L 72.98 249.07
  A 0.45 0.34 -47.2 0 1 72.31 249.19
  L 70.57 246.19
  A 1.00 0.42 -53.8 0 1 70.77 245.34
  L 73.03 241.67"
/>
<path stroke="#f7f7f7" vector-effect="non-scaling-stroke" d="
  M 9.46 221.25
  Q 5.33 219.75 1.06 220.47
  A 0.69 0.67 -1.9 0 0 0.50 221.05
  Q -0.13 226.48 1.29 231.75"
/>
<path stroke="#919191" vector-effect="non-scaling-stroke" d="
  M 1.29 231.75
  Q 0.76 234.20 2.95 235.48
  A 0.75 0.67 -52.3 0 0 3.82 235.32
  Q 10.83 227.95 15.36 218.84
  A 0.75 0.52 -61.9 0 0 15.26 217.97
  L 12.93 216.57
  A 0.78 0.52 -59.0 0 0 12.09 216.97
  L 9.46 221.25"
/>
<path stroke="#888888" vector-effect="non-scaling-stroke" d="
  M 1.29 231.75
  Q 6.23 227.17 9.46 221.25"
/>
<path stroke="#919191" vector-effect="non-scaling-stroke" d="
  M 37.7360 243.2051
  A 0.73 0.73 0.0 0 0 37.0034 242.4777
  L 18.4835 242.5423
  A 0.73 0.73 0.0 0 0 17.7561 243.2749
  L 17.7640 245.5549
  A 0.73 0.73 0.0 0 0 18.4966 246.2823
  L 37.0165 246.2177
  A 0.73 0.73 0.0 0 0 37.7439 245.4851
  L 37.7360 243.2051"
/>
<path stroke="#919191" vector-effect="non-scaling-stroke" d="
  M 128.16 245.03
  A 0.28 0.28 0.0 0 0 127.88 244.75
  L 92.04 244.75
  A 0.28 0.28 0.0 0 0 91.76 245.03
  L 91.76 248.31
  A 0.28 0.28 0.0 0 0 92.04 248.59
  L 127.88 248.59
  A 0.28 0.28 0.0 0 0 128.16 248.31
  L 128.16 245.03"
/>
<path stroke="#919191" vector-effect="non-scaling-stroke" d="
  M 31.70 256.31
  Q 31.79 259.62 31.75 262.94
  C 31.73 265.38 30.01 267.88 32.64 270.44
  A 0.62 0.62 -42.8 0 0 33.47 270.47
  L 41.71 263.47
  A 0.84 0.77 60.1 0 0 41.91 262.58
  Q 41.42 261.26 40.45 260.30
  A 0.87 0.43 -42.0 0 0 39.55 260.55
  L 36.07 263.58
  Q 35.50 264.08 35.50 263.25
  L 35.50 252.75
  A 0.75 0.74 89.6 0 0 34.75 252.00
  L 19.00 252.08
  A 0.55 0.40 -89.3 0 0 18.60 252.62
  C 18.57 260.35 19.31 266.31 14.07 270.92
  A 0.95 0.46 -39.7 0 0 13.66 271.83
  L 15.43 274.56
  A 0.72 0.49 -40.3 0 0 16.37 274.46
  C 21.55 269.55 22.76 263.34 22.53 256.30
  A 0.53 0.47 88.8 0 1 23.00 255.75
  L 31.25 255.75
  A 0.57 0.45 89.4 0 1 31.70 256.31"
/>
<path stroke="#f7f7f7" vector-effect="non-scaling-stroke" d="
  M 181.29 59.50
  Q 181.23 58.27 180.26 57.66
  A 0.86 0.84 16.1 0 1 179.85 56.94
  L 179.75 44.71"
/>
<path stroke="#f7f7f7" vector-effect="non-scaling-stroke" d="
  M 121.40 94.10
  Q 119.02 88.58 119.89 82.43
  Q 120.26 79.89 117.59 79.91
  L 101.51 79.98
  A 1.50 1.48 -0.8 0 0 100.02 81.49
  L 100.34 98.93
  A 0.78 0.78 86.4 0 0 101.21 99.70
  Q 105.25 99.24 108.82 101.34"
/>
<path stroke="#f7f7f7" vector-effect="non-scaling-stroke" d="
  M 87.62 81.42
  Q 93.22 79.64 98.98 79.70
  A 0.69 0.45 3.8 0 0 99.64 79.33
  L 100.84 73.27
  A 0.95 0.48 -81.8 0 1 101.38 72.50
  L 102.00 72.46"
/>
<path stroke="#f7f7f7" vector-effect="non-scaling-stroke" d="
  M 119.75 71.46
  L 119.76 77.45
  Q 119.76 79.86 122.24 79.88
  L 138.24 79.95
  A 1.48 1.46 3.5 0 0 139.72 78.66
  Q 140.60 70.93 139.27 62.72"
/>
<path stroke="#888888" vector-effect="non-scaling-stroke" d="
  M 112.21 221.00
  L 110.17 216.70
  A 0.85 0.72 75.2 0 0 109.48 216.22
  Q 105.75 216.24 106.85 219.76"
/>
<path stroke="#888888" vector-effect="non-scaling-stroke" d="
  M 247.13 218.45
  L 246.99 230.52
  A 0.74 0.72 -89.6 0 1 246.27 231.25
  L 239.61 231.25"
/>
<path stroke="#888888" vector-effect="non-scaling-stroke" d="
  M 180.00 228.29
  L 170.29 228.29
  A 0.54 0.46 0.0 0 0 169.75 228.75
  L 169.75 238.75
  A 0.55 0.47 0.0 0 0 170.30 239.22
  L 179.75 239.21"
/>
<path stroke="#888888" vector-effect="non-scaling-stroke" d="
  M 187.29 240.93
  Q 182.05 254.28 170.82 263.16
  A 0.36 0.33 -49.3 0 0 170.84 263.74
  L 179.50 268.46"
/>
<path stroke="#919191" vector-effect="non-scaling-stroke" d="
  M 179.50 268.46
  L 192.75 273.36
  A 0.68 0.37 22.6 0 1 193.26 274.00
  L 192.01 276.24
  A 0.87 0.65 18.8 0 1 191.11 276.53
  Q 178.61 273.51 167.98 266.28
  A 0.96 0.78 44.8 0 0 167.06 266.19
  L 160.00 270.04"
/>
<path stroke="#888888" vector-effect="non-scaling-stroke" d="
  M 160.00 270.04
  Q 151.77 274.03 142.95 276.59
  A 1.08 1.01 -33.7 0 1 142.05 276.44
  Q 140.03 274.96 140.39 272.56"
/>
<path stroke="#888888" vector-effect="non-scaling-stroke" d="
  M 160.00 259.71
  Q 151.27 251.24 147.66 239.65"
/>
<path stroke="#888888" vector-effect="non-scaling-stroke" d="
  M 160.25 239.21
  L 164.98 239.21
  A 0.57 0.47 0.5 0 0 165.55 238.75
  L 165.71 229.00
  A 0.58 0.50 1.7 0 0 165.15 228.49
  L 160.25 228.29"
/>
<path stroke="#888888" vector-effect="non-scaling-stroke" d="
  M 139.47 228.36
  Q 136.37 224.49 141.00 224.46"
/>
<path stroke="#919191" vector-effect="non-scaling-stroke" d="
  M 159.46 253.25
  Q 162.71 257.31 166.87 260.46
  A 0.75 0.70 45.1 0 0 167.73 260.49
  Q 177.10 253.78 182.21 243.47
  A 0.42 0.38 12.5 0 0 181.82 242.92
  L 160.00 242.79"
/>
<path stroke="#888888" vector-effect="non-scaling-stroke" d="
  M 160.00 242.79
  L 153.00 242.94
  A 0.35 0.33 75.5 0 0 152.72 243.45
  Q 155.34 248.86 159.46 253.25"
/>
<path stroke="#f7f7f7" vector-effect="non-scaling-stroke" d="
  M 160.00 242.79
  L 159.46 253.25"
/>
<path stroke="#888888" vector-effect="non-scaling-stroke" d="
  M 120.25 224.21
  L 131.02 224.39
  A 0.92 0.68 -4.1 0 1 131.85 224.92
  Q 132.22 226.38 131.85 227.83
  A 0.92 0.56 3.3 0 1 131.02 228.27
  L 119.25 228.29"
/>
<path stroke="#8d8d8d" vector-effect="non-scaling-stroke" d="
  M 51.04 255.08
  C 53.88 247.99 55.03 240.19 55.54 232.41
  A 0.81 0.78 -88.6 0 0 54.75 231.54
  L 48.94 231.67
  Q 46.29 231.73 46.50 234.52
  Q 47.26 244.99 50.46 255.06
  Q 50.72 255.89 51.04 255.08"
/>
<path stroke="#888888" vector-effect="non-scaling-stroke" d="
  M 212.79 259.50
  L 212.75 276.20
  A 0.78 0.48 -88.8 0 1 212.25 276.98
  L 209.17 276.87
  A 0.85 0.45 -89.7 0 1 208.73 276.03
  L 208.71 260.00"
/>
<path stroke="#919191" vector-effect="non-scaling-stroke" d="
  M 208.71 260.00
  L 208.61 241.22
  Q 208.61 240.46 208.17 241.18
  L 203.36 249.09
  A 0.40 0.34 -48.5 0 1 202.74 249.18
  L 201.21 247.00"
/>
<path stroke="#888888" vector-effect="non-scaling-stroke" d="
  M 201.21 247.00
  Q 200.73 246.07 201.06 245.56
  Q 208.58 234.10 212.75 221.04"
/>
<path stroke="#888888" vector-effect="non-scaling-stroke" d="
  M 250.96 217.25
  L 250.85 230.62
  A 0.54 0.49 1.7 0 0 251.37 231.12
  L 260.02 231.39"
/>
<path stroke="#888888" vector-effect="non-scaling-stroke" d="
  M 260.00 235.06
  L 251.69 235.21
  A 0.59 0.49 -0.1 0 0 251.11 235.69
  L 251.04 239.50"
/>
<path stroke="#888888" vector-effect="non-scaling-stroke" d="
  M 241.29 271.75
  C 248.46 272.54 247.15 263.89 247.03 259.61"
/>
<path stroke="#888888" vector-effect="non-scaling-stroke" d="
  M 246.71 240.00
  L 246.69 235.56
  A 0.49 0.48 -1.1 0 0 246.18 235.08
  L 240.25 235.29"
/>
<path stroke="#888888" vector-effect="non-scaling-stroke" d="
  M 128.25 238.21
  L 128.08 235.29
  A 0.68 0.54 0.4 0 0 127.44 234.78
  L 120.00 234.46"
/>
<path stroke="#f7f7f7" vector-effect="non-scaling-stroke" d="
  M 201.21 247.00
  L 200.41 247.26
  A 0.84 0.49 85.7 0 0 200.05 247.99
  L 199.78 259.25
  A 0.78 0.77 0.8 0 1 199.00 260.00
  L 182.25 260.00
  A 1.75 1.55 -25.6 0 1 181.34 259.74
  C 178.49 257.93 179.74 261.28 179.75 262.35
  Q 179.75 265.40 179.50 268.46"
/>
<path stroke="#888888" vector-effect="non-scaling-stroke" d="
  M 236.75 258.96
  L 229.48 244.20
  A 0.61 0.54 61.8 0 0 228.68 243.91
  L 226.19 245.43
  A 0.72 0.43 63.7 0 0 226.13 246.22
  L 232.05 258.99"
/>
<path stroke="#f7f7f7" vector-effect="non-scaling-stroke" d="
  M 202.44 280.00
  Q 201.06 280.04 200.14 279.31
  A 1.05 0.92 -72.6 0 1 199.78 278.50
  L 199.97 261.24
  A 1.31 1.29 4.8 0 1 201.49 259.98
  Q 205.10 260.56 208.71 260.00"
/>
<path stroke="#f7f7f7" vector-effect="non-scaling-stroke" d="
  M 161.44 280.00
  Q 160.55 279.85 159.91 279.29
  A 1.15 0.72 -76.2 0 1 159.63 278.44
  L 160.00 270.04"
/>
<path stroke="#888888" vector-effect="non-scaling-stroke" d="
  M 127.29 261.00
  L 127.19 273.94
  A 0.59 0.51 89.0 0 1 126.70 274.53
  L 121.29 274.71"
/>
<path stroke="#919191" vector-effect="non-scaling-stroke" d="
  M 123.25 259.09
  A 0.34 0.34 0.0 0 0 122.91 258.75
  L 97.01 258.75
  A 0.34 0.34 0.0 0 0 96.67 259.09
  L 96.67 270.85
  A 0.34 0.34 0.0 0 0 97.01 271.19
  L 122.91 271.19
  A 0.34 0.34 0.0 0 0 123.25 270.85
  L 123.25 259.09"
/>
</g>
<path fill="#ffffff" d="
  M 0.00 0.00
  L 20.45 -0.01
  L 19.91 19.49
  A 0.59 0.50 0.5 0 0 20.50 20.00
  L 38.75 20.00
  A 1.14 1.00 0.0 0 0 39.89 19.00
  L 39.81 0.00
  L 60.77 -0.04
  Q 59.47 8.80 59.95 17.75
  A 1.84 1.61 28.7 0 0 60.28 18.65
  C 62.46 21.70 59.00 19.89 58.14 19.89
  Q 49.36 19.91 40.53 20.19
  A 0.56 0.55 88.9 0 0 40.00 20.75
  L 40.00 38.75
  A 1.11 1.07 -88.0 0 0 40.98 39.84
  L 44.52 40.15
  A 0.99 0.81 75.9 0 1 45.23 40.68
  L 46.54 43.25
  L 41.00 55.04
  Q 40.33 55.33 39.92 55.06
  A 1.03 0.66 -79.2 0 1 39.60 54.26
  L 39.91 41.94
  A 1.90 1.66 -89.3 0 0 38.26 40.00
  L 20.75 40.00
  A 0.75 0.75 0.0 0 0 20.00 40.75
  L 20.00 59.50
  A 0.55 0.43 0.7 0 0 20.54 59.93
  L 39.24 60.39
  Q 37.02 70.08 36.96 79.75
  L 21.43 79.96
  A 1.45 1.28 -0.2 0 0 19.99 81.24
  L 20.00 99.50
  A 0.50 0.47 -0.0 0 0 20.50 99.97
  L 37.50 99.87
  Q 40.04 99.86 40.03 102.25
  L 40.00 119.00
  A 0.66 0.59 6.6 0 0 40.52 119.59
  Q 46.03 120.84 51.21 118.75
  Q 58.88 128.49 63.93 132.06
  Q 67.57 134.64 70.66 137.78
  Q 72.39 139.54 71.75 141.99
  L 66.96 160.50
  L 61.25 160.21
  Q 59.98 159.95 59.93 159.55
  L 60.04 141.45
  A 1.45 1.28 -89.8 0 0 58.76 139.99
  L 40.51 140.00
  A 0.62 0.42 -90.0 0 0 40.09 140.62
  L 40.00 160.00
  L 20.71 160.01
  A 0.74 0.71 90.0 0 0 20.00 160.75
  L 20.00 175.25
  A 1.47 1.12 30.7 0 0 20.35 176.11
  C 21.68 177.67 18.66 178.63 20.54 180.00
  L 19.75 183.79
  Q 19.23 182.81 19.75 181.73
  A 1.29 1.24 11.3 0 0 18.51 179.95
  L -0.02 180.49
  L -0.01 159.58
  Q 9.54 160.37 19.11 159.92
  A 0.61 0.41 -2.0 0 0 19.69 159.50
  L 19.71 141.00
  A 1.05 0.95 89.2 0 0 18.73 139.95
  L -0.02 140.49
  L -0.01 119.59
  Q 9.61 120.31 19.17 120.00
  A 0.83 0.75 89.7 0 0 19.90 119.18
  L 20.02 102.25
  Q 20.04 99.91 17.91 99.97
  L -0.02 100.48
  L -0.01 79.58
  Q 9.65 80.39 19.34 79.89
  A 0.66 0.45 -1.9 0 0 19.97 79.43
  L 19.95 60.68
  A 0.95 0.77 -0.0 0 0 19.00 59.91
  L 1.24 59.96
  A 1.09 0.48 4.6 0 0 0.33 60.28
  L 0.00 60.94
  L -0.01 39.59
  Q 9.70 40.32 19.25 39.99
  A 0.76 0.75 87.0 0 0 19.97 39.18
  Q 19.45 30.60 20.04 21.99
  Q 20.20 19.74 18.01 19.92
  Q 9.61 20.61 1.25 19.84
  A 1.11 0.87 19.4 0 0 0.42 20.12
  Q 0.12 20.44 0.00 20.94
  L 0.00 0.00
  Z
  M 39.9841 120.8926
  A 0.90 0.90 0.0 0 0 39.0825 119.9941
  L 20.8826 120.0259
  A 0.90 0.90 0.0 0 0 19.9841 120.9275
  L 20.0159 139.1274
  A 0.90 0.90 0.0 0 0 20.9175 140.0259
  L 39.1174 139.9941
  A 0.90 0.90 0.0 0 0 40.0159 139.0925
  L 39.9841 120.8926
  Z"
/>
<path fill="#eeeeee" d="
  M 20.45 -0.01
  L 39.81 0.00
  L 39.89 19.00
  A 1.14 1.00 -0.0 0 1 38.75 20.00
  L 20.50 20.00
  A 0.59 0.50 0.5 0 1 19.91 19.49
  L 20.45 -0.01
  Z"
/>
<path fill="#eeeeee" d="
  M 60.77 -0.04
  L 79.31 0.00
  Q 80.64 3.27 80.00 7.50
  Q 79.62 9.99 82.00 11.04
  Q 59.87 22.34 46.54 43.25
  L 45.23 40.68
  A 0.99 0.81 75.9 0 0 44.52 40.15
  L 40.98 39.84
  A 1.11 1.07 -88.0 0 1 40.00 38.75
  L 40.00 20.75
  A 0.56 0.55 88.9 0 1 40.53 20.19
  Q 49.36 19.91 58.14 19.89
  C 59.00 19.89 62.46 21.70 60.28 18.65
  A 1.84 1.61 28.7 0 1 59.95 17.75
  Q 59.47 8.80 60.77 -0.04
  Z"
/>
<path fill="#ffffff" d="
  M 79.31 0.00
  L 124.56 0.00
  Q 102.14 1.21 82.00 11.04
  Q 79.62 9.99 80.00 7.50
  Q 80.64 3.27 79.31 0.00
  Z"
/>
<path fill="#3ab54a" d="
  M 124.56 0.00
  L 136.56 0.00
  Q 159.09 1.35 179.25 11.64
  Q 194.43 19.43 205.67 32.36
  A 0.40 0.40 -33.4 0 1 205.54 32.98
  L 199.50 35.96
  L 195.21 37.75
  L 179.75 44.71
  L 139.27 62.72
  L 119.75 71.46
  C 112.75 74.66 107.96 77.35 102.00 72.46
  L 82.97 58.94
  A 1.22 1.10 55.3 0 0 82.08 58.73
  C 78.21 59.49 78.75 62.07 80.06 64.95
  Q 83.85 73.30 87.62 81.42
  Q 91.84 90.92 96.12 100.09
  C 99.07 106.42 104.48 104.64 108.82 101.34
  L 121.40 94.10
  L 181.29 59.50
  L 201.68 47.86
  L 212.31 41.82
  A 0.50 0.47 -28.1 0 1 212.99 42.00
  L 218.95 53.80
  L 220.52 58.88
  Q 223.68 69.73 223.26 81.17
  Q 222.48 90.08 219.92 98.82
  L 217.96 103.75
  Q 214.05 112.10 208.54 119.50
  L 198.74 130.19
  L 187.94 138.57
  L 178.75 143.79
  Q 169.32 148.30 159.62 151.14
  Q 149.17 153.87 138.75 154.79
  Q 129.36 155.39 120.00 154.54
  Q 109.58 153.60 99.50 150.79
  C 93.51 149.45 83.75 156.62 73.75 162.54
  C 70.91 164.22 67.07 165.74 66.96 160.50
  L 71.75 141.99
  Q 72.39 139.54 70.66 137.78
  Q 67.57 134.64 63.93 132.06
  Q 58.88 128.49 51.21 118.75
  Q 38.37 101.39 36.96 79.75
  Q 37.02 70.08 39.24 60.39
  L 41.00 55.04
  L 46.54 43.25
  Q 59.87 22.34 82.00 11.04
  Q 102.14 1.21 124.56 0.00
  Z"
/>
<path fill="#ffffff" d="
  M 136.56 0.00
  L 181.31 0.00
  L 180.62 0.31
  A 0.78 0.65 -15.8 0 0 180.17 0.97
  Q 180.38 6.26 179.25 11.64
  Q 159.09 1.35 136.56 0.00
  Z"
/>
<path fill="#eeeeee" d="
  M 181.31 0.00
  L 199.81 0.00
  Q 200.31 9.25 199.66 18.51
  A 1.23 1.10 -87.6 0 0 200.74 19.82
  L 219.00 19.96
  A 0.99 0.79 0.0 0 1 219.99 20.75
  L 219.98 38.49
  A 1.49 1.46 89.8 0 1 218.53 39.98
  C 215.99 40.00 201.72 40.69 200.27 39.17
  Q 199.21 38.06 199.50 35.96
  L 205.54 32.98
  A 0.40 0.40 -33.4 0 0 205.67 32.36
  Q 194.43 19.43 179.25 11.64
  Q 180.38 6.26 180.17 0.97
  A 0.78 0.65 -15.8 0 1 180.62 0.31
  L 181.31 0.00
  Z"
/>
<path fill="#ffffff" d="
  M 199.81 0.00
  L 220.45 -0.01
  Q 219.75 9.71 220.06 19.46
  A 0.56 0.44 88.7 0 0 220.50 20.00
  L 238.75 20.00
  A 1.14 1.05 0.0 0 0 239.89 18.95
  L 239.81 0.00
  L 260.00 0.00
  L 260.01 20.43
  Q 250.26 19.57 240.86 20.21
  A 0.92 0.78 -2.3 0 0 240.00 21.00
  L 240.00 39.50
  A 0.55 0.45 0.0 0 0 240.55 39.95
  L 260.00 39.81
  L 260.01 60.41
  Q 250.68 59.70 241.23 60.03
  A 1.28 1.21 -1.0 0 0 239.99 61.24
  L 240.00 79.50
  A 0.53 0.48 -0.6 0 0 240.54 79.98
  L 260.01 79.68
  L 260.01 100.41
  Q 250.68 99.70 241.24 100.02
  A 1.30 1.22 -1.2 0 0 239.99 101.24
  L 240.00 119.50
  A 0.53 0.48 -0.6 0 0 240.54 119.98
  L 260.01 119.68
  L 260.01 140.40
  L 241.05 140.22
  A 1.04 1.03 0.3 0 0 240.00 141.25
  L 240.00 159.50
  A 0.53 0.48 -0.6 0 0 240.54 159.98
  L 260.01 159.68
  L 260.01 180.41
  L 240.73 180.15
  A 0.85 0.73 -89.7 0 0 239.99 181.00
  L 240.00 199.50
  A 0.53 0.48 -0.6 0 0 240.54 199.98
  L 260.01 199.68
  L 260.04 220.94
  Q 257.00 219.54 254.04 220.00
  Q 250.62 220.54 250.96 217.25
  C 250.13 215.73 246.20 215.48 247.13 218.45
  Q 244.61 221.65 240.53 220.06
  A 0.88 0.84 -79.8 0 1 240.00 219.25
  L 240.00 200.75
  A 0.75 0.75 0.0 0 0 239.25 200.00
  L 220.99 199.99
  A 1.01 1.01 0.2 0 0 219.98 201.00
  L 219.84 219.31
  A 1.14 0.77 -0.4 0 0 221.00 220.08
  L 239.18 219.81
  A 0.79 0.78 -2.6 0 1 239.99 220.54
  Q 240.31 225.77 239.61 231.25
  L 219.05 231.25
  A 0.76 0.47 -1.2 0 0 218.27 231.75
  L 218.49 234.75
  A 0.77 0.55 -1.5 0 0 219.24 235.26
  L 240.25 235.29
  C 238.51 241.49 243.68 239.30 246.71 240.00
  L 247.03 259.61
  Q 243.97 260.54 240.81 260.31
  A 0.58 0.55 6.8 0 0 240.21 260.76
  Q 239.09 266.49 241.29 271.75
  L 239.30 272.06
  A 0.64 0.41 -5.8 0 0 238.75 272.50
  L 238.75 275.25
  A 0.60 0.48 3.9 0 0 239.28 275.74
  C 250.89 277.19 251.66 269.60 250.80 260.75
  Q 250.25 255.17 251.04 239.50
  L 258.50 239.94
  A 1.00 0.76 15.9 0 0 259.32 239.62
  Q 259.95 238.75 260.00 237.56
  L 260.00 280.00
  L 219.56 280.00
  L 219.88 260.56
  A 0.48 0.46 -87.2 0 1 220.38 260.09
  Q 226.27 260.51 232.05 258.99
  Q 232.32 259.80 232.89 260.41
  A 0.71 0.66 54.1 0 0 233.71 260.57
  L 236.75 258.96
  C 238.37 260.01 239.63 260.18 239.72 257.82
  Q 240.08 249.30 239.89 241.03
  A 1.12 1.10 -1.3 0 0 238.75 239.96
  L 220.94 240.18
  A 0.69 0.58 -0.1 0 0 220.26 240.75
  L 220.01 259.00
  A 0.77 0.72 84.8 0 1 219.44 259.73
  Q 215.98 260.48 212.79 259.50
  Q 212.72 247.40 212.75 235.28
  C 212.76 230.16 216.40 223.60 217.46 220.18
  Q 218.43 217.01 214.99 216.39
  A 0.92 0.81 -75.3 0 0 214.05 217.02
  L 212.75 221.04
  Q 206.74 219.77 200.93 220.13
  A 0.93 0.93 -2.3 0 0 200.06 221.07
  L 200.10 239.50
  A 0.62 0.49 -89.6 0 1 199.60 240.12
  C 195.92 240.11 190.56 239.21 187.29 240.93
  Q 183.56 238.50 179.75 239.21
  L 180.00 228.29
  L 196.46 228.24
  A 0.65 0.42 -1.0 0 0 197.11 227.81
  L 197.01 224.99
  A 0.76 0.50 -0.3 0 0 196.25 224.50
  L 170.50 224.50
  A 0.75 0.53 -1.1 0 1 169.76 224.00
  L 169.44 217.01
  A 1.00 0.26 88.4 0 0 169.18 216.10
  Q 167.81 215.66 166.43 215.86
  A 0.88 0.64 88.0 0 0 165.87 216.68
  L 165.69 223.75
  A 0.60 0.41 0.5 0 1 165.09 224.15
  L 141.00 224.46
  Q 139.86 222.72 140.05 221.11
  A 1.04 1.01 2.7 0 0 139.00 219.99
  L 120.50 220.33
  A 0.48 0.47 -2.3 0 0 120.03 220.83
  L 120.25 224.21
  L 113.06 224.42
  A 0.43 0.40 -87.5 0 1 112.65 223.94
  Q 112.85 222.42 112.21 221.00
  Q 113.07 219.07 114.74 219.84
  A 1.29 1.12 44.3 0 0 115.65 219.89
  Q 117.47 219.24 119.24 219.60
  A 0.43 0.37 6.8 0 0 119.76 219.25
  L 119.90 200.50
  A 0.65 0.50 -0.0 0 0 119.25 200.00
  L 101.50 200.00
  A 1.52 1.51 0.2 0 0 99.98 201.50
  L 99.90 218.94
  A 1.11 1.10 -6.2 0 0 101.26 220.02
  Q 104.13 219.37 106.85 219.76
  L 108.82 223.74
  A 0.36 0.35 -13.0 0 1 108.50 224.25
  L 89.25 224.25
  A 1.01 0.49 0.0 0 0 88.24 224.74
  L 88.25 227.75
  A 0.80 0.50 0.0 0 0 89.05 228.25
  L 119.25 228.29
  Q 120.52 231.25 120.00 234.46
  Q 100.40 234.88 94.74 234.49
  Q 90.35 234.18 92.03 238.17
  A 0.75 0.72 -11.5 0 0 92.73 238.61
  C 97.27 238.44 127.88 238.56 128.25 238.21
  Q 128.82 238.47 129.11 238.97
  A 1.04 0.51 66.2 0 0 129.75 239.51
  L 138.99 239.96
  A 0.66 0.58 -84.4 0 0 139.61 239.38
  Q 140.35 233.70 139.47 228.36
  L 160.25 228.29
  Q 159.69 233.75 160.25 239.21
  L 147.66 239.65
  Q 144.84 240.29 140.98 239.91
  A 0.89 0.85 3.1 0 0 140.00 240.75
  L 140.00 259.50
  A 0.53 0.44 -0.6 0 0 140.54 259.94
  L 160.00 259.71
  L 163.62 263.07
  A 0.42 0.41 50.8 0 1 163.56 263.73
  Q 152.76 270.16 140.39 272.56
  Q 140.15 272.50 139.93 272.31
  A 1.17 0.44 -83.6 0 1 139.71 271.44
  L 139.93 260.75
  A 0.72 0.55 4.2 0 0 139.28 260.17
  Q 133.11 259.45 127.29 261.00
  L 127.05 255.51
  A 0.55 0.53 -1.1 0 0 126.50 255.00
  L 93.75 255.01
  A 1.02 0.98 0.0 0 0 92.73 255.99
  L 92.70 274.06
  A 0.62 0.48 90.0 0 0 93.18 274.68
  L 121.29 274.71
  Q 122.52 275.88 122.26 277.60
  A 0.58 0.56 -76.4 0 0 122.63 278.24
  Q 126.96 279.62 131.44 280.00
  L 0.00 280.00
  L 0.00 252.69
  Q 0.64 254.34 2.03 255.48
  A 0.52 0.49 -49.9 0 0 2.73 255.40
  L 7.03 250.34
  Q 7.51 249.77 7.51 250.50
  L 7.50 276.00
  A 0.94 0.55 -85.9 0 0 7.92 276.85
  Q 9.36 277.26 10.75 276.73
  A 0.78 0.78 79.7 0 0 11.25 276.00
  Q 11.25 261.17 11.25 246.32
  C 11.25 242.32 13.35 239.13 15.08 235.69
  A 0.96 0.49 -62.5 0 0 15.09 234.66
  L 12.31 232.90
  A 0.74 0.46 -65.5 0 0 11.52 233.42
  Q 7.49 243.93 0.00 252.19
  L -0.01 199.54
  Q 9.54 200.40 19.12 199.92
  A 0.54 0.54 -0.6 0 0 19.64 199.39
  L 19.75 183.79
  L 20.54 180.00
  L 39.18 179.69
  A 0.53 0.50 -0.0 0 0 39.71 179.19
  L 40.00 160.00
  Q 50.05 160.33 59.93 159.55
  Q 59.98 159.95 61.25 160.21
  C 60.41 160.06 60.01 160.33 60.01 161.20
  Q 59.97 170.31 60.03 179.47
  A 0.53 0.47 -90.0 0 0 60.50 180.00
  L 79.50 180.00
  A 0.50 0.50 0.0 0 1 80.00 180.50
  L 80.00 199.50
  A 0.50 0.50 0.0 0 0 80.50 200.00
  L 99.25 200.00
  A 0.69 0.57 90.0 0 0 99.82 199.31
  L 99.86 181.50
  A 1.60 1.48 0.2 0 0 98.26 180.01
  L 80.50 180.00
  A 0.52 0.48 -89.4 0 1 80.02 179.47
  Q 80.10 171.01 79.86 162.50
  C 79.77 159.64 81.18 157.91 84.11 159.48
  Q 84.45 159.67 85.00 159.68
  L 98.50 160.01
  A 1.17 1.14 4.3 0 0 99.69 159.01
  Q 100.18 155.15 99.50 150.79
  Q 109.58 153.60 120.00 154.54
  Q 120.53 156.00 119.97 157.50
  Q 119.06 159.96 121.51 159.84
  L 139.00 159.06
  Q 140.52 158.99 139.46 157.57
  Q 138.51 156.29 138.75 154.79
  Q 149.17 153.87 159.62 151.14
  L 160.23 159.29
  A 0.65 0.51 88.1 0 0 160.74 159.89
  L 179.00 159.97
  A 0.73 0.48 0.4 0 0 179.73 159.50
  L 180.07 145.75
  A 1.28 0.42 45.4 0 0 179.68 144.96
  L 178.75 143.79
  L 187.94 138.57
  Q 193.36 140.78 199.20 139.58
  A 0.67 0.66 84.1 0 1 200.00 140.24
  L 200.00 159.50
  A 0.50 0.50 0.0 0 0 200.50 160.00
  L 219.00 160.00
  A 0.69 0.51 0.4 0 0 219.69 159.50
  L 219.95 140.81
  A 0.95 0.81 0.3 0 0 219.00 139.99
  L 200.32 139.98
  A 0.60 0.57 1.8 0 1 199.72 139.37
  Q 200.01 134.79 198.74 130.19
  L 208.54 119.50
  C 210.82 118.88 213.16 119.74 214.83 119.81
  Q 217.01 119.91 219.22 119.96
  A 0.52 0.46 0.6 0 0 219.75 119.50
  L 219.75 106.25
  A 1.08 0.74 25.1 0 0 219.32 105.52
  Q 218.39 104.79 217.96 103.75
  L 219.92 98.82
  Q 229.60 100.83 239.33 99.91
  A 0.67 0.60 -3.2 0 0 239.93 99.31
  L 239.93 81.18
  A 1.23 1.22 -87.4 0 0 238.82 79.96
  Q 231.24 79.23 223.26 81.17
  Q 223.68 69.73 220.52 58.88
  Q 229.67 60.67 239.13 59.95
  A 0.89 0.76 -2.4 0 0 239.96 59.18
  L 239.90 40.49
  A 0.65 0.49 0.0 0 0 239.25 40.00
  L 221.49 40.00
  A 1.59 1.58 84.4 0 0 219.94 41.89
  Q 221.13 47.98 218.95 53.80
  L 212.99 42.00
  A 0.50 0.47 -28.1 0 0 212.31 41.82
  L 201.68 47.86
  Q 199.04 45.46 199.89 41.73
  A 0.94 0.42 -76.7 0 0 199.70 40.75
  L 196.49 39.76
  A 1.08 0.19 15.3 0 1 195.68 39.38
  Q 195.22 38.63 195.21 37.75
  L 199.50 35.96
  Q 199.21 38.06 200.27 39.17
  C 201.72 40.69 215.99 40.00 218.53 39.98
  A 1.49 1.46 89.8 0 0 219.98 38.49
  L 219.99 20.75
  A 0.99 0.79 0.0 0 0 219.00 19.96
  L 200.74 19.82
  A 1.23 1.10 -87.6 0 1 199.66 18.51
  Q 200.31 9.25 199.81 0.00
  Z
  M 240.0178 120.9023
  A 0.85 0.85 0.0 0 0 239.1722 120.0478
  L 220.9525 119.9524
  A 0.85 0.85 0.0 0 0 220.0980 120.7980
  L 220.0022 139.0977
  A 0.85 0.85 0.0 0 0 220.8478 139.9522
  L 239.0675 140.0476
  A 0.85 0.85 0.0 0 0 239.9220 139.2020
  L 240.0178 120.9023
  Z
  M 160.0040 160.2249
  A 0.27 0.27 0.0 0 0 159.7350 159.9540
  L 140.2951 159.8861
  A 0.27 0.27 0.0 0 0 140.0242 160.1552
  L 139.9560 179.6951
  A 0.27 0.27 0.0 0 0 140.2250 179.9660
  L 159.6649 180.0339
  A 0.27 0.27 0.0 0 0 159.9358 179.7648
  L 160.0040 160.2249
  Z
  M 120.0219 160.8950
  A 0.83 0.83 0.0 0 0 119.1948 160.0621
  L 100.8549 159.9981
  A 0.83 0.83 0.0 0 0 100.0220 160.8251
  L 99.9581 179.1450
  A 0.83 0.83 0.0 0 0 100.7852 179.9779
  L 119.1251 180.0419
  A 0.83 0.83 0.0 0 0 119.9580 179.2149
  L 120.0219 160.8950
  Z
  M 199.9858 161.0074
  A 0.99 0.99 0.0 0 0 198.9975 160.0157
  L 181.0375 159.9843
  A 0.99 0.99 0.0 0 0 180.0458 160.9726
  L 180.0142 179.0726
  A 0.99 0.99 0.0 0 0 181.0025 180.0643
  L 198.9625 180.0957
  A 0.99 0.99 0.0 0 0 199.9542 179.1074
  L 199.9858 161.0074
  Z
  M 220.49 176.89
  Q 219.75 178.24 220.29 179.53
  A 0.78 0.74 -10.7 0 0 221.00 179.99
  L 239.19 179.81
  A 0.66 0.50 -0.0 0 0 239.85 179.31
  L 239.89 160.49
  A 0.64 0.48 0.4 0 0 239.25 160.00
  L 220.75 160.00
  A 0.75 0.75 0.0 0 0 220.00 160.75
  L 220.00 176.00
  A 0.48 0.12 44.3 0 0 220.19 176.31
  L 220.30 176.44
  A 0.52 0.21 45.2 0 1 220.49 176.89
  Z
  M 26.21 219.75
  L 26.22 232.46
  A 0.54 0.47 90.0 0 1 25.75 233.00
  L 21.00 233.00
  A 0.50 0.50 0.0 0 1 20.50 232.50
  L 20.49 222.75
  A 0.98 0.31 -89.6 0 0 20.19 221.79
  L 17.20 221.62
  A 0.86 0.43 -89.2 0 0 16.75 222.50
  L 16.75 236.25
  A 0.75 0.49 -0.0 0 0 17.50 236.74
  L 38.50 236.68
  A 0.76 0.68 -0.4 0 0 39.25 236.00
  L 39.25 222.50
  A 0.75 0.50 90.0 0 0 38.75 221.75
  L 36.00 221.75
  A 0.51 0.35 -89.2 0 0 35.65 222.25
  L 35.49 232.25
  A 0.76 0.49 -89.5 0 1 35.00 233.00
  L 30.50 233.00
  A 0.76 0.48 -90.0 0 1 30.02 232.24
  L 30.04 220.00
  L 38.18 220.01
  A 1.59 1.52 0.4 0 0 39.77 218.51
  L 39.97 200.50
  A 0.53 0.50 -0.0 0 1 40.50 200.00
  L 59.00 200.00
  A 0.68 0.51 0.4 0 0 59.68 199.50
  L 59.98 181.00
  A 1.00 0.97 -90.0 0 0 59.00 179.99
  L 40.75 180.25
  A 0.76 0.75 -0.4 0 0 40.00 181.00
  L 40.00 199.50
  A 0.50 0.50 0.0 0 1 39.50 200.00
  L 21.00 200.00
  A 0.85 0.72 1.4 0 0 20.16 200.68
  Q 19.66 209.49 20.44 218.25
  A 1.96 1.83 -3.6 0 0 22.47 219.92
  L 26.21 219.75
  Z
  M 139.9458 180.9374
  A 0.90 0.90 0.0 0 0 139.0474 180.0358
  L 120.9074 180.0042
  A 0.90 0.90 0.0 0 0 120.0059 180.9026
  L 119.9742 199.0826
  A 0.90 0.90 0.0 0 0 120.8726 199.9842
  L 139.0126 200.0158
  A 0.90 0.90 0.0 0 0 139.9141 199.1174
  L 139.9458 180.9374
  Z
  M 179.9658 180.9574
  A 0.94 0.94 0.0 0 0 179.0274 180.0158
  L 160.9475 179.9842
  A 0.94 0.94 0.0 0 0 160.0058 180.9226
  L 159.9742 199.0426
  A 0.94 0.94 0.0 0 0 160.9126 199.9842
  L 178.9925 200.0158
  A 0.94 0.94 0.0 0 0 179.9342 199.0774
  L 179.9658 180.9574
  Z
  M 219.7479 180.8255
  A 0.80 0.80 0.0 0 0 218.9451 180.0283
  L 200.7653 180.0918
  A 0.80 0.80 0.0 0 0 199.9681 180.8946
  L 200.0321 199.2345
  A 0.80 0.80 0.0 0 0 200.8349 200.0317
  L 219.0147 199.9682
  A 0.80 0.80 0.0 0 0 219.8119 199.1654
  L 219.7479 180.8255
  Z
  M 199.9566 200.3874
  A 0.40 0.40 0.0 0 0 199.5573 199.9867
  L 180.4373 199.9533
  A 0.40 0.40 0.0 0 0 180.0366 200.3526
  L 180.0034 219.3526
  A 0.40 0.40 0.0 0 0 180.4027 219.7533
  L 199.5227 219.7867
  A 0.40 0.40 0.0 0 0 199.9234 219.3874
  L 199.9566 200.3874
  Z
  M 80.0078 200.8923
  A 0.84 0.84 0.0 0 0 79.1722 200.0479
  L 60.9125 199.9523
  A 0.84 0.84 0.0 0 0 60.0681 200.7879
  L 59.9722 219.1077
  A 0.84 0.84 0.0 0 0 60.8078 219.9521
  L 79.0675 220.0477
  A 0.84 0.84 0.0 0 0 79.9119 219.2121
  L 80.0078 200.8923
  Z
  M 159.9559 201.2423
  A 1.20 1.20 0.0 0 0 158.7622 200.0360
  L 141.2425 199.9443
  A 1.20 1.20 0.0 0 0 140.0362 201.1380
  L 139.9441 218.7377
  A 1.20 1.20 0.0 0 0 141.1378 219.9440
  L 158.6575 220.0357
  A 1.20 1.20 0.0 0 0 159.8638 218.8420
  L 159.9559 201.2423
  Z
  M 60.00 227.96
  L 59.70 220.92
  A 0.63 0.55 1.9 0 0 59.13 220.39
  L 51.13 219.67
  Q 52.74 214.81 48.30 216.39
  A 0.95 0.75 -7.5 0 0 47.72 216.99
  Q 45.13 229.59 38.90 240.82
  A 1.23 0.89 57.6 0 0 38.85 241.68
  C 41.19 249.46 42.15 240.70 43.22 240.77
  A 0.90 0.50 85.8 0 1 43.74 241.56
  Q 44.84 250.99 48.41 259.78
  A 1.14 0.98 -41.8 0 1 48.28 260.77
  Q 44.02 267.16 38.26 272.27
  A 0.76 0.44 -38.7 0 0 37.97 273.01
  L 39.66 276.08
  A 0.49 0.45 -36.8 0 0 40.40 276.15
  Q 45.87 271.03 50.13 264.87
  A 0.48 0.44 -44.9 0 1 50.90 264.84
  Q 54.88 271.00 60.01 276.24
  A 0.49 0.41 39.2 0 0 60.73 276.23
  L 62.54 273.01
  A 0.97 0.31 42.3 0 0 62.07 272.19
  Q 56.79 267.19 52.94 261.04
  A 1.32 0.61 -60.7 0 1 53.02 260.00
  Q 58.64 246.85 59.25 232.50
  A 1.02 0.62 85.8 0 1 59.68 231.66
  Q 60.75 231.26 61.82 231.66
  A 0.62 0.58 -69.3 0 0 62.59 231.28
  Q 64.04 227.39 60.00 227.96
  Z
  M 73.03 241.67
  Q 67.70 239.33 61.49 240.11
  A 1.71 1.63 -3.8 0 0 60.00 241.74
  L 60.02 259.43
  A 0.64 0.43 -0.0 0 0 60.66 259.86
  L 78.46 259.75
  L 78.47 276.01
  A 0.86 0.78 -77.6 0 0 78.89 276.75
  Q 80.73 277.73 82.21 276.39
  A 1.18 1.02 71.0 0 0 82.55 275.54
  Q 81.99 255.06 82.36 234.57
  C 82.45 229.86 85.96 223.64 87.44 218.98
  A 1.02 0.38 -68.9 0 0 87.45 218.05
  Q 86.04 216.81 84.26 216.22
  A 0.74 0.32 -73.7 0 0 83.73 216.85
  Q 80.01 230.15 73.03 241.67
  Z
  M 9.46 221.25
  Q 5.33 219.75 1.06 220.47
  A 0.69 0.67 -1.9 0 0 0.50 221.05
  Q -0.13 226.48 1.29 231.75
  Q 0.76 234.20 2.95 235.48
  A 0.75 0.67 -52.3 0 0 3.82 235.32
  Q 10.83 227.95 15.36 218.84
  A 0.75 0.52 -61.9 0 0 15.26 217.97
  L 12.93 216.57
  A 0.78 0.52 -59.0 0 0 12.09 216.97
  L 9.46 221.25
  Z
  M 37.7360 243.2051
  A 0.73 0.73 0.0 0 0 37.0034 242.4777
  L 18.4835 242.5423
  A 0.73 0.73 0.0 0 0 17.7561 243.2749
  L 17.7640 245.5549
  A 0.73 0.73 0.0 0 0 18.4966 246.2823
  L 37.0165 246.2177
  A 0.73 0.73 0.0 0 0 37.7439 245.4851
  L 37.7360 243.2051
  Z
  M 128.16 245.03
  A 0.28 0.28 0.0 0 0 127.88 244.75
  L 92.04 244.75
  A 0.28 0.28 0.0 0 0 91.76 245.03
  L 91.76 248.31
  A 0.28 0.28 0.0 0 0 92.04 248.59
  L 127.88 248.59
  A 0.28 0.28 0.0 0 0 128.16 248.31
  L 128.16 245.03
  Z
  M 31.70 256.31
  Q 31.79 259.62 31.75 262.94
  C 31.73 265.38 30.01 267.88 32.64 270.44
  A 0.62 0.62 -42.8 0 0 33.47 270.47
  L 41.71 263.47
  A 0.84 0.77 60.1 0 0 41.91 262.58
  Q 41.42 261.26 40.45 260.30
  A 0.87 0.43 -42.0 0 0 39.55 260.55
  L 36.07 263.58
  Q 35.50 264.08 35.50 263.25
  L 35.50 252.75
  A 0.75 0.74 89.6 0 0 34.75 252.00
  L 19.00 252.08
  A 0.55 0.40 -89.3 0 0 18.60 252.62
  C 18.57 260.35 19.31 266.31 14.07 270.92
  A 0.95 0.46 -39.7 0 0 13.66 271.83
  L 15.43 274.56
  A 0.72 0.49 -40.3 0 0 16.37 274.46
  C 21.55 269.55 22.76 263.34 22.53 256.30
  A 0.53 0.47 88.8 0 1 23.00 255.75
  L 31.25 255.75
  A 0.57 0.45 89.4 0 1 31.70 256.31
  Z"
/>
<path fill="#eeeeee" d="
  M 220.45 -0.01
  L 239.81 0.00
  L 239.89 18.95
  A 1.14 1.05 0.0 0 1 238.75 20.00
  L 220.50 20.00
  A 0.56 0.44 88.7 0 1 220.06 19.46
  Q 219.75 9.71 220.45 -0.01
  Z"
/>
<path fill="#eeeeee" d="
  M -0.01 39.59
  L 0.00 20.94
  Q 0.12 20.44 0.42 20.12
  A 1.11 0.87 19.4 0 1 1.25 19.84
  Q 9.61 20.61 18.01 19.92
  Q 20.20 19.74 20.04 21.99
  Q 19.45 30.60 19.97 39.18
  A 0.76 0.75 87.0 0 1 19.25 39.99
  Q 9.70 40.32 -0.01 39.59
  Z"
/>
<path fill="#eeeeee" d="
  M 260.01 20.43
  L 260.00 39.81
  L 240.55 39.95
  A 0.55 0.45 -0.0 0 1 240.00 39.50
  L 240.00 21.00
  A 0.92 0.78 -2.3 0 1 240.86 20.21
  Q 250.26 19.57 260.01 20.43
  Z"
/>
<path fill="#eeeeee" d="
  M 195.21 37.75
  Q 195.22 38.63 195.68 39.38
  A 1.08 0.19 15.3 0 0 196.49 39.76
  L 199.70 40.75
  A 0.94 0.42 -76.7 0 1 199.89 41.73
  Q 199.04 45.46 201.68 47.86
  L 181.29 59.50
  Q 181.23 58.27 180.26 57.66
  A 0.86 0.84 16.1 0 1 179.85 56.94
  L 179.75 44.71
  L 195.21 37.75
  Z"
/>
<path fill="#eeeeee" d="
  M 41.00 55.04
  L 39.24 60.39
  L 20.54 59.93
  A 0.55 0.43 0.7 0 1 20.00 59.50
  L 20.00 40.75
  A 0.75 0.75 0.0 0 1 20.75 40.00
  L 38.26 40.00
  A 1.90 1.66 -89.3 0 1 39.91 41.94
  L 39.60 54.26
  A 1.03 0.66 -79.2 0 0 39.92 55.06
  Q 40.33 55.33 41.00 55.04
  Z"
/>
<path fill="#eeeeee" d="
  M 220.52 58.88
  L 218.95 53.80
  Q 221.13 47.98 219.94 41.89
  A 1.59 1.58 84.4 0 1 221.49 40.00
  L 239.25 40.00
  A 0.65 0.49 0.0 0 1 239.90 40.49
  L 239.96 59.18
  A 0.89 0.76 -2.4 0 1 239.13 59.95
  Q 229.67 60.67 220.52 58.88
  Z"
/>
<path fill="#ffffff" d="
  M 179.75 44.71
  L 179.85 56.94
  A 0.86 0.84 16.1 0 0 180.26 57.66
  Q 181.23 58.27 181.29 59.50
  L 121.40 94.10
  Q 119.02 88.58 119.89 82.43
  Q 120.26 79.89 117.59 79.91
  L 101.51 79.98
  A 1.50 1.48 -0.8 0 0 100.02 81.49
  L 100.34 98.93
  A 0.78 0.78 86.4 0 0 101.21 99.70
  Q 105.25 99.24 108.82 101.34
  C 104.48 104.64 99.07 106.42 96.12 100.09
  Q 91.84 90.92 87.62 81.42
  Q 93.22 79.64 98.98 79.70
  A 0.69 0.45 3.8 0 0 99.64 79.33
  L 100.84 73.27
  A 0.95 0.48 -81.8 0 1 101.38 72.50
  L 102.00 72.46
  C 107.96 77.35 112.75 74.66 119.75 71.46
  L 119.76 77.45
  Q 119.76 79.86 122.24 79.88
  L 138.24 79.95
  A 1.48 1.46 3.5 0 0 139.72 78.66
  Q 140.60 70.93 139.27 62.72
  L 179.75 44.71
  Z"
/>
<path fill="#eeeeee" d="
  M 102.00 72.46
  L 101.38 72.50
  A 0.95 0.48 -81.8 0 0 100.84 73.27
  L 99.64 79.33
  A 0.69 0.45 3.8 0 1 98.98 79.70
  Q 93.22 79.64 87.62 81.42
  Q 83.85 73.30 80.06 64.95
  C 78.75 62.07 78.21 59.49 82.08 58.73
  A 1.22 1.10 55.3 0 1 82.97 58.94
  L 102.00 72.46
  Z"
/>
<path fill="#eeeeee" d="
  M -0.01 79.58
  L 0.00 60.94
  L 0.33 60.28
  A 1.09 0.48 4.6 0 1 1.24 59.96
  L 19.00 59.91
  A 0.95 0.77 -0.0 0 1 19.95 60.68
  L 19.97 79.43
  A 0.66 0.45 -1.9 0 1 19.34 79.89
  Q 9.65 80.39 -0.01 79.58
  Z"
/>
<path fill="#eeeeee" d="
  M 260.01 60.41
  L 260.01 79.68
  L 240.54 79.98
  A 0.53 0.48 -0.6 0 1 240.00 79.50
  L 239.99 61.24
  A 1.28 1.21 -1.0 0 1 241.23 60.03
  Q 250.68 59.70 260.01 60.41
  Z"
/>
<path fill="#eeeeee" d="
  M 139.27 62.72
  Q 140.60 70.93 139.72 78.66
  A 1.48 1.46 3.5 0 1 138.24 79.95
  L 122.24 79.88
  Q 119.76 79.86 119.76 77.45
  L 119.75 71.46
  L 139.27 62.72
  Z"
/>
<path fill="#eeeeee" d="
  M 36.96 79.75
  Q 38.37 101.39 51.21 118.75
  Q 46.03 120.84 40.52 119.59
  A 0.66 0.59 6.6 0 1 40.00 119.00
  L 40.03 102.25
  Q 40.04 99.86 37.50 99.87
  L 20.50 99.97
  A 0.50 0.47 -0.0 0 1 20.00 99.50
  L 19.99 81.24
  A 1.45 1.28 -0.2 0 1 21.43 79.96
  L 36.96 79.75
  Z"
/>
<path fill="#eeeeee" d="
  M 121.40 94.10
  L 108.82 101.34
  Q 105.25 99.24 101.21 99.70
  A 0.78 0.78 86.4 0 1 100.34 98.93
  L 100.02 81.49
  A 1.50 1.48 -0.8 0 1 101.51 79.98
  L 117.59 79.91
  Q 120.26 79.89 119.89 82.43
  Q 119.02 88.58 121.40 94.10
  Z"
/>
<path fill="#eeeeee" d="
  M 219.92 98.82
  Q 222.48 90.08 223.26 81.17
  Q 231.24 79.23 238.82 79.96
  A 1.23 1.22 -87.4 0 1 239.93 81.18
  L 239.93 99.31
  A 0.67 0.60 -3.2 0 1 239.33 99.91
  Q 229.60 100.83 219.92 98.82
  Z"
/>
<path fill="#eeeeee" d="
  M -0.01 119.59
  L -0.02 100.48
  L 17.91 99.97
  Q 20.04 99.91 20.02 102.25
  L 19.90 119.18
  A 0.83 0.75 89.7 0 1 19.17 120.00
  Q 9.61 120.31 -0.01 119.59
  Z"
/>
<path fill="#eeeeee" d="
  M 260.01 100.41
  L 260.01 119.68
  L 240.54 119.98
  A 0.53 0.48 -0.6 0 1 240.00 119.50
  L 239.99 101.24
  A 1.30 1.22 -1.2 0 1 241.24 100.02
  Q 250.68 99.70 260.01 100.41
  Z"
/>
<path fill="#eeeeee" d="
  M 217.96 103.75
  Q 218.39 104.79 219.32 105.52
  A 1.08 0.74 25.1 0 1 219.75 106.25
  L 219.75 119.50
  A 0.52 0.46 0.6 0 1 219.22 119.96
  Q 217.01 119.91 214.83 119.81
  C 213.16 119.74 210.82 118.88 208.54 119.50
  Q 214.05 112.10 217.96 103.75
  Z"
/>
<rect fill="#eeeeee" x="-10.00" y="-10.00" transform="translate(30.00,130.01) rotate(-0.1)" width="20.00" height="20.00" rx="0.90"/>
<rect fill="#eeeeee" x="-9.96" y="-10.00" transform="translate(230.01,130.00) rotate(0.3)" width="19.92" height="20.00" rx="0.85"/>
<path fill="#eeeeee" d="
  M 198.74 130.19
  Q 200.01 134.79 199.72 139.37
  A 0.60 0.57 1.8 0 0 200.32 139.98
  L 219.00 139.99
  A 0.95 0.81 0.3 0 1 219.95 140.81
  L 219.69 159.50
  A 0.69 0.51 0.4 0 1 219.00 160.00
  L 200.50 160.00
  A 0.50 0.50 0.0 0 1 200.00 159.50
  L 200.00 140.24
  A 0.67 0.66 84.1 0 0 199.20 139.58
  Q 193.36 140.78 187.94 138.57
  L 198.74 130.19
  Z"
/>
<path fill="#eeeeee" d="
  M -0.01 159.58
  L -0.02 140.49
  L 18.73 139.95
  A 1.05 0.95 89.2 0 1 19.71 141.00
  L 19.69 159.50
  A 0.61 0.41 -2.0 0 1 19.11 159.92
  Q 9.54 160.37 -0.01 159.58
  Z"
/>
<path fill="#eeeeee" d="
  M 59.93 159.55
  Q 50.05 160.33 40.00 160.00
  L 40.09 140.62
  A 0.62 0.42 -90.0 0 1 40.51 140.00
  L 58.76 139.99
  A 1.45 1.28 -89.8 0 1 60.04 141.45
  L 59.93 159.55
  Z"
/>
<path fill="#eeeeee" d="
  M 260.01 140.40
  L 260.01 159.68
  L 240.54 159.98
  A 0.53 0.48 -0.6 0 1 240.00 159.50
  L 240.00 141.25
  A 1.04 1.03 0.3 0 1 241.05 140.22
  L 260.01 140.40
  Z"
/>
<path fill="#eeeeee" d="
  M 178.75 143.79
  L 179.68 144.96
  A 1.28 0.42 45.4 0 1 180.07 145.75
  L 179.73 159.50
  A 0.73 0.48 0.4 0 1 179.00 159.97
  L 160.74 159.89
  A 0.65 0.51 88.1 0 1 160.23 159.29
  L 159.62 151.14
  Q 169.32 148.30 178.75 143.79
  Z"
/>
<path fill="#eeeeee" d="
  M 99.50 150.79
  Q 100.18 155.15 99.69 159.01
  A 1.17 1.14 4.3 0 1 98.50 160.01
  L 85.00 159.68
  Q 84.45 159.67 84.11 159.48
  C 81.18 157.91 79.77 159.64 79.86 162.50
  Q 80.10 171.01 80.02 179.47
  A 0.52 0.48 -89.4 0 0 80.50 180.00
  L 98.26 180.01
  A 1.60 1.48 0.2 0 1 99.86 181.50
  L 99.82 199.31
  A 0.69 0.57 -90.0 0 1 99.25 200.00
  L 80.50 200.00
  A 0.50 0.50 0.0 0 1 80.00 199.50
  L 80.00 180.50
  A 0.50 0.50 0.0 0 0 79.50 180.00
  L 60.50 180.00
  A 0.53 0.47 90.0 0 1 60.03 179.47
  Q 59.97 170.31 60.01 161.20
  C 60.01 160.33 60.41 160.06 61.25 160.21
  L 66.96 160.50
  C 67.07 165.74 70.91 164.22 73.75 162.54
  C 83.75 156.62 93.51 149.45 99.50 150.79
  Z"
/>
<path fill="#eeeeee" d="
  M 120.00 154.54
  Q 129.36 155.39 138.75 154.79
  Q 138.51 156.29 139.46 157.57
  Q 140.52 158.99 139.00 159.06
  L 121.51 159.84
  Q 119.06 159.96 119.97 157.50
  Q 120.53 156.00 120.00 154.54
  Z"
/>
<rect fill="#eeeeee" x="-9.99" y="-10.04" transform="translate(149.98,169.96) rotate(0.2)" width="19.98" height="20.08" rx="0.27"/>
<path fill="#eeeeee" d="
  M 40.00 160.00
  L 39.71 179.19
  A 0.53 0.50 -0.0 0 1 39.18 179.69
  L 20.54 180.00
  C 18.66 178.63 21.68 177.67 20.35 176.11
  A 1.47 1.12 30.7 0 1 20.00 175.25
  L 20.00 160.75
  A 0.74 0.71 -90.0 0 1 20.71 160.01
  L 40.00 160.00
  Z"
/>
<rect fill="#eeeeee" x="-10.00" y="-9.99" transform="translate(109.99,170.02) rotate(0.2)" width="20.00" height="19.98" rx="0.83"/>
<rect fill="#eeeeee" x="-9.97" y="-10.04" transform="translate(190.00,170.04) rotate(0.1)" width="19.94" height="20.08" rx="0.99"/>
<path fill="#eeeeee" d="
  M 220.30 176.44
  L 220.19 176.31
  A 0.48 0.12 44.3 0 1 220.00 176.00
  L 220.00 160.75
  A 0.75 0.75 0.0 0 1 220.75 160.00
  L 239.25 160.00
  A 0.64 0.48 0.4 0 1 239.89 160.49
  L 239.85 179.31
  A 0.66 0.50 -0.0 0 1 239.19 179.81
  L 221.00 179.99
  A 0.78 0.74 -10.7 0 1 220.29 179.53
  Q 219.75 178.24 220.49 176.89
  A 0.52 0.21 45.2 0 0 220.30 176.44
  Z"
/>
<path fill="#eeeeee" d="
  M 19.75 183.79
  L 19.64 199.39
  A 0.54 0.54 -0.6 0 1 19.12 199.92
  Q 9.54 200.40 -0.01 199.54
  L -0.02 180.49
  L 18.51 179.95
  A 1.29 1.24 11.3 0 1 19.75 181.73
  Q 19.23 182.81 19.75 183.79
  Z"
/>
<path fill="#eeeeee" d="
  M 30.04 220.00
  Q 30.92 215.69 26.77 217.14
  A 0.74 0.74 81.2 0 0 26.28 217.81
  L 26.21 219.75
  L 22.47 219.92
  A 1.96 1.83 -3.6 0 1 20.44 218.25
  Q 19.66 209.49 20.16 200.68
  A 0.85 0.72 1.4 0 1 21.00 200.00
  L 39.50 200.00
  A 0.50 0.50 0.0 0 0 40.00 199.50
  L 40.00 181.00
  A 0.76 0.75 -0.4 0 1 40.75 180.25
  L 59.00 179.99
  A 1.00 0.97 -90.0 0 1 59.98 181.00
  L 59.68 199.50
  A 0.68 0.51 0.4 0 1 59.00 200.00
  L 40.50 200.00
  A 0.53 0.50 -0.0 0 0 39.97 200.50
  L 39.77 218.51
  A 1.59 1.52 0.4 0 1 38.18 220.01
  L 30.04 220.00
  Z"
/>
<rect fill="#eeeeee" x="-9.97" y="-9.99" transform="translate(129.96,190.01) rotate(0.1)" width="19.94" height="19.98" rx="0.90"/>
<rect fill="#eeeeee" x="-9.98" y="-10.00" transform="translate(169.97,190.00) rotate(0.1)" width="19.96" height="20.00" rx="0.94"/>
<rect fill="#eeeeee" x="-9.89" y="-9.97" transform="translate(209.89,190.03) rotate(-0.2)" width="19.78" height="19.94" rx="0.80"/>
<path fill="#eeeeee" d="
  M 260.01 180.41
  L 260.01 199.68
  L 240.54 199.98
  A 0.53 0.48 -0.6 0 1 240.00 199.50
  L 239.99 181.00
  A 0.85 0.73 -89.7 0 1 240.73 180.15
  L 260.01 180.41
  Z"
/>
<rect fill="#eeeeee" x="-9.96" y="-9.90" transform="translate(189.98,209.87) rotate(0.1)" width="19.92" height="19.80" rx="0.40"/>
<rect fill="#eeeeee" x="-9.97" y="-10.00" transform="translate(69.99,210.00) rotate(0.3)" width="19.94" height="20.00" rx="0.84"/>
<path fill="#eeeeee" d="
  M 112.21 221.00
  L 110.17 216.70
  A 0.85 0.72 75.2 0 0 109.48 216.22
  Q 105.75 216.24 106.85 219.76
  Q 104.13 219.37 101.26 220.02
  A 1.11 1.10 -6.2 0 1 99.90 218.94
  L 99.98 201.50
  A 1.52 1.51 0.2 0 1 101.50 200.00
  L 119.25 200.00
  A 0.65 0.50 0.0 0 1 119.90 200.50
  L 119.76 219.25
  A 0.43 0.37 6.8 0 1 119.24 219.60
  Q 117.47 219.24 115.65 219.89
  A 1.29 1.12 44.3 0 1 114.74 219.84
  Q 113.07 219.07 112.21 221.00
  Z"
/>
<rect fill="#eeeeee" x="-9.96" y="-10.00" transform="translate(149.95,209.99) rotate(0.3)" width="19.92" height="20.00" rx="1.20"/>
<path fill="#eeeeee" d="
  M 247.13 218.45
  L 246.99 230.52
  A 0.74 0.72 -89.6 0 1 246.27 231.25
  L 239.61 231.25
  Q 240.31 225.77 239.99 220.54
  A 0.79 0.78 -2.6 0 0 239.18 219.81
  L 221.00 220.08
  A 1.14 0.77 -0.4 0 1 219.84 219.31
  L 219.98 201.00
  A 1.01 1.01 0.4 0 1 220.99 199.99
  L 239.25 200.00
  A 0.75 0.75 0.0 0 1 240.00 200.75
  L 240.00 219.25
  A 0.88 0.84 -79.8 0 0 240.53 220.06
  Q 244.61 221.65 247.13 218.45
  Z"
/>
<path fill="#222222" d="
  M 180.00 228.29
  L 170.29 228.29
  A 0.54 0.46 0.0 0 0 169.75 228.75
  L 169.75 238.75
  A 0.55 0.47 0.0 0 0 170.30 239.22
  L 179.75 239.21
  Q 183.56 238.50 187.29 240.93
  Q 182.05 254.28 170.82 263.16
  A 0.36 0.33 -49.3 0 0 170.84 263.74
  L 179.50 268.46
  L 192.75 273.36
  A 0.68 0.37 22.6 0 1 193.26 274.00
  L 192.01 276.24
  A 0.87 0.65 18.8 0 1 191.11 276.53
  Q 178.61 273.51 167.98 266.28
  A 0.96 0.78 44.8 0 0 167.06 266.19
  L 160.00 270.04
  Q 151.77 274.03 142.95 276.59
  A 1.08 1.01 -33.7 0 1 142.05 276.44
  Q 140.03 274.96 140.39 272.56
  Q 152.76 270.16 163.56 263.73
  A 0.42 0.41 50.8 0 0 163.62 263.07
  L 160.00 259.71
  Q 151.27 251.24 147.66 239.65
  L 160.25 239.21
  L 164.98 239.21
  A 0.57 0.47 0.5 0 0 165.55 238.75
  L 165.71 229.00
  A 0.58 0.50 1.7 0 0 165.15 228.49
  L 160.25 228.29
  L 139.47 228.36
  Q 136.37 224.49 141.00 224.46
  L 165.09 224.15
  A 0.60 0.41 0.5 0 0 165.69 223.75
  L 165.87 216.68
  A 0.88 0.64 88.0 0 1 166.43 215.86
  Q 167.81 215.66 169.18 216.10
  A 1.00 0.26 88.4 0 1 169.44 217.01
  L 169.76 224.00
  A 0.75 0.53 -1.1 0 0 170.50 224.50
  L 196.25 224.50
  A 0.76 0.50 -0.3 0 1 197.01 224.99
  L 197.11 227.81
  A 0.65 0.42 -1.0 0 1 196.46 228.24
  L 180.00 228.29
  Z
  M 159.46 253.25
  Q 162.71 257.31 166.87 260.46
  A 0.75 0.70 45.1 0 0 167.73 260.49
  Q 177.10 253.78 182.21 243.47
  A 0.42 0.38 12.5 0 0 181.82 242.92
  L 160.00 242.79
  L 153.00 242.94
  A 0.35 0.33 75.5 0 0 152.72 243.45
  Q 155.34 248.86 159.46 253.25
  Z"
/>
<path fill="#222222" d="
  M 112.21 221.00
  Q 112.85 222.42 112.65 223.94
  A 0.43 0.40 -87.5 0 0 113.06 224.42
  L 120.25 224.21
  L 131.02 224.39
  A 0.92 0.68 -4.1 0 1 131.85 224.92
  Q 132.22 226.38 131.85 227.83
  A 0.92 0.56 3.3 0 1 131.02 228.27
  L 119.25 228.29
  L 89.05 228.25
  A 0.80 0.50 -0.0 0 1 88.25 227.75
  L 88.24 224.74
  A 1.01 0.49 -0.0 0 1 89.25 224.25
  L 108.50 224.25
  A 0.36 0.35 -13.0 0 0 108.82 223.74
  L 106.85 219.76
  Q 105.75 216.24 109.48 216.22
  A 0.85 0.72 75.2 0 1 110.17 216.70
  L 112.21 221.00
  Z"
/>
<path fill="#222222" d="
  M 51.13 219.67
  L 48.95 227.46
  A 0.38 0.38 7.5 0 0 49.32 227.94
  L 60.00 227.96
  Q 64.04 227.39 62.59 231.28
  A 0.62 0.58 -69.3 0 1 61.82 231.66
  Q 60.75 231.26 59.68 231.66
  A 1.02 0.62 85.8 0 0 59.25 232.50
  Q 58.64 246.85 53.02 260.00
  A 1.32 0.61 -60.7 0 0 52.94 261.04
  Q 56.79 267.19 62.07 272.19
  A 0.97 0.31 42.3 0 1 62.54 273.01
  L 60.73 276.23
  A 0.49 0.41 39.2 0 1 60.01 276.24
  Q 54.88 271.00 50.90 264.84
  A 0.48 0.44 -44.9 0 0 50.13 264.87
  Q 45.87 271.03 40.40 276.15
  A 0.49 0.45 -36.8 0 1 39.66 276.08
  L 37.97 273.01
  A 0.76 0.44 -38.7 0 1 38.26 272.27
  Q 44.02 267.16 48.28 260.77
  A 1.14 0.98 -41.8 0 0 48.41 259.78
  Q 44.84 250.99 43.74 241.56
  A 0.90 0.50 85.8 0 0 43.22 240.77
  C 42.15 240.70 41.19 249.46 38.85 241.68
  A 1.23 0.89 57.6 0 1 38.90 240.82
  Q 45.13 229.59 47.72 216.99
  A 0.95 0.75 -7.5 0 1 48.30 216.39
  Q 52.74 214.81 51.13 219.67
  Z
  M 51.04 255.08
  C 53.88 247.99 55.03 240.19 55.54 232.41
  A 0.81 0.78 -88.6 0 0 54.75 231.54
  L 48.94 231.67
  Q 46.29 231.73 46.50 234.52
  Q 47.26 244.99 50.46 255.06
  Q 50.72 255.89 51.04 255.08
  Z"
/>
<path fill="#222222" d="
  M 78.46 259.75
  L 78.33 241.21
  Q 78.33 240.67 78.04 241.13
  L 72.98 249.07
  A 0.45 0.34 -47.2 0 1 72.31 249.19
  L 70.57 246.19
  A 1.00 0.42 -53.8 0 1 70.77 245.34
  L 73.03 241.67
  Q 80.01 230.15 83.73 216.85
  A 0.74 0.32 -73.7 0 1 84.26 216.22
  Q 86.04 216.81 87.45 218.05
  A 1.02 0.38 -68.9 0 1 87.44 218.98
  C 85.96 223.64 82.45 229.86 82.36 234.57
  Q 81.99 255.06 82.55 275.54
  A 1.18 1.02 71.0 0 1 82.21 276.39
  Q 80.73 277.73 78.89 276.75
  A 0.86 0.78 -77.6 0 1 78.47 276.01
  L 78.46 259.75
  Z"
/>
<path fill="#222222" d="
  M 212.79 259.50
  L 212.75 276.20
  A 0.78 0.48 -88.8 0 1 212.25 276.98
  L 209.17 276.87
  A 0.85 0.45 -89.7 0 1 208.73 276.03
  L 208.71 260.00
  L 208.61 241.22
  Q 208.61 240.46 208.17 241.18
  L 203.36 249.09
  A 0.40 0.34 -48.5 0 1 202.74 249.18
  L 201.21 247.00
  Q 200.73 246.07 201.06 245.56
  Q 208.58 234.10 212.75 221.04
  L 214.05 217.02
  A 0.92 0.81 -75.3 0 1 214.99 216.39
  Q 218.43 217.01 217.46 220.18
  C 216.40 223.60 212.76 230.16 212.75 235.28
  Q 212.72 247.40 212.79 259.50
  Z"
/>
<path fill="#222222" d="
  M 250.96 217.25
  L 250.85 230.62
  A 0.54 0.49 1.7 0 0 251.37 231.12
  L 260.02 231.39
  L 260.00 235.06
  L 251.69 235.21
  A 0.59 0.49 -0.1 0 0 251.11 235.69
  L 251.04 239.50
  Q 250.25 255.17 250.80 260.75
  C 251.66 269.60 250.89 277.19 239.28 275.74
  A 0.60 0.48 3.9 0 1 238.75 275.25
  L 238.75 272.50
  A 0.64 0.41 -5.8 0 1 239.30 272.06
  L 241.29 271.75
  C 248.46 272.54 247.15 263.89 247.03 259.61
  L 246.71 240.00
  L 246.69 235.56
  A 0.49 0.48 -1.1 0 0 246.18 235.08
  L 240.25 235.29
  L 219.24 235.26
  A 0.77 0.55 -1.5 0 1 218.49 234.75
  L 218.27 231.75
  A 0.76 0.47 -1.2 0 1 219.05 231.25
  L 239.61 231.25
  L 246.27 231.25
  A 0.74 0.72 -89.6 0 0 246.99 230.52
  L 247.13 218.45
  C 246.20 215.48 250.13 215.73 250.96 217.25
  Z"
/>
<path fill="#222222" d="
  M 1.29 231.75
  Q 6.23 227.17 9.46 221.25
  L 12.09 216.97
  A 0.78 0.52 -59.0 0 1 12.93 216.57
  L 15.26 217.97
  A 0.75 0.52 -61.9 0 1 15.36 218.84
  Q 10.83 227.95 3.82 235.32
  A 0.75 0.67 -52.3 0 1 2.95 235.48
  Q 0.76 234.20 1.29 231.75
  Z"
/>
<path fill="#222222" d="
  M 30.04 220.00
  L 30.02 232.24
  A 0.76 0.48 90.0 0 0 30.50 233.00
  L 35.00 233.00
  A 0.76 0.49 -89.5 0 0 35.49 232.25
  L 35.65 222.25
  A 0.51 0.35 -89.2 0 1 36.00 221.75
  L 38.75 221.75
  A 0.75 0.50 90.0 0 1 39.25 222.50
  L 39.25 236.00
  A 0.76 0.68 -0.4 0 1 38.50 236.68
  L 17.50 236.74
  A 0.75 0.49 0.0 0 1 16.75 236.25
  L 16.75 222.50
  A 0.86 0.43 -89.2 0 1 17.20 221.62
  L 20.19 221.79
  A 0.98 0.31 -89.6 0 1 20.49 222.75
  L 20.50 232.50
  A 0.50 0.50 0.0 0 0 21.00 233.00
  L 25.75 233.00
  A 0.54 0.47 90.0 0 0 26.22 232.46
  L 26.21 219.75
  L 26.28 217.81
  A 0.74 0.74 81.2 0 1 26.77 217.14
  Q 30.92 215.69 30.04 220.00
  Z"
/>
<path fill="#eeeeee" d="
  M 250.96 217.25
  Q 250.62 220.54 254.04 220.00
  Q 257.00 219.54 260.04 220.94
  L 260.02 231.39
  L 251.37 231.12
  A 0.54 0.49 1.7 0 1 250.85 230.62
  L 250.96 217.25
  Z"
/>
<path fill="#eeeeee" d="
  M 51.13 219.67
  L 59.13 220.39
  A 0.63 0.55 1.9 0 1 59.70 220.92
  L 60.00 227.96
  L 49.32 227.94
  A 0.38 0.38 7.5 0 1 48.95 227.46
  L 51.13 219.67
  Z"
/>
<path fill="#eeeeee" d="
  M 141.00 224.46
  Q 136.37 224.49 139.47 228.36
  Q 140.35 233.70 139.61 239.38
  A 0.66 0.58 -84.4 0 1 138.99 239.96
  L 129.75 239.51
  A 1.04 0.51 66.2 0 1 129.11 238.97
  Q 128.82 238.47 128.25 238.21
  L 128.08 235.29
  A 0.68 0.54 0.4 0 0 127.44 234.78
  L 120.00 234.46
  Q 120.52 231.25 119.25 228.29
  L 131.02 228.27
  A 0.92 0.56 3.3 0 0 131.85 227.83
  Q 132.22 226.38 131.85 224.92
  A 0.92 0.68 -4.1 0 0 131.02 224.39
  L 120.25 224.21
  L 120.03 220.83
  A 0.48 0.47 -2.3 0 1 120.50 220.33
  L 139.00 219.99
  A 1.04 1.01 2.7 0 1 140.05 221.11
  Q 139.86 222.72 141.00 224.46
  Z"
/>
<path fill="#eeeeee" d="
  M 212.75 221.04
  Q 208.58 234.10 201.06 245.56
  Q 200.73 246.07 201.21 247.00
  L 200.41 247.26
  A 0.84 0.49 85.7 0 0 200.05 247.99
  L 199.78 259.25
  A 0.78 0.77 0.8 0 1 199.00 260.00
  L 182.25 260.00
  A 1.75 1.55 -25.6 0 1 181.34 259.74
  C 178.49 257.93 179.74 261.28 179.75 262.35
  Q 179.75 265.40 179.50 268.46
  L 170.84 263.74
  A 0.36 0.33 -49.3 0 1 170.82 263.16
  Q 182.05 254.28 187.29 240.93
  C 190.56 239.21 195.92 240.11 199.60 240.12
  A 0.62 0.49 -89.6 0 0 200.10 239.50
  L 200.06 221.07
  A 0.93 0.93 -2.3 0 1 200.93 220.13
  Q 206.74 219.77 212.75 221.04
  Z"
/>
<path fill="#eeeeee" d="
  M 9.46 221.25
  Q 6.23 227.17 1.29 231.75
  Q -0.13 226.48 0.50 221.05
  A 0.69 0.67 -1.9 0 1 1.06 220.47
  Q 5.33 219.75 9.46 221.25
  Z"
/>
<path fill="#eeeeee" d="
  M 160.25 228.29
  L 165.15 228.49
  A 0.58 0.50 1.7 0 1 165.71 229.00
  L 165.55 238.75
  A 0.57 0.47 0.5 0 1 164.98 239.21
  L 160.25 239.21
  Q 159.69 233.75 160.25 228.29
  Z"
/>
<path fill="#eeeeee" d="
  M 180.00 228.29
  L 179.75 239.21
  L 170.30 239.22
  A 0.55 0.47 -0.0 0 1 169.75 238.75
  L 169.75 228.75
  A 0.54 0.46 -0.0 0 1 170.29 228.29
  L 180.00 228.29
  Z"
/>
<path fill="#f8f8f7" d="
  M 55.54 232.41
  C 55.03 240.19 53.88 247.99 51.04 255.08
  Q 50.72 255.89 50.46 255.06
  Q 47.26 244.99 46.50 234.52
  Q 46.29 231.73 48.94 231.67
  L 54.75 231.54
  A 0.81 0.78 -88.6 0 1 55.54 232.41
  Z"
/>
<path fill="#222222" d="
  M 0.00 252.69
  L 0.00 252.19
  Q 7.49 243.93 11.52 233.42
  A 0.74 0.46 -65.5 0 1 12.31 232.90
  L 15.09 234.66
  A 0.96 0.49 -62.5 0 1 15.08 235.69
  C 13.35 239.13 11.25 242.32 11.25 246.32
  Q 11.25 261.17 11.25 276.00
  A 0.78 0.78 79.7 0 1 10.75 276.73
  Q 9.36 277.26 7.92 276.85
  A 0.94 0.55 -85.9 0 1 7.50 276.00
  L 7.51 250.50
  Q 7.51 249.77 7.03 250.34
  L 2.73 255.40
  A 0.52 0.49 -49.9 0 1 2.03 255.48
  Q 0.64 254.34 0.00 252.69
  Z"
/>
<path fill="#222222" d="
  M 120.00 234.46
  L 127.44 234.78
  A 0.68 0.54 0.4 0 1 128.08 235.29
  L 128.25 238.21
  C 127.88 238.56 97.27 238.44 92.73 238.61
  A 0.75 0.72 -11.5 0 1 92.03 238.17
  Q 90.35 234.18 94.74 234.49
  Q 100.40 234.88 120.00 234.46
  Z"
/>
<path fill="#eeeeee" d="
  M 246.71 240.00
  C 243.68 239.30 238.51 241.49 240.25 235.29
  L 246.18 235.08
  A 0.49 0.48 -1.1 0 1 246.69 235.56
  L 246.71 240.00
  Z"
/>
<path fill="#eeeeee" d="
  M 260.00 235.06
  L 260.00 237.56
  Q 259.95 238.75 259.32 239.62
  A 1.00 0.76 15.9 0 1 258.50 239.94
  L 251.04 239.50
  L 251.11 235.69
  A 0.59 0.49 -0.1 0 1 251.69 235.21
  L 260.00 235.06
  Z"
/>
<path fill="#eeeeee" d="
  M 147.66 239.65
  Q 151.27 251.24 160.00 259.71
  L 140.54 259.94
  A 0.53 0.44 -0.6 0 1 140.00 259.50
  L 140.00 240.75
  A 0.89 0.85 3.1 0 1 140.98 239.91
  Q 144.84 240.29 147.66 239.65
  Z"
/>
<path fill="#eeeeee" d="
  M 73.03 241.67
  L 70.77 245.34
  A 1.00 0.42 -53.8 0 0 70.57 246.19
  L 72.31 249.19
  A 0.45 0.34 -47.2 0 0 72.98 249.07
  L 78.04 241.13
  Q 78.33 240.67 78.33 241.21
  L 78.46 259.75
  L 60.66 259.86
  A 0.64 0.43 0.0 0 1 60.02 259.43
  L 60.00 241.74
  A 1.71 1.63 -3.8 0 1 61.49 240.11
  Q 67.70 239.33 73.03 241.67
  Z"
/>
<path fill="#eeeeee" d="
  M 236.75 258.96
  L 229.48 244.20
  A 0.61 0.54 61.8 0 0 228.68 243.91
  L 226.19 245.43
  A 0.72 0.43 63.7 0 0 226.13 246.22
  L 232.05 258.99
  Q 226.27 260.51 220.38 260.09
  A 0.48 0.46 -87.2 0 0 219.88 260.56
  L 219.56 280.00
  L 202.44 280.00
  Q 201.06 280.04 200.14 279.31
  A 1.05 0.92 -72.6 0 1 199.78 278.50
  L 199.97 261.24
  A 1.31 1.29 4.8 0 1 201.49 259.98
  Q 205.10 260.56 208.71 260.00
  L 208.73 276.03
  A 0.85 0.45 -89.7 0 0 209.17 276.87
  L 212.25 276.98
  A 0.78 0.48 -88.8 0 0 212.75 276.20
  L 212.79 259.50
  Q 215.98 260.48 219.44 259.73
  A 0.77 0.72 84.8 0 0 220.01 259.00
  L 220.26 240.75
  A 0.69 0.58 -0.1 0 1 220.94 240.18
  L 238.75 239.96
  A 1.12 1.10 -1.3 0 1 239.89 241.03
  Q 240.08 249.30 239.72 257.82
  C 239.63 260.18 238.37 260.01 236.75 258.96
  Z"
/>
<path fill="#ffffff" d="
  M 208.71 260.00
  Q 205.10 260.56 201.49 259.98
  A 1.31 1.29 4.8 0 0 199.97 261.24
  L 199.78 278.50
  A 1.05 0.92 -72.6 0 0 200.14 279.31
  Q 201.06 280.04 202.44 280.00
  L 161.44 280.00
  Q 160.55 279.85 159.91 279.29
  A 1.15 0.72 -76.2 0 1 159.63 278.44
  L 160.00 270.04
  L 167.06 266.19
  A 0.96 0.78 44.8 0 1 167.98 266.28
  Q 178.61 273.51 191.11 276.53
  A 0.87 0.65 18.8 0 0 192.01 276.24
  L 193.26 274.00
  A 0.68 0.37 22.6 0 0 192.75 273.36
  L 179.50 268.46
  Q 179.75 265.40 179.75 262.35
  C 179.74 261.28 178.49 257.93 181.34 259.74
  A 1.75 1.55 -25.6 0 0 182.25 260.00
  L 199.00 260.00
  A 0.78 0.77 0.8 0 0 199.78 259.25
  L 200.05 247.99
  A 0.84 0.49 85.7 0 1 200.41 247.26
  L 201.21 247.00
  L 202.74 249.18
  A 0.40 0.34 -48.5 0 0 203.36 249.09
  L 208.17 241.18
  Q 208.61 240.46 208.61 241.22
  L 208.71 260.00
  Z"
/>
<rect fill="#222222" x="-9.99" y="-1.87" transform="translate(27.75,244.38) rotate(-0.2)" width="19.98" height="3.74" rx="0.73"/>
<path fill="#eeeeee" d="
  M 160.00 242.79
  L 159.46 253.25
  Q 155.34 248.86 152.72 243.45
  A 0.35 0.33 75.5 0 1 153.00 242.94
  L 160.00 242.79
  Z"
/>
<path fill="#ffffff" d="
  M 160.00 242.79
  L 181.82 242.92
  A 0.42 0.38 12.5 0 1 182.21 243.47
  Q 177.10 253.78 167.73 260.49
  A 0.75 0.70 45.1 0 1 166.87 260.46
  Q 162.71 257.31 159.46 253.25
  L 160.00 242.79
  Z"
/>
<path fill="#222222" d="
  M 236.75 258.96
  L 233.71 260.57
  A 0.71 0.66 54.1 0 1 232.89 260.41
  Q 232.32 259.80 232.05 258.99
  L 226.13 246.22
  A 0.72 0.43 63.7 0 1 226.19 245.43
  L 228.68 243.91
  A 0.61 0.54 61.8 0 1 229.48 244.20
  L 236.75 258.96
  Z"
/>
<rect fill="#222222" x="91.76" y="244.75" width="36.40" height="3.84" rx="0.28"/>
<path fill="#222222" d="
  M 31.25 255.75
  L 23.00 255.75
  A 0.53 0.47 88.8 0 0 22.53 256.30
  C 22.76 263.34 21.55 269.55 16.37 274.46
  A 0.72 0.49 -40.3 0 1 15.43 274.56
  L 13.66 271.83
  A 0.95 0.46 -39.7 0 1 14.07 270.92
  C 19.31 266.31 18.57 260.35 18.60 252.62
  A 0.55 0.40 -89.3 0 1 19.00 252.08
  L 34.75 252.00
  A 0.75 0.74 89.6 0 1 35.50 252.75
  L 35.50 263.25
  Q 35.50 264.08 36.07 263.58
  L 39.55 260.55
  A 0.87 0.43 -42.0 0 1 40.45 260.30
  Q 41.42 261.26 41.91 262.58
  A 0.84 0.77 60.1 0 1 41.71 263.47
  L 33.47 270.47
  A 0.62 0.62 -42.8 0 1 32.64 270.44
  C 30.01 267.88 31.73 265.38 31.75 262.94
  Q 31.79 259.62 31.70 256.31
  A 0.57 0.45 89.4 0 0 31.25 255.75
  Z"
/>
<path fill="#222222" d="
  M 127.29 261.00
  L 127.19 273.94
  A 0.59 0.51 89.0 0 1 126.70 274.53
  L 121.29 274.71
  L 93.18 274.68
  A 0.62 0.48 -90.0 0 1 92.70 274.06
  L 92.73 255.99
  A 1.02 0.98 -0.0 0 1 93.75 255.01
  L 126.50 255.00
  A 0.55 0.53 -1.1 0 1 127.05 255.51
  L 127.29 261.00
  Z
  M 123.25 259.09
  A 0.34 0.34 0.0 0 0 122.91 258.75
  L 97.01 258.75
  A 0.34 0.34 0.0 0 0 96.67 259.09
  L 96.67 270.85
  A 0.34 0.34 0.0 0 0 97.01 271.19
  L 122.91 271.19
  A 0.34 0.34 0.0 0 0 123.25 270.85
  L 123.25 259.09
  Z"
/>
<rect fill="#ffffff" x="96.67" y="258.75" width="26.58" height="12.44" rx="0.34"/>
<path fill="#eeeeee" d="
  M 247.03 259.61
  C 247.15 263.89 248.46 272.54 241.29 271.75
  Q 239.09 266.49 240.21 260.76
  A 0.58 0.55 6.8 0 1 240.81 260.31
  Q 243.97 260.54 247.03 259.61
  Z"
/>
<path fill="#eeeeee" d="
  M 140.39 272.56
  Q 140.03 274.96 142.05 276.44
  A 1.08 1.01 -33.7 0 0 142.95 276.59
  Q 151.77 274.03 160.00 270.04
  L 159.63 278.44
  A 1.15 0.72 -76.2 0 0 159.91 279.29
  Q 160.55 279.85 161.44 280.00
  L 131.44 280.00
  Q 126.96 279.62 122.63 278.24
  A 0.58 0.56 -76.4 0 1 122.26 277.60
  Q 122.52 275.88 121.29 274.71
  L 126.70 274.53
  A 0.59 0.51 89.0 0 0 127.19 273.94
  L 127.29 261.00
  Q 133.11 259.45 139.28 260.17
  A 0.72 0.55 4.2 0 1 139.93 260.75
  L 139.71 271.44
  A 1.17 0.44 -83.6 0 0 139.93 272.31
  Q 140.15 272.50 140.39 272.56
  Z"
/>
</svg>
